G04 #@! TF.GenerationSoftware,KiCad,Pcbnew,(5.0.0-rc2-37-ga8db21319)*
G04 #@! TF.CreationDate,2018-06-29T03:36:38+01:00*
G04 #@! TF.ProjectId,tug,7475672E6B696361645F706362000000,rev?*
G04 #@! TF.SameCoordinates,Original*
G04 #@! TF.FileFunction,Copper,L2,Bot,Signal*
G04 #@! TF.FilePolarity,Positive*
%FSLAX46Y46*%
G04 Gerber Fmt 4.6, Leading zero omitted, Abs format (unit mm)*
G04 Created by KiCad (PCBNEW (5.0.0-rc2-37-ga8db21319)) date Fri Jun 29 03:36:38 2018*
%MOMM*%
%LPD*%
G01*
G04 APERTURE LIST*
G04 #@! TA.AperFunction,ComponentPad*
%ADD10C,1.727200*%
G04 #@! TD*
G04 #@! TA.AperFunction,ComponentPad*
%ADD11O,1.727200X1.727200*%
G04 #@! TD*
G04 #@! TA.AperFunction,ComponentPad*
%ADD12O,1.727200X2.032000*%
G04 #@! TD*
G04 #@! TA.AperFunction,ComponentPad*
%ADD13C,4.064000*%
G04 #@! TD*
G04 #@! TA.AperFunction,ComponentPad*
%ADD14C,1.600000*%
G04 #@! TD*
G04 #@! TA.AperFunction,ComponentPad*
%ADD15R,1.600000X1.600000*%
G04 #@! TD*
G04 #@! TA.AperFunction,ComponentPad*
%ADD16R,2.400000X2.400000*%
G04 #@! TD*
G04 #@! TA.AperFunction,ComponentPad*
%ADD17O,2.400000X2.400000*%
G04 #@! TD*
G04 #@! TA.AperFunction,ComponentPad*
%ADD18R,1.700000X1.700000*%
G04 #@! TD*
G04 #@! TA.AperFunction,ComponentPad*
%ADD19O,1.700000X1.700000*%
G04 #@! TD*
G04 #@! TA.AperFunction,ComponentPad*
%ADD20C,2.500000*%
G04 #@! TD*
G04 #@! TA.AperFunction,ViaPad*
%ADD21C,2.032000*%
G04 #@! TD*
G04 #@! TA.AperFunction,ViaPad*
%ADD22C,3.048000*%
G04 #@! TD*
G04 #@! TA.AperFunction,ViaPad*
%ADD23C,0.762000*%
G04 #@! TD*
G04 #@! TA.AperFunction,Conductor*
%ADD24C,1.270000*%
G04 #@! TD*
G04 #@! TA.AperFunction,Conductor*
%ADD25C,0.635000*%
G04 #@! TD*
G04 #@! TA.AperFunction,Conductor*
%ADD26C,0.254000*%
G04 #@! TD*
G04 APERTURE END LIST*
D10*
G04 #@! TO.P,P1,1*
G04 #@! TO.N,GND*
X197358000Y-114046000D03*
D11*
G04 #@! TO.P,P1,2*
X199898000Y-114046000D03*
G04 #@! TO.P,P1,3*
G04 #@! TO.N,/52(SCK)*
X197358000Y-111506000D03*
G04 #@! TO.P,P1,4*
G04 #@! TO.N,/53(SS)*
X199898000Y-111506000D03*
G04 #@! TO.P,P1,5*
G04 #@! TO.N,/50(MISO)*
X197358000Y-108966000D03*
G04 #@! TO.P,P1,6*
G04 #@! TO.N,/51(MOSI)*
X199898000Y-108966000D03*
G04 #@! TO.P,P1,7*
G04 #@! TO.N,/48*
X197358000Y-106426000D03*
G04 #@! TO.P,P1,8*
G04 #@! TO.N,/49*
X199898000Y-106426000D03*
G04 #@! TO.P,P1,9*
G04 #@! TO.N,/46*
X197358000Y-103886000D03*
G04 #@! TO.P,P1,10*
G04 #@! TO.N,/47*
X199898000Y-103886000D03*
G04 #@! TO.P,P1,11*
G04 #@! TO.N,/44*
X197358000Y-101346000D03*
G04 #@! TO.P,P1,12*
G04 #@! TO.N,/45*
X199898000Y-101346000D03*
G04 #@! TO.P,P1,13*
G04 #@! TO.N,/42*
X197358000Y-98806000D03*
G04 #@! TO.P,P1,14*
G04 #@! TO.N,/43*
X199898000Y-98806000D03*
G04 #@! TO.P,P1,15*
G04 #@! TO.N,/40*
X197358000Y-96266000D03*
G04 #@! TO.P,P1,16*
G04 #@! TO.N,/41*
X199898000Y-96266000D03*
G04 #@! TO.P,P1,17*
G04 #@! TO.N,/38*
X197358000Y-93726000D03*
G04 #@! TO.P,P1,18*
G04 #@! TO.N,/39*
X199898000Y-93726000D03*
G04 #@! TO.P,P1,19*
G04 #@! TO.N,/36*
X197358000Y-91186000D03*
G04 #@! TO.P,P1,20*
G04 #@! TO.N,/37*
X199898000Y-91186000D03*
G04 #@! TO.P,P1,21*
G04 #@! TO.N,/34*
X197358000Y-88646000D03*
G04 #@! TO.P,P1,22*
G04 #@! TO.N,/35*
X199898000Y-88646000D03*
G04 #@! TO.P,P1,23*
G04 #@! TO.N,/32*
X197358000Y-86106000D03*
G04 #@! TO.P,P1,24*
G04 #@! TO.N,/33*
X199898000Y-86106000D03*
G04 #@! TO.P,P1,25*
G04 #@! TO.N,/30*
X197358000Y-83566000D03*
G04 #@! TO.P,P1,26*
G04 #@! TO.N,/31*
X199898000Y-83566000D03*
G04 #@! TO.P,P1,27*
G04 #@! TO.N,/28*
X197358000Y-81026000D03*
G04 #@! TO.P,P1,28*
G04 #@! TO.N,/29*
X199898000Y-81026000D03*
G04 #@! TO.P,P1,29*
G04 #@! TO.N,/26*
X197358000Y-78486000D03*
G04 #@! TO.P,P1,30*
G04 #@! TO.N,/27*
X199898000Y-78486000D03*
G04 #@! TO.P,P1,31*
G04 #@! TO.N,/24*
X197358000Y-75946000D03*
G04 #@! TO.P,P1,32*
G04 #@! TO.N,/25*
X199898000Y-75946000D03*
G04 #@! TO.P,P1,33*
G04 #@! TO.N,/22*
X197358000Y-73406000D03*
G04 #@! TO.P,P1,34*
G04 #@! TO.N,/23*
X199898000Y-73406000D03*
G04 #@! TO.P,P1,35*
G04 #@! TO.N,+5V*
X197358000Y-70866000D03*
G04 #@! TO.P,P1,36*
X199898000Y-70866000D03*
G04 #@! TD*
D12*
G04 #@! TO.P,P2,1*
G04 #@! TO.N,Net-(P2-Pad1)*
X131318000Y-119126000D03*
G04 #@! TO.P,P2,2*
G04 #@! TO.N,/IOREF*
X133858000Y-119126000D03*
G04 #@! TO.P,P2,3*
G04 #@! TO.N,/Reset*
X136398000Y-119126000D03*
G04 #@! TO.P,P2,4*
G04 #@! TO.N,+3V3*
X138938000Y-119126000D03*
G04 #@! TO.P,P2,5*
G04 #@! TO.N,+5V*
X141478000Y-119126000D03*
G04 #@! TO.P,P2,6*
G04 #@! TO.N,GND*
X144018000Y-119126000D03*
G04 #@! TO.P,P2,7*
X146558000Y-119126000D03*
G04 #@! TO.P,P2,8*
G04 #@! TO.N,/Vin*
X149098000Y-119126000D03*
G04 #@! TD*
G04 #@! TO.P,P3,1*
G04 #@! TO.N,/A0*
X154178000Y-119126000D03*
G04 #@! TO.P,P3,2*
G04 #@! TO.N,/A1*
X156718000Y-119126000D03*
G04 #@! TO.P,P3,3*
G04 #@! TO.N,/A2*
X159258000Y-119126000D03*
G04 #@! TO.P,P3,4*
G04 #@! TO.N,/A3*
X161798000Y-119126000D03*
G04 #@! TO.P,P3,5*
G04 #@! TO.N,/A4*
X164338000Y-119126000D03*
G04 #@! TO.P,P3,6*
G04 #@! TO.N,/A5*
X166878000Y-119126000D03*
G04 #@! TO.P,P3,7*
G04 #@! TO.N,/A6*
X169418000Y-119126000D03*
G04 #@! TO.P,P3,8*
G04 #@! TO.N,/A7*
X171958000Y-119126000D03*
G04 #@! TD*
G04 #@! TO.P,P4,1*
G04 #@! TO.N,/A8*
X177038000Y-119126000D03*
G04 #@! TO.P,P4,2*
G04 #@! TO.N,/A9*
X179578000Y-119126000D03*
G04 #@! TO.P,P4,3*
G04 #@! TO.N,/A10*
X182118000Y-119126000D03*
G04 #@! TO.P,P4,4*
G04 #@! TO.N,/A11*
X184658000Y-119126000D03*
G04 #@! TO.P,P4,5*
G04 #@! TO.N,/A12*
X187198000Y-119126000D03*
G04 #@! TO.P,P4,6*
G04 #@! TO.N,/A13*
X189738000Y-119126000D03*
G04 #@! TO.P,P4,7*
G04 #@! TO.N,/A14*
X192278000Y-119126000D03*
G04 #@! TO.P,P4,8*
G04 #@! TO.N,/A15*
X194818000Y-119126000D03*
G04 #@! TD*
G04 #@! TO.P,P5,1*
G04 #@! TO.N,/SCL*
X122174000Y-70866000D03*
G04 #@! TO.P,P5,2*
G04 #@! TO.N,/SDA*
X124714000Y-70866000D03*
G04 #@! TO.P,P5,3*
G04 #@! TO.N,/AREF*
X127254000Y-70866000D03*
G04 #@! TO.P,P5,4*
G04 #@! TO.N,GND*
X129794000Y-70866000D03*
G04 #@! TO.P,P5,5*
G04 #@! TO.N,/13(\002A\002A)*
X132334000Y-70866000D03*
G04 #@! TO.P,P5,6*
G04 #@! TO.N,/12(\002A\002A)*
X134874000Y-70866000D03*
G04 #@! TO.P,P5,7*
G04 #@! TO.N,/11(\002A\002A)*
X137414000Y-70866000D03*
G04 #@! TO.P,P5,8*
G04 #@! TO.N,/10(\002A\002A)*
X139954000Y-70866000D03*
G04 #@! TO.P,P5,9*
G04 #@! TO.N,/9(\002A\002A)*
X142494000Y-70866000D03*
G04 #@! TO.P,P5,10*
G04 #@! TO.N,/8(\002A\002A)*
X145034000Y-70866000D03*
G04 #@! TD*
G04 #@! TO.P,P6,1*
G04 #@! TO.N,/7(\002A\002A)*
X149098000Y-70866000D03*
G04 #@! TO.P,P6,2*
G04 #@! TO.N,/6(\002A\002A)*
X151638000Y-70866000D03*
G04 #@! TO.P,P6,3*
G04 #@! TO.N,/5(\002A\002A)*
X154178000Y-70866000D03*
G04 #@! TO.P,P6,4*
G04 #@! TO.N,/4(\002A\002A)*
X156718000Y-70866000D03*
G04 #@! TO.P,P6,5*
G04 #@! TO.N,/3(\002A\002A)*
X159258000Y-70866000D03*
G04 #@! TO.P,P6,6*
G04 #@! TO.N,/2(\002A\002A)*
X161798000Y-70866000D03*
G04 #@! TO.P,P6,7*
G04 #@! TO.N,/1(Tx0)*
X164338000Y-70866000D03*
G04 #@! TO.P,P6,8*
G04 #@! TO.N,/0(Rx0)*
X166878000Y-70866000D03*
G04 #@! TD*
G04 #@! TO.P,P7,1*
G04 #@! TO.N,/14(Tx3)*
X171958000Y-70866000D03*
G04 #@! TO.P,P7,2*
G04 #@! TO.N,/15(Rx3)*
X174498000Y-70866000D03*
G04 #@! TO.P,P7,3*
G04 #@! TO.N,/16(Tx2)*
X177038000Y-70866000D03*
G04 #@! TO.P,P7,4*
G04 #@! TO.N,/17(Rx2)*
X179578000Y-70866000D03*
G04 #@! TO.P,P7,5*
G04 #@! TO.N,/18(Tx1)*
X182118000Y-70866000D03*
G04 #@! TO.P,P7,6*
G04 #@! TO.N,/19(Rx1)*
X184658000Y-70866000D03*
G04 #@! TO.P,P7,7*
G04 #@! TO.N,/20(SDA)*
X187198000Y-70866000D03*
G04 #@! TO.P,P7,8*
G04 #@! TO.N,/21(SCL)*
X189738000Y-70866000D03*
G04 #@! TD*
D13*
G04 #@! TO.P,P8,1*
G04 #@! TO.N,Net-(P8-Pad1)*
X117348000Y-119126000D03*
G04 #@! TD*
G04 #@! TO.P,P9,1*
G04 #@! TO.N,Net-(P9-Pad1)*
X169418000Y-114046000D03*
G04 #@! TD*
G04 #@! TO.P,P10,1*
G04 #@! TO.N,Net-(P10-Pad1)*
X199898000Y-119126000D03*
G04 #@! TD*
G04 #@! TO.P,P11,1*
G04 #@! TO.N,Net-(P11-Pad1)*
X118618000Y-70866000D03*
G04 #@! TD*
G04 #@! TO.P,P12,1*
G04 #@! TO.N,Net-(P12-Pad1)*
X169418000Y-86106000D03*
G04 #@! TD*
G04 #@! TO.P,P13,1*
G04 #@! TO.N,Net-(P13-Pad1)*
X193548000Y-70866000D03*
G04 #@! TD*
D14*
G04 #@! TO.P,C5,2*
G04 #@! TO.N,GND*
X120975000Y-86995000D03*
D15*
G04 #@! TO.P,C5,1*
G04 #@! TO.N,+12V*
X117475000Y-86995000D03*
G04 #@! TD*
G04 #@! TO.P,C6,1*
G04 #@! TO.N,/Vin*
X122936000Y-119634000D03*
D14*
G04 #@! TO.P,C6,2*
G04 #@! TO.N,GND*
X126436000Y-119634000D03*
G04 #@! TD*
D16*
G04 #@! TO.P,D3,1*
G04 #@! TO.N,/Vin*
X117602000Y-124206000D03*
D17*
G04 #@! TO.P,D3,2*
G04 #@! TO.N,+12V*
X107442000Y-124206000D03*
G04 #@! TD*
D18*
G04 #@! TO.P,J1,1*
G04 #@! TO.N,GND*
X182245000Y-66548000D03*
D19*
G04 #@! TO.P,J1,2*
G04 #@! TO.N,+5V*
X184785000Y-66548000D03*
G04 #@! TO.P,J1,3*
G04 #@! TO.N,/20(SDA)*
X187325000Y-66548000D03*
G04 #@! TO.P,J1,4*
G04 #@! TO.N,/21(SCL)*
X189865000Y-66548000D03*
G04 #@! TD*
D20*
G04 #@! TO.P,J2,4*
G04 #@! TO.N,+12V*
X108585000Y-93640000D03*
G04 #@! TO.P,J2,3*
G04 #@! TO.N,GND*
X108585000Y-97140000D03*
G04 #@! TO.P,J2,2*
G04 #@! TO.N,/M2*
X108585000Y-100640000D03*
G04 #@! TO.P,J2,1*
G04 #@! TO.N,/M1*
X108585000Y-104140000D03*
G04 #@! TD*
D18*
G04 #@! TO.P,J6,1*
G04 #@! TO.N,/38*
X192024000Y-87122000D03*
D19*
G04 #@! TO.P,J6,2*
G04 #@! TO.N,GND*
X192024000Y-84582000D03*
G04 #@! TD*
G04 #@! TO.P,J7,2*
G04 #@! TO.N,GND*
X192024000Y-96012000D03*
D18*
G04 #@! TO.P,J7,1*
G04 #@! TO.N,/40*
X192024000Y-93472000D03*
G04 #@! TD*
G04 #@! TO.P,J8,1*
G04 #@! TO.N,/42*
X192024000Y-102362000D03*
D19*
G04 #@! TO.P,J8,2*
G04 #@! TO.N,GND*
X192024000Y-104902000D03*
G04 #@! TD*
D15*
G04 #@! TO.P,C9,1*
G04 #@! TO.N,+5V*
X179070000Y-79756000D03*
D14*
G04 #@! TO.P,C9,2*
G04 #@! TO.N,GND*
X175570000Y-79756000D03*
G04 #@! TD*
D18*
G04 #@! TO.P,J9,1*
G04 #@! TO.N,GND*
X166370000Y-123698000D03*
G04 #@! TD*
G04 #@! TO.P,J10,1*
G04 #@! TO.N,GND*
X149148619Y-66031500D03*
G04 #@! TD*
G04 #@! TO.P,J3,1*
G04 #@! TO.N,/3(\002A\002A)*
X161290000Y-79248000D03*
D19*
G04 #@! TO.P,J3,2*
G04 #@! TO.N,/2(\002A\002A)*
X163830000Y-79248000D03*
G04 #@! TD*
G04 #@! TO.P,J4,2*
G04 #@! TO.N,/12(\002A\002A)*
X130556000Y-83566000D03*
D18*
G04 #@! TO.P,J4,1*
G04 #@! TO.N,/11(\002A\002A)*
X133096000Y-83566000D03*
G04 #@! TD*
G04 #@! TO.P,J5,1*
G04 #@! TO.N,/Vin*
X150622000Y-123190000D03*
D19*
G04 #@! TO.P,J5,2*
G04 #@! TO.N,/A0*
X153162000Y-123190000D03*
G04 #@! TD*
D18*
G04 #@! TO.P,J11,1*
G04 #@! TO.N,GND*
X108712000Y-70612000D03*
G04 #@! TD*
D21*
G04 #@! TO.N,GND*
X124968000Y-126238000D03*
D22*
X117602000Y-97028000D03*
X120904000Y-97028000D03*
X124968000Y-97028000D03*
X120904000Y-100838000D03*
X149352000Y-100584000D03*
X117348000Y-100330000D03*
D21*
G04 #@! TO.N,+5V*
X141224000Y-115506500D03*
D23*
G04 #@! TO.N,/12(\002A\002A)*
X142748000Y-74168000D03*
X143256000Y-87630000D03*
G04 #@! TO.N,/11(\002A\002A)*
X143764000Y-85598000D03*
X143764000Y-73152000D03*
G04 #@! TO.N,/3(\002A\002A)*
X157226000Y-83820000D03*
G04 #@! TO.N,/2(\002A\002A)*
X158496000Y-84582000D03*
G04 #@! TO.N,+12V*
X150622000Y-91694000D03*
X117602000Y-79756000D03*
X149860000Y-80772000D03*
D22*
X140970000Y-95504000D03*
X175260000Y-107188000D03*
X175260000Y-102616000D03*
X175260000Y-98044000D03*
X175260000Y-93726000D03*
X175260000Y-89408000D03*
X175260000Y-111760000D03*
X179578000Y-111760000D03*
X179578000Y-107188000D03*
X179578000Y-102616000D03*
X179578000Y-98044000D03*
X179578000Y-93726000D03*
X179578000Y-89408000D03*
X183642000Y-89408000D03*
X183642000Y-98044000D03*
X137668000Y-93472000D03*
D23*
G04 #@! TO.N,Net-(C4-Pad1)*
X152146000Y-88900000D03*
X149606000Y-78994000D03*
D22*
G04 #@! TO.N,/M2*
X164846000Y-113792000D03*
D23*
X161544000Y-82550000D03*
X161290000Y-86614000D03*
D22*
X161036000Y-113792000D03*
D23*
G04 #@! TO.N,Net-(R7-Pad2)*
X148082000Y-85090000D03*
X148082000Y-91186000D03*
G04 #@! TO.N,Net-(R8-Pad2)*
X140462000Y-88900000D03*
X133350000Y-88138000D03*
G04 #@! TO.N,/SRC_HS1*
X132842000Y-85852000D03*
X134874000Y-89154000D03*
G04 #@! TD*
D24*
G04 #@! TO.N,GND*
X126436000Y-119634000D02*
X126436000Y-123500000D01*
X126436000Y-123500000D02*
X126436000Y-124770000D01*
X126436000Y-124770000D02*
X124968000Y-126238000D01*
G04 #@! TO.N,+5V*
X141224000Y-118872000D02*
X141478000Y-119126000D01*
X141224000Y-115506500D02*
X141224000Y-118872000D01*
D25*
G04 #@! TO.N,/12(\002A\002A)*
X142748000Y-74168000D02*
X142748000Y-87122000D01*
X142748000Y-87122000D02*
X143256000Y-87630000D01*
X130556000Y-83566000D02*
X130556000Y-78232000D01*
X134874000Y-73914000D02*
X134874000Y-70866000D01*
X130556000Y-78232000D02*
X134874000Y-73914000D01*
G04 #@! TO.N,/11(\002A\002A)*
X143764000Y-85598000D02*
X143764000Y-73152000D01*
X133096000Y-82081000D02*
X133350000Y-81827000D01*
X133096000Y-83566000D02*
X133096000Y-82081000D01*
X133350000Y-81827000D02*
X133350000Y-77978000D01*
X137414000Y-73914000D02*
X137414000Y-70866000D01*
X133350000Y-77978000D02*
X137414000Y-73914000D01*
G04 #@! TO.N,/3(\002A\002A)*
X157226000Y-83820000D02*
X157226000Y-74930000D01*
X159258000Y-72898000D02*
X159258000Y-70866000D01*
X157226000Y-74930000D02*
X159258000Y-72898000D01*
G04 #@! TO.N,/2(\002A\002A)*
X161798000Y-71882000D02*
X161798000Y-70866000D01*
X158496000Y-84582000D02*
X158496000Y-75184000D01*
X158496000Y-75184000D02*
X161798000Y-71882000D01*
D24*
G04 #@! TO.N,+12V*
X108585000Y-93640000D02*
X105664000Y-96561000D01*
X105664000Y-122428000D02*
X107442000Y-124206000D01*
X105664000Y-96561000D02*
X105664000Y-122428000D01*
X117602000Y-86868000D02*
X117475000Y-86995000D01*
X117602000Y-79756000D02*
X117602000Y-86868000D01*
D25*
X150241001Y-91313001D02*
X150241001Y-81153001D01*
X150622000Y-91694000D02*
X150241001Y-91313001D01*
X150241001Y-81153001D02*
X149860000Y-80772000D01*
G04 #@! TO.N,Net-(C4-Pad1)*
X151520501Y-88274501D02*
X151520501Y-79130501D01*
X152146000Y-88900000D02*
X151520501Y-88274501D01*
X151520501Y-79130501D02*
X151384000Y-78994000D01*
X151384000Y-78994000D02*
X149606000Y-78994000D01*
G04 #@! TO.N,/M2*
X161544000Y-82550000D02*
X161544000Y-86360000D01*
X161544000Y-86360000D02*
X161290000Y-86614000D01*
G04 #@! TO.N,Net-(R7-Pad2)*
X148462999Y-85470999D02*
X148082000Y-85090000D01*
X148462999Y-90805001D02*
X148462999Y-85470999D01*
X148082000Y-91186000D02*
X148462999Y-90805001D01*
G04 #@! TO.N,Net-(R8-Pad2)*
X140462000Y-88900000D02*
X137922000Y-86360000D01*
X137922000Y-86360000D02*
X135128000Y-86360000D01*
X135128000Y-86360000D02*
X133350000Y-88138000D01*
G04 #@! TO.N,/SRC_HS1*
X132842000Y-85852000D02*
X132080000Y-86614000D01*
X132956298Y-89154000D02*
X134874000Y-89154000D01*
X132080000Y-86614000D02*
X132080000Y-88277702D01*
X132080000Y-88277702D02*
X132956298Y-89154000D01*
G04 #@! TD*
D26*
G04 #@! TO.N,/M2*
G36*
X124644015Y-108309977D02*
X124714000Y-108331000D01*
X157429942Y-108331000D01*
X161203346Y-111852844D01*
X161245472Y-111878938D01*
X161290000Y-111887000D01*
X164539394Y-111887000D01*
X165481000Y-112828606D01*
X165481000Y-114501394D01*
X164793394Y-115189000D01*
X143827500Y-115189000D01*
X142341600Y-113207800D01*
X142304706Y-113174720D01*
X142240000Y-113157000D01*
X139954000Y-113157000D01*
X139905399Y-113166667D01*
X139852400Y-113207800D01*
X138366500Y-115189000D01*
X118688531Y-115189000D01*
X110343810Y-101786873D01*
X110309915Y-101750726D01*
X110264767Y-101730301D01*
X110236000Y-101727000D01*
X107315000Y-101727000D01*
X107315000Y-99441000D01*
X111213850Y-99441000D01*
X124644015Y-108309977D01*
X124644015Y-108309977D01*
G37*
X124644015Y-108309977D02*
X124714000Y-108331000D01*
X157429942Y-108331000D01*
X161203346Y-111852844D01*
X161245472Y-111878938D01*
X161290000Y-111887000D01*
X164539394Y-111887000D01*
X165481000Y-112828606D01*
X165481000Y-114501394D01*
X164793394Y-115189000D01*
X143827500Y-115189000D01*
X142341600Y-113207800D01*
X142304706Y-113174720D01*
X142240000Y-113157000D01*
X139954000Y-113157000D01*
X139905399Y-113166667D01*
X139852400Y-113207800D01*
X138366500Y-115189000D01*
X118688531Y-115189000D01*
X110343810Y-101786873D01*
X110309915Y-101750726D01*
X110264767Y-101730301D01*
X110236000Y-101727000D01*
X107315000Y-101727000D01*
X107315000Y-99441000D01*
X111213850Y-99441000D01*
X124644015Y-108309977D01*
G04 #@! TO.N,GND*
G36*
X140637537Y-98905862D02*
X140696193Y-98931446D01*
X145522193Y-99693446D01*
X145542000Y-99695000D01*
X163777394Y-99695000D01*
X171831000Y-107748606D01*
X171831000Y-111125000D01*
X162099718Y-111125000D01*
X158071630Y-107600423D01*
X158028688Y-107575694D01*
X157988000Y-107569000D01*
X125006167Y-107569000D01*
X110814010Y-98192039D01*
X110744000Y-98171000D01*
X107823000Y-98171000D01*
X107823000Y-96139000D01*
X137116076Y-96139000D01*
X140637537Y-98905862D01*
X140637537Y-98905862D01*
G37*
X140637537Y-98905862D02*
X140696193Y-98931446D01*
X145522193Y-99693446D01*
X145542000Y-99695000D01*
X163777394Y-99695000D01*
X171831000Y-107748606D01*
X171831000Y-111125000D01*
X162099718Y-111125000D01*
X158071630Y-107600423D01*
X158028688Y-107575694D01*
X157988000Y-107569000D01*
X125006167Y-107569000D01*
X110814010Y-98192039D01*
X110744000Y-98171000D01*
X107823000Y-98171000D01*
X107823000Y-96139000D01*
X137116076Y-96139000D01*
X140637537Y-98905862D01*
G04 #@! TO.N,+12V*
G36*
X189103000Y-116459000D02*
X173355000Y-116459000D01*
X173355000Y-106934000D01*
X173345333Y-106885399D01*
X173317803Y-106844197D01*
X164681803Y-98208197D01*
X164640601Y-98180667D01*
X164592000Y-98171000D01*
X143522577Y-98171000D01*
X141025206Y-97671526D01*
X138509336Y-95658830D01*
X138506200Y-95656400D01*
X137490200Y-94894400D01*
X137445519Y-94872973D01*
X137414000Y-94869000D01*
X107569000Y-94869000D01*
X107569000Y-92508606D01*
X111304606Y-88773000D01*
X130762282Y-88773000D01*
X132758370Y-90519577D01*
X132801312Y-90544306D01*
X132842000Y-90551000D01*
X145239265Y-90551000D01*
X147743041Y-92804398D01*
X147785633Y-92829725D01*
X147828000Y-92837000D01*
X151892000Y-92837000D01*
X151940601Y-92827333D01*
X151981803Y-92799803D01*
X151999377Y-92777817D01*
X155009998Y-88011000D01*
X165580490Y-88011000D01*
X168349447Y-89269617D01*
X168402000Y-89281000D01*
X170688000Y-89281000D01*
X170736601Y-89271333D01*
X170774861Y-89246651D01*
X174802222Y-85471000D01*
X189103000Y-85471000D01*
X189103000Y-116459000D01*
X189103000Y-116459000D01*
G37*
X189103000Y-116459000D02*
X173355000Y-116459000D01*
X173355000Y-106934000D01*
X173345333Y-106885399D01*
X173317803Y-106844197D01*
X164681803Y-98208197D01*
X164640601Y-98180667D01*
X164592000Y-98171000D01*
X143522577Y-98171000D01*
X141025206Y-97671526D01*
X138509336Y-95658830D01*
X138506200Y-95656400D01*
X137490200Y-94894400D01*
X137445519Y-94872973D01*
X137414000Y-94869000D01*
X107569000Y-94869000D01*
X107569000Y-92508606D01*
X111304606Y-88773000D01*
X130762282Y-88773000D01*
X132758370Y-90519577D01*
X132801312Y-90544306D01*
X132842000Y-90551000D01*
X145239265Y-90551000D01*
X147743041Y-92804398D01*
X147785633Y-92829725D01*
X147828000Y-92837000D01*
X151892000Y-92837000D01*
X151940601Y-92827333D01*
X151981803Y-92799803D01*
X151999377Y-92777817D01*
X155009998Y-88011000D01*
X165580490Y-88011000D01*
X168349447Y-89269617D01*
X168402000Y-89281000D01*
X170688000Y-89281000D01*
X170736601Y-89271333D01*
X170774861Y-89246651D01*
X174802222Y-85471000D01*
X189103000Y-85471000D01*
X189103000Y-116459000D01*
G04 #@! TD*
M02*
