  0
SECTION
  2
HEADER
  9
$ANGBASE
  50
0.0
  9
$ANGDIR
  70
  1
  9
$MEASUREMENT
  70
0
  0
ENDSEC
  0
SECTION
  2
TABLES
  0
TABLE
  2
LTYPE
  70
4
  0
LTYPE
  5
40F
  2
CONTINUOUS
  70
0
  3
Solid line
  72
65
  73
0
  40
0.0
  0
LTYPE
  5
410
  2
DASHDOT
 70
0
  3
Dash Dot ____ _ ____ _
 72
65
 73
4
 40
2.0
 49
1.25
 49
-0.25
 49
0.25
 49
-0.25
  0
LTYPE
  5
411
  2
DASHED
 70
0
  3
Dashed __ __ __ __ __
 72
65
 73
2
 40
0.75
 49
0.5
 49
-0.25
  0
LTYPE
  5
43B
  2
DOTTED
 70
0
  3
Dotted .  .  .  .
 72
65
 73
2
 40
0.2
 49
0.0
 49
-0.2
  0
ENDTAB
  0
TABLE
  2
STYLE
  70
4
  0
STYLE
  2
KICAD
  70
0
  40
0
  41
1
  42
1
  50
0
  71
0
  3
isocp.shx
  0
STYLE
  2
KICADB
  70
0
  40
0
  41
1
  42
1
  50
0
  71
0
  3
isocp.shx
  0
STYLE
  2
KICADI
  70
0
  40
0
  41
1
  42
1
  50
15
  71
0
  3
isocp.shx
  0
STYLE
  2
KICADBI
  70
0
  40
0
  41
1
  42
1
  50
15
  71
0
  3
isocp.shx
  0
ENDTAB
  0
TABLE
  2
LAYER
  70
30
  0
LAYER
  2
BLACK
  70
0
  62
7
  6
CONTINUOUS
  0
LAYER
  2
GRAY1
  70
0
  62
251
  6
CONTINUOUS
  0
LAYER
  2
GRAY2
  70
0
  62
8
  6
CONTINUOUS
  0
LAYER
  2
GRAY3
  70
0
  62
9
  6
CONTINUOUS
  0
LAYER
  2
WHITE
  70
0
  62
7
  6
CONTINUOUS
  0
LAYER
  2
LYELLOW
  70
0
  62
51
  6
CONTINUOUS
  0
LAYER
  2
BLUE1
  70
0
  62
178
  6
CONTINUOUS
  0
LAYER
  2
GREEN1
  70
0
  62
98
  6
CONTINUOUS
  0
LAYER
  2
CYAN1
  70
0
  62
138
  6
CONTINUOUS
  0
LAYER
  2
RED1
  70
0
  62
18
  6
CONTINUOUS
  0
LAYER
  2
MAGENTA1
  70
0
  62
228
  6
CONTINUOUS
  0
LAYER
  2
BROWN1
  70
0
  62
58
  6
CONTINUOUS
  0
LAYER
  2
BLUE2
  70
0
  62
5
  6
CONTINUOUS
  0
LAYER
  2
GREEN2
  70
0
  62
3
  6
CONTINUOUS
  0
LAYER
  2
CYAN2
  70
0
  62
4
  6
CONTINUOUS
  0
LAYER
  2
RED2
  70
0
  62
1
  6
CONTINUOUS
  0
LAYER
  2
MAGENTA2
  70
0
  62
6
  6
CONTINUOUS
  0
LAYER
  2
BROWN2
  70
0
  62
54
  6
CONTINUOUS
  0
LAYER
  2
BLUE3
  70
0
  62
171
  6
CONTINUOUS
  0
LAYER
  2
GREEN3
  70
0
  62
91
  6
CONTINUOUS
  0
LAYER
  2
CYAN3
  70
0
  62
131
  6
CONTINUOUS
  0
LAYER
  2
RED3
  70
0
  62
11
  6
CONTINUOUS
  0
LAYER
  2
MAGENTA3
  70
0
  62
221
  6
CONTINUOUS
  0
LAYER
  2
YELLOW3
  70
0
  62
2
  6
CONTINUOUS
  0
LAYER
  2
BLUE4
  70
0
  62
5
  6
CONTINUOUS
  0
LAYER
  2
GREEN4
  70
0
  62
3
  6
CONTINUOUS
  0
LAYER
  2
CYAN4
  70
0
  62
4
  6
CONTINUOUS
  0
LAYER
  2
RED4
  70
0
  62
1
  6
CONTINUOUS
  0
LAYER
  2
MAGENTA4
  70
0
  62
6
  6
CONTINUOUS
  0
LAYER
  2
YELLOW4
  70
0
  62
2
  6
CONTINUOUS
  0
ENDTAB
  0
ENDSEC
  0
SECTION
  2
ENTITIES
0
LINE
8
BLACK
6
CONTINUOUS
10
111.387
20
-120.64
11
110.641
21
-120.64
0
LINE
8
BLACK
6
CONTINUOUS
10
110.641
20
-120.64
11
110.641
21
-119.644
0
LINE
8
BLACK
6
CONTINUOUS
10
110.641
20
-119.644
11
111.387
21
-119.644
0
LINE
8
BLACK
6
CONTINUOUS
10
111.387
20
-119.644
11
111.387
21
-120.64
0
LINE
8
BLACK
6
CONTINUOUS
10
113.387
20
-120.64
11
112.641
21
-120.64
0
LINE
8
BLACK
6
CONTINUOUS
10
112.641
20
-120.64
11
112.641
21
-119.644
0
LINE
8
BLACK
6
CONTINUOUS
10
112.641
20
-119.644
11
113.387
21
-119.644
0
LINE
8
BLACK
6
CONTINUOUS
10
113.387
20
-119.644
11
113.387
21
-120.64
0
LINE
8
BLACK
6
CONTINUOUS
10
113.387
20
-118.354
11
112.641
21
-118.354
0
LINE
8
BLACK
6
CONTINUOUS
10
112.641
20
-118.354
11
112.641
21
-117.358
0
LINE
8
BLACK
6
CONTINUOUS
10
112.641
20
-117.358
11
113.387
21
-117.358
0
LINE
8
BLACK
6
CONTINUOUS
10
113.387
20
-117.358
11
113.387
21
-118.354
0
LINE
8
BLACK
6
CONTINUOUS
10
111.387
20
-118.354
11
110.641
21
-118.354
0
LINE
8
BLACK
6
CONTINUOUS
10
110.641
20
-118.354
11
110.641
21
-117.358
0
LINE
8
BLACK
6
CONTINUOUS
10
110.641
20
-117.358
11
111.387
21
-117.358
0
LINE
8
BLACK
6
CONTINUOUS
10
111.387
20
-117.358
11
111.387
21
-118.354
0
LINE
8
BLACK
6
CONTINUOUS
10
117.665
20
-115.57
11
116.776
21
-115.57
0
LINE
8
BLACK
6
CONTINUOUS
10
116.776
20
-115.57
11
116.776
21
-115.316
0
LINE
8
BLACK
6
CONTINUOUS
10
116.776
20
-115.316
11
117.665
21
-115.316
0
LINE
8
BLACK
6
CONTINUOUS
10
117.665
20
-115.316
11
117.665
21
-115.57
0
LINE
8
BLACK
6
CONTINUOUS
10
111.316
20
-115.57
11
110.426
21
-115.57
0
LINE
8
BLACK
6
CONTINUOUS
10
110.426
20
-115.57
11
110.426
21
-115.316
0
LINE
8
BLACK
6
CONTINUOUS
10
110.426
20
-115.316
11
111.316
21
-115.316
0
LINE
8
BLACK
6
CONTINUOUS
10
111.316
20
-115.316
11
111.316
21
-115.57
0
LINE
8
BLACK
6
CONTINUOUS
10
117.665
20
-114.3
11
116.776
21
-114.3
0
LINE
8
BLACK
6
CONTINUOUS
10
116.776
20
-114.3
11
116.776
21
-114.046
0
LINE
8
BLACK
6
CONTINUOUS
10
116.776
20
-114.046
11
117.665
21
-114.046
0
LINE
8
BLACK
6
CONTINUOUS
10
117.665
20
-114.046
11
117.665
21
-114.3
0
LINE
8
BLACK
6
CONTINUOUS
10
111.316
20
-114.3
11
110.426
21
-114.3
0
LINE
8
BLACK
6
CONTINUOUS
10
110.426
20
-114.3
11
110.426
21
-114.046
0
LINE
8
BLACK
6
CONTINUOUS
10
110.426
20
-114.046
11
111.316
21
-114.046
0
LINE
8
BLACK
6
CONTINUOUS
10
111.316
20
-114.046
11
111.316
21
-114.3
0
LINE
8
BLACK
6
CONTINUOUS
10
159.578
20
-113.993
11
154.582
21
-113.993
0
LINE
8
BLACK
6
CONTINUOUS
10
154.582
20
-113.993
11
154.582
21
-109.697
0
LINE
8
BLACK
6
CONTINUOUS
10
154.582
20
-109.697
11
159.578
21
-109.697
0
LINE
8
BLACK
6
CONTINUOUS
10
159.578
20
-109.697
11
159.578
21
-113.993
0
LINE
8
BLACK
6
CONTINUOUS
10
154.028
20
-113.993
11
149.032
21
-113.993
0
LINE
8
BLACK
6
CONTINUOUS
10
149.032
20
-113.993
11
149.032
21
-109.697
0
LINE
8
BLACK
6
CONTINUOUS
10
149.032
20
-109.697
11
154.028
21
-109.697
0
LINE
8
BLACK
6
CONTINUOUS
10
154.028
20
-109.697
11
154.028
21
-113.993
0
LINE
8
BLACK
6
CONTINUOUS
10
133.543
20
-113.993
11
128.547
21
-113.993
0
LINE
8
BLACK
6
CONTINUOUS
10
128.547
20
-113.993
11
128.547
21
-109.697
0
LINE
8
BLACK
6
CONTINUOUS
10
128.547
20
-109.697
11
133.543
21
-109.697
0
LINE
8
BLACK
6
CONTINUOUS
10
133.543
20
-109.697
11
133.543
21
-113.993
0
LINE
8
BLACK
6
CONTINUOUS
10
127.993
20
-113.993
11
122.997
21
-113.993
0
LINE
8
BLACK
6
CONTINUOUS
10
122.997
20
-113.993
11
122.997
21
-109.697
0
LINE
8
BLACK
6
CONTINUOUS
10
122.997
20
-109.697
11
127.993
21
-109.697
0
LINE
8
BLACK
6
CONTINUOUS
10
127.993
20
-109.697
11
127.993
21
-113.993
0
LINE
8
BLACK
6
CONTINUOUS
10
141.328
20
-113.993
11
136.332
21
-113.993
0
LINE
8
BLACK
6
CONTINUOUS
10
136.332
20
-113.993
11
136.332
21
-109.697
0
LINE
8
BLACK
6
CONTINUOUS
10
136.332
20
-109.697
11
141.328
21
-109.697
0
LINE
8
BLACK
6
CONTINUOUS
10
141.328
20
-109.697
11
141.328
21
-113.993
0
LINE
8
BLACK
6
CONTINUOUS
10
146.878
20
-113.993
11
141.882
21
-113.993
0
LINE
8
BLACK
6
CONTINUOUS
10
141.882
20
-113.993
11
141.882
21
-109.697
0
LINE
8
BLACK
6
CONTINUOUS
10
141.882
20
-109.697
11
146.878
21
-109.697
0
LINE
8
BLACK
6
CONTINUOUS
10
146.878
20
-109.697
11
146.878
21
-113.993
0
LINE
8
BLACK
6
CONTINUOUS
10
117.665
20
-113.03
11
116.776
21
-113.03
0
LINE
8
BLACK
6
CONTINUOUS
10
116.776
20
-113.03
11
116.776
21
-112.776
0
LINE
8
BLACK
6
CONTINUOUS
10
116.776
20
-112.776
11
117.665
21
-112.776
0
LINE
8
BLACK
6
CONTINUOUS
10
117.665
20
-112.776
11
117.665
21
-113.03
0
LINE
8
BLACK
6
CONTINUOUS
10
111.316
20
-113.03
11
110.426
21
-113.03
0
LINE
8
BLACK
6
CONTINUOUS
10
110.426
20
-113.03
11
110.426
21
-112.776
0
LINE
8
BLACK
6
CONTINUOUS
10
110.426
20
-112.776
11
111.316
21
-112.776
0
LINE
8
BLACK
6
CONTINUOUS
10
111.316
20
-112.776
11
111.316
21
-113.03
0
LINE
8
BLACK
6
CONTINUOUS
10
189.773
20
-112.918
11
189.327
21
-112.918
0
LINE
8
BLACK
6
CONTINUOUS
10
189.327
20
-112.918
11
189.327
21
-111.872
0
LINE
8
BLACK
6
CONTINUOUS
10
189.327
20
-111.872
11
189.773
21
-111.872
0
LINE
8
BLACK
6
CONTINUOUS
10
189.773
20
-111.872
11
189.773
21
-112.918
0
LINE
8
BLACK
6
CONTINUOUS
10
191.673
20
-112.918
11
191.227
21
-112.918
0
LINE
8
BLACK
6
CONTINUOUS
10
191.227
20
-112.918
11
191.227
21
-111.872
0
LINE
8
BLACK
6
CONTINUOUS
10
191.227
20
-111.872
11
191.673
21
-111.872
0
LINE
8
BLACK
6
CONTINUOUS
10
191.673
20
-111.872
11
191.673
21
-112.918
0
LINE
8
BLACK
6
CONTINUOUS
10
187.628
20
-112.868
11
186.682
21
-112.868
0
LINE
8
BLACK
6
CONTINUOUS
10
186.682
20
-112.868
11
186.682
21
-111.922
0
LINE
8
BLACK
6
CONTINUOUS
10
186.682
20
-111.922
11
187.628
21
-111.922
0
LINE
8
BLACK
6
CONTINUOUS
10
187.628
20
-111.922
11
187.628
21
-112.868
0
LINE
8
BLACK
6
CONTINUOUS
10
185.428
20
-112.868
11
184.482
21
-112.868
0
LINE
8
BLACK
6
CONTINUOUS
10
184.482
20
-112.868
11
184.482
21
-111.922
0
LINE
8
BLACK
6
CONTINUOUS
10
184.482
20
-111.922
11
185.428
21
-111.922
0
LINE
8
BLACK
6
CONTINUOUS
10
185.428
20
-111.922
11
185.428
21
-112.868
0
LINE
8
BLACK
6
CONTINUOUS
10
111.316
20
-111.76
11
110.426
21
-111.76
0
LINE
8
BLACK
6
CONTINUOUS
10
110.426
20
-111.76
11
110.426
21
-111.506
0
LINE
8
BLACK
6
CONTINUOUS
10
110.426
20
-111.506
11
111.316
21
-111.506
0
LINE
8
BLACK
6
CONTINUOUS
10
111.316
20
-111.506
11
111.316
21
-111.76
0
LINE
8
BLACK
6
CONTINUOUS
10
117.665
20
-111.76
11
116.776
21
-111.76
0
LINE
8
BLACK
6
CONTINUOUS
10
116.776
20
-111.76
11
116.776
21
-111.506
0
LINE
8
BLACK
6
CONTINUOUS
10
116.776
20
-111.506
11
117.665
21
-111.506
0
LINE
8
BLACK
6
CONTINUOUS
10
117.665
20
-111.506
11
117.665
21
-111.76
0
LINE
8
BLACK
6
CONTINUOUS
10
172.913
20
-110.818
11
167.917
21
-110.818
0
LINE
8
BLACK
6
CONTINUOUS
10
167.917
20
-110.818
11
167.917
21
-106.522
0
LINE
8
BLACK
6
CONTINUOUS
10
167.917
20
-106.522
11
172.913
21
-106.522
0
LINE
8
BLACK
6
CONTINUOUS
10
172.913
20
-106.522
11
172.913
21
-110.818
0
LINE
8
BLACK
6
CONTINUOUS
10
167.363
20
-110.818
11
162.367
21
-110.818
0
LINE
8
BLACK
6
CONTINUOUS
10
162.367
20
-110.818
11
162.367
21
-106.522
0
LINE
8
BLACK
6
CONTINUOUS
10
162.367
20
-106.522
11
167.363
21
-106.522
0
LINE
8
BLACK
6
CONTINUOUS
10
167.363
20
-106.522
11
167.363
21
-110.818
0
LINE
8
BLACK
6
CONTINUOUS
10
191.673
20
-109.743
11
191.227
21
-109.743
0
LINE
8
BLACK
6
CONTINUOUS
10
191.227
20
-109.743
11
191.227
21
-108.697
0
LINE
8
BLACK
6
CONTINUOUS
10
191.227
20
-108.697
11
191.673
21
-108.697
0
LINE
8
BLACK
6
CONTINUOUS
10
191.673
20
-108.697
11
191.673
21
-109.743
0
LINE
8
BLACK
6
CONTINUOUS
10
189.773
20
-109.743
11
189.327
21
-109.743
0
LINE
8
BLACK
6
CONTINUOUS
10
189.327
20
-109.743
11
189.327
21
-108.697
0
LINE
8
BLACK
6
CONTINUOUS
10
189.327
20
-108.697
11
189.773
21
-108.697
0
LINE
8
BLACK
6
CONTINUOUS
10
189.773
20
-108.697
11
189.773
21
-109.743
0
LINE
8
BLACK
6
CONTINUOUS
10
185.428
20
-109.693
11
184.482
21
-109.693
0
LINE
8
BLACK
6
CONTINUOUS
10
184.482
20
-109.693
11
184.482
21
-108.747
0
LINE
8
BLACK
6
CONTINUOUS
10
184.482
20
-108.747
11
185.428
21
-108.747
0
LINE
8
BLACK
6
CONTINUOUS
10
185.428
20
-108.747
11
185.428
21
-109.693
0
LINE
8
BLACK
6
CONTINUOUS
10
187.628
20
-109.693
11
186.682
21
-109.693
0
LINE
8
BLACK
6
CONTINUOUS
10
186.682
20
-109.693
11
186.682
21
-108.747
0
LINE
8
BLACK
6
CONTINUOUS
10
186.682
20
-108.747
11
187.628
21
-108.747
0
LINE
8
BLACK
6
CONTINUOUS
10
187.628
20
-108.747
11
187.628
21
-109.693
0
LINE
8
BLACK
6
CONTINUOUS
10
133.543
20
-109.143
11
128.547
21
-109.143
0
LINE
8
BLACK
6
CONTINUOUS
10
128.547
20
-109.143
11
128.547
21
-104.847
0
LINE
8
BLACK
6
CONTINUOUS
10
128.547
20
-104.847
11
133.543
21
-104.847
0
LINE
8
BLACK
6
CONTINUOUS
10
133.543
20
-104.847
11
133.543
21
-109.143
0
LINE
8
BLACK
6
CONTINUOUS
10
127.993
20
-109.143
11
122.997
21
-109.143
0
LINE
8
BLACK
6
CONTINUOUS
10
122.997
20
-109.143
11
122.997
21
-104.847
0
LINE
8
BLACK
6
CONTINUOUS
10
122.997
20
-104.847
11
127.993
21
-104.847
0
LINE
8
BLACK
6
CONTINUOUS
10
127.993
20
-104.847
11
127.993
21
-109.143
0
LINE
8
BLACK
6
CONTINUOUS
10
159.578
20
-109.143
11
154.582
21
-109.143
0
LINE
8
BLACK
6
CONTINUOUS
10
154.582
20
-109.143
11
154.582
21
-104.847
0
LINE
8
BLACK
6
CONTINUOUS
10
154.582
20
-104.847
11
159.578
21
-104.847
0
LINE
8
BLACK
6
CONTINUOUS
10
159.578
20
-104.847
11
159.578
21
-109.143
0
LINE
8
BLACK
6
CONTINUOUS
10
146.878
20
-109.143
11
141.882
21
-109.143
0
LINE
8
BLACK
6
CONTINUOUS
10
141.882
20
-109.143
11
141.882
21
-104.847
0
LINE
8
BLACK
6
CONTINUOUS
10
141.882
20
-104.847
11
146.878
21
-104.847
0
LINE
8
BLACK
6
CONTINUOUS
10
146.878
20
-104.847
11
146.878
21
-109.143
0
LINE
8
BLACK
6
CONTINUOUS
10
154.028
20
-109.143
11
149.032
21
-109.143
0
LINE
8
BLACK
6
CONTINUOUS
10
149.032
20
-109.143
11
149.032
21
-104.847
0
LINE
8
BLACK
6
CONTINUOUS
10
149.032
20
-104.847
11
154.028
21
-104.847
0
LINE
8
BLACK
6
CONTINUOUS
10
154.028
20
-104.847
11
154.028
21
-109.143
0
LINE
8
BLACK
6
CONTINUOUS
10
141.328
20
-109.143
11
136.332
21
-109.143
0
LINE
8
BLACK
6
CONTINUOUS
10
136.332
20
-109.143
11
136.332
21
-104.847
0
LINE
8
BLACK
6
CONTINUOUS
10
136.332
20
-104.847
11
141.328
21
-104.847
0
LINE
8
BLACK
6
CONTINUOUS
10
141.328
20
-104.847
11
141.328
21
-109.143
0
LINE
8
BLACK
6
CONTINUOUS
10
112.335
20
-108.153
11
111.589
21
-108.153
0
LINE
8
BLACK
6
CONTINUOUS
10
111.589
20
-108.153
11
111.589
21
-105.207
0
LINE
8
BLACK
6
CONTINUOUS
10
111.589
20
-105.207
11
112.335
21
-105.207
0
LINE
8
BLACK
6
CONTINUOUS
10
112.335
20
-105.207
11
112.335
21
-108.153
0
LINE
8
BLACK
6
CONTINUOUS
10
118.535
20
-108.153
11
117.789
21
-108.153
0
LINE
8
BLACK
6
CONTINUOUS
10
117.789
20
-108.153
11
117.789
21
-105.207
0
LINE
8
BLACK
6
CONTINUOUS
10
117.789
20
-105.207
11
118.535
21
-105.207
0
LINE
8
BLACK
6
CONTINUOUS
10
118.535
20
-105.207
11
118.535
21
-108.153
0
LINE
8
BLACK
6
CONTINUOUS
10
167.363
20
-105.968
11
162.367
21
-105.968
0
LINE
8
BLACK
6
CONTINUOUS
10
162.367
20
-105.968
11
162.367
21
-101.672
0
LINE
8
BLACK
6
CONTINUOUS
10
162.367
20
-101.672
11
167.363
21
-101.672
0
LINE
8
BLACK
6
CONTINUOUS
10
167.363
20
-101.672
11
167.363
21
-105.968
0
LINE
8
BLACK
6
CONTINUOUS
10
172.913
20
-105.968
11
167.917
21
-105.968
0
LINE
8
BLACK
6
CONTINUOUS
10
167.917
20
-105.968
11
167.917
21
-101.672
0
LINE
8
BLACK
6
CONTINUOUS
10
167.917
20
-101.672
11
172.913
21
-101.672
0
LINE
8
BLACK
6
CONTINUOUS
10
172.913
20
-101.672
11
172.913
21
-105.968
0
LINE
8
BLACK
6
CONTINUOUS
10
126.153
20
-102.443
11
125.307
21
-102.443
0
LINE
8
BLACK
6
CONTINUOUS
10
125.307
20
-102.443
11
125.307
21
-98.097
0
LINE
8
BLACK
6
CONTINUOUS
10
125.307
20
-98.097
11
126.153
21
-98.097
0
LINE
8
BLACK
6
CONTINUOUS
10
126.153
20
-98.097
11
126.153
21
-102.443
0
LINE
8
BLACK
6
CONTINUOUS
10
139.488
20
-102.443
11
138.642
21
-102.443
0
LINE
8
BLACK
6
CONTINUOUS
10
138.642
20
-102.443
11
138.642
21
-98.097
0
LINE
8
BLACK
6
CONTINUOUS
10
138.642
20
-98.097
11
139.488
21
-98.097
0
LINE
8
BLACK
6
CONTINUOUS
10
139.488
20
-98.097
11
139.488
21
-102.443
0
LINE
8
BLACK
6
CONTINUOUS
10
142.028
20
-102.443
11
141.182
21
-102.443
0
LINE
8
BLACK
6
CONTINUOUS
10
141.182
20
-102.443
11
141.182
21
-98.097
0
LINE
8
BLACK
6
CONTINUOUS
10
141.182
20
-98.097
11
142.028
21
-98.097
0
LINE
8
BLACK
6
CONTINUOUS
10
142.028
20
-98.097
11
142.028
21
-102.443
0
LINE
8
BLACK
6
CONTINUOUS
10
152.188
20
-102.443
11
151.342
21
-102.443
0
LINE
8
BLACK
6
CONTINUOUS
10
151.342
20
-102.443
11
151.342
21
-98.097
0
LINE
8
BLACK
6
CONTINUOUS
10
151.342
20
-98.097
11
152.188
21
-98.097
0
LINE
8
BLACK
6
CONTINUOUS
10
152.188
20
-98.097
11
152.188
21
-102.443
0
LINE
8
BLACK
6
CONTINUOUS
10
154.728
20
-102.443
11
153.882
21
-102.443
0
LINE
8
BLACK
6
CONTINUOUS
10
153.882
20
-102.443
11
153.882
21
-98.097
0
LINE
8
BLACK
6
CONTINUOUS
10
153.882
20
-98.097
11
154.728
21
-98.097
0
LINE
8
BLACK
6
CONTINUOUS
10
154.728
20
-98.097
11
154.728
21
-102.443
0
LINE
8
BLACK
6
CONTINUOUS
10
157.268
20
-102.443
11
156.422
21
-102.443
0
LINE
8
BLACK
6
CONTINUOUS
10
156.422
20
-102.443
11
156.422
21
-98.097
0
LINE
8
BLACK
6
CONTINUOUS
10
156.422
20
-98.097
11
157.268
21
-98.097
0
LINE
8
BLACK
6
CONTINUOUS
10
157.268
20
-98.097
11
157.268
21
-102.443
0
LINE
8
BLACK
6
CONTINUOUS
10
144.568
20
-102.443
11
143.722
21
-102.443
0
LINE
8
BLACK
6
CONTINUOUS
10
143.722
20
-102.443
11
143.722
21
-98.097
0
LINE
8
BLACK
6
CONTINUOUS
10
143.722
20
-98.097
11
144.568
21
-98.097
0
LINE
8
BLACK
6
CONTINUOUS
10
144.568
20
-98.097
11
144.568
21
-102.443
0
LINE
8
BLACK
6
CONTINUOUS
10
131.233
20
-102.443
11
130.387
21
-102.443
0
LINE
8
BLACK
6
CONTINUOUS
10
130.387
20
-102.443
11
130.387
21
-98.097
0
LINE
8
BLACK
6
CONTINUOUS
10
130.387
20
-98.097
11
131.233
21
-98.097
0
LINE
8
BLACK
6
CONTINUOUS
10
131.233
20
-98.097
11
131.233
21
-102.443
0
LINE
8
BLACK
6
CONTINUOUS
10
128.693
20
-102.443
11
127.847
21
-102.443
0
LINE
8
BLACK
6
CONTINUOUS
10
127.847
20
-102.443
11
127.847
21
-98.097
0
LINE
8
BLACK
6
CONTINUOUS
10
127.847
20
-98.097
11
128.693
21
-98.097
0
LINE
8
BLACK
6
CONTINUOUS
10
128.693
20
-98.097
11
128.693
21
-102.443
0
LINE
8
BLACK
6
CONTINUOUS
10
170.603
20
-99.268
11
169.757
21
-99.268
0
LINE
8
BLACK
6
CONTINUOUS
10
169.757
20
-99.268
11
169.757
21
-94.922
0
LINE
8
BLACK
6
CONTINUOUS
10
169.757
20
-94.922
11
170.603
21
-94.922
0
LINE
8
BLACK
6
CONTINUOUS
10
170.603
20
-94.922
11
170.603
21
-99.268
0
LINE
8
BLACK
6
CONTINUOUS
10
168.063
20
-99.268
11
167.217
21
-99.268
0
LINE
8
BLACK
6
CONTINUOUS
10
167.217
20
-99.268
11
167.217
21
-94.922
0
LINE
8
BLACK
6
CONTINUOUS
10
167.217
20
-94.922
11
168.063
21
-94.922
0
LINE
8
BLACK
6
CONTINUOUS
10
168.063
20
-94.922
11
168.063
21
-99.268
0
LINE
8
BLACK
6
CONTINUOUS
10
165.523
20
-99.268
11
164.677
21
-99.268
0
LINE
8
BLACK
6
CONTINUOUS
10
164.677
20
-99.268
11
164.677
21
-94.922
0
LINE
8
BLACK
6
CONTINUOUS
10
164.677
20
-94.922
11
165.523
21
-94.922
0
LINE
8
BLACK
6
CONTINUOUS
10
165.523
20
-94.922
11
165.523
21
-99.268
0
LINE
8
BLACK
6
CONTINUOUS
10
144.668
20
-97.058
11
143.622
21
-97.058
0
LINE
8
BLACK
6
CONTINUOUS
10
143.622
20
-97.058
11
143.622
21
-96.612
0
LINE
8
BLACK
6
CONTINUOUS
10
143.622
20
-96.612
11
144.668
21
-96.612
0
LINE
8
BLACK
6
CONTINUOUS
10
144.668
20
-96.612
11
144.668
21
-97.058
0
LINE
8
BLACK
6
CONTINUOUS
10
133.873
20
-97.058
11
132.827
21
-97.058
0
LINE
8
BLACK
6
CONTINUOUS
10
132.827
20
-97.058
11
132.827
21
-96.612
0
LINE
8
BLACK
6
CONTINUOUS
10
132.827
20
-96.612
11
133.873
21
-96.612
0
LINE
8
BLACK
6
CONTINUOUS
10
133.873
20
-96.612
11
133.873
21
-97.058
0
LINE
8
BLACK
6
CONTINUOUS
10
157.241
20
-97.058
11
156.195
21
-97.058
0
LINE
8
BLACK
6
CONTINUOUS
10
156.195
20
-97.058
11
156.195
21
-96.612
0
LINE
8
BLACK
6
CONTINUOUS
10
156.195
20
-96.612
11
157.241
21
-96.612
0
LINE
8
BLACK
6
CONTINUOUS
10
157.241
20
-96.612
11
157.241
21
-97.058
0
LINE
8
BLACK
6
CONTINUOUS
10
133.873
20
-95.158
11
132.827
21
-95.158
0
LINE
8
BLACK
6
CONTINUOUS
10
132.827
20
-95.158
11
132.827
21
-94.712
0
LINE
8
BLACK
6
CONTINUOUS
10
132.827
20
-94.712
11
133.873
21
-94.712
0
LINE
8
BLACK
6
CONTINUOUS
10
133.873
20
-94.712
11
133.873
21
-95.158
0
LINE
8
BLACK
6
CONTINUOUS
10
144.668
20
-95.158
11
143.622
21
-95.158
0
LINE
8
BLACK
6
CONTINUOUS
10
143.622
20
-95.158
11
143.622
21
-94.712
0
LINE
8
BLACK
6
CONTINUOUS
10
143.622
20
-94.712
11
144.668
21
-94.712
0
LINE
8
BLACK
6
CONTINUOUS
10
144.668
20
-94.712
11
144.668
21
-95.158
0
LINE
8
BLACK
6
CONTINUOUS
10
157.241
20
-95.158
11
156.195
21
-95.158
0
LINE
8
BLACK
6
CONTINUOUS
10
156.195
20
-95.158
11
156.195
21
-94.712
0
LINE
8
BLACK
6
CONTINUOUS
10
156.195
20
-94.712
11
157.241
21
-94.712
0
LINE
8
BLACK
6
CONTINUOUS
10
157.241
20
-94.712
11
157.241
21
-95.158
0
LINE
8
BLACK
6
CONTINUOUS
10
170.703
20
-93.248
11
169.657
21
-93.248
0
LINE
8
BLACK
6
CONTINUOUS
10
169.657
20
-93.248
11
169.657
21
-92.802
0
LINE
8
BLACK
6
CONTINUOUS
10
169.657
20
-92.802
11
170.703
21
-92.802
0
LINE
8
BLACK
6
CONTINUOUS
10
170.703
20
-92.802
11
170.703
21
-93.248
0
LINE
8
BLACK
6
CONTINUOUS
10
143.373
20
-92.813
11
142.377
21
-92.813
0
LINE
8
BLACK
6
CONTINUOUS
10
142.377
20
-92.813
11
142.377
21
-92.067
0
LINE
8
BLACK
6
CONTINUOUS
10
142.377
20
-92.067
11
143.373
21
-92.067
0
LINE
8
BLACK
6
CONTINUOUS
10
143.373
20
-92.067
11
143.373
21
-92.813
0
LINE
8
BLACK
6
CONTINUOUS
10
146.643
20
-91.613
11
144.947
21
-91.613
0
LINE
8
BLACK
6
CONTINUOUS
10
144.947
20
-91.613
11
144.947
21
-91.267
0
LINE
8
BLACK
6
CONTINUOUS
10
144.947
20
-91.267
11
146.643
21
-91.267
0
LINE
8
BLACK
6
CONTINUOUS
10
146.643
20
-91.267
11
146.643
21
-91.613
0
LINE
8
BLACK
6
CONTINUOUS
10
156.043
20
-91.613
11
154.347
21
-91.613
0
LINE
8
BLACK
6
CONTINUOUS
10
154.347
20
-91.613
11
154.347
21
-91.267
0
LINE
8
BLACK
6
CONTINUOUS
10
154.347
20
-91.267
11
156.043
21
-91.267
0
LINE
8
BLACK
6
CONTINUOUS
10
156.043
20
-91.267
11
156.043
21
-91.613
0
LINE
8
BLACK
6
CONTINUOUS
10
170.703
20
-91.348
11
169.657
21
-91.348
0
LINE
8
BLACK
6
CONTINUOUS
10
169.657
20
-91.348
11
169.657
21
-90.902
0
LINE
8
BLACK
6
CONTINUOUS
10
169.657
20
-90.902
11
170.703
21
-90.902
0
LINE
8
BLACK
6
CONTINUOUS
10
170.703
20
-90.902
11
170.703
21
-91.348
0
LINE
8
BLACK
6
CONTINUOUS
10
143.373
20
-90.813
11
142.377
21
-90.813
0
LINE
8
BLACK
6
CONTINUOUS
10
142.377
20
-90.813
11
142.377
21
-90.067
0
LINE
8
BLACK
6
CONTINUOUS
10
142.377
20
-90.067
11
143.373
21
-90.067
0
LINE
8
BLACK
6
CONTINUOUS
10
143.373
20
-90.067
11
143.373
21
-90.813
0
LINE
8
BLACK
6
CONTINUOUS
10
146.643
20
-90.343
11
144.947
21
-90.343
0
LINE
8
BLACK
6
CONTINUOUS
10
144.947
20
-90.343
11
144.947
21
-89.997
0
LINE
8
BLACK
6
CONTINUOUS
10
144.947
20
-89.997
11
146.643
21
-89.997
0
LINE
8
BLACK
6
CONTINUOUS
10
146.643
20
-89.997
11
146.643
21
-90.343
0
LINE
8
BLACK
6
CONTINUOUS
10
156.043
20
-90.343
11
154.347
21
-90.343
0
LINE
8
BLACK
6
CONTINUOUS
10
154.347
20
-90.343
11
154.347
21
-89.997
0
LINE
8
BLACK
6
CONTINUOUS
10
154.347
20
-89.997
11
156.043
21
-89.997
0
LINE
8
BLACK
6
CONTINUOUS
10
156.043
20
-89.997
11
156.043
21
-90.343
0
LINE
8
BLACK
6
CONTINUOUS
10
146.643
20
-89.073
11
144.947
21
-89.073
0
LINE
8
BLACK
6
CONTINUOUS
10
144.947
20
-89.073
11
144.947
21
-88.727
0
LINE
8
BLACK
6
CONTINUOUS
10
144.947
20
-88.727
11
146.643
21
-88.727
0
LINE
8
BLACK
6
CONTINUOUS
10
146.643
20
-88.727
11
146.643
21
-89.073
0
LINE
8
BLACK
6
CONTINUOUS
10
156.043
20
-89.073
11
154.347
21
-89.073
0
LINE
8
BLACK
6
CONTINUOUS
10
154.347
20
-89.073
11
154.347
21
-88.727
0
LINE
8
BLACK
6
CONTINUOUS
10
154.347
20
-88.727
11
156.043
21
-88.727
0
LINE
8
BLACK
6
CONTINUOUS
10
156.043
20
-88.727
11
156.043
21
-89.073
0
LINE
8
BLACK
6
CONTINUOUS
10
146.643
20
-87.803
11
144.947
21
-87.803
0
LINE
8
BLACK
6
CONTINUOUS
10
144.947
20
-87.803
11
144.947
21
-87.457
0
LINE
8
BLACK
6
CONTINUOUS
10
144.947
20
-87.457
11
146.643
21
-87.457
0
LINE
8
BLACK
6
CONTINUOUS
10
146.643
20
-87.457
11
146.643
21
-87.803
0
LINE
8
BLACK
6
CONTINUOUS
10
156.043
20
-87.803
11
154.347
21
-87.803
0
LINE
8
BLACK
6
CONTINUOUS
10
154.347
20
-87.803
11
154.347
21
-87.457
0
LINE
8
BLACK
6
CONTINUOUS
10
154.347
20
-87.457
11
156.043
21
-87.457
0
LINE
8
BLACK
6
CONTINUOUS
10
156.043
20
-87.457
11
156.043
21
-87.803
0
LINE
8
BLACK
6
CONTINUOUS
10
156.043
20
-86.533
11
154.347
21
-86.533
0
LINE
8
BLACK
6
CONTINUOUS
10
154.347
20
-86.533
11
154.347
21
-86.187
0
LINE
8
BLACK
6
CONTINUOUS
10
154.347
20
-86.187
11
156.043
21
-86.187
0
LINE
8
BLACK
6
CONTINUOUS
10
156.043
20
-86.187
11
156.043
21
-86.533
0
LINE
8
BLACK
6
CONTINUOUS
10
146.643
20
-86.533
11
144.947
21
-86.533
0
LINE
8
BLACK
6
CONTINUOUS
10
144.947
20
-86.533
11
144.947
21
-86.187
0
LINE
8
BLACK
6
CONTINUOUS
10
144.947
20
-86.187
11
146.643
21
-86.187
0
LINE
8
BLACK
6
CONTINUOUS
10
146.643
20
-86.187
11
146.643
21
-86.533
0
LINE
8
BLACK
6
CONTINUOUS
10
156.043
20
-85.263
11
154.347
21
-85.263
0
LINE
8
BLACK
6
CONTINUOUS
10
154.347
20
-85.263
11
154.347
21
-84.917
0
LINE
8
BLACK
6
CONTINUOUS
10
154.347
20
-84.917
11
156.043
21
-84.917
0
LINE
8
BLACK
6
CONTINUOUS
10
156.043
20
-84.917
11
156.043
21
-85.263
0
LINE
8
BLACK
6
CONTINUOUS
10
146.643
20
-85.263
11
144.947
21
-85.263
0
LINE
8
BLACK
6
CONTINUOUS
10
144.947
20
-85.263
11
144.947
21
-84.917
0
LINE
8
BLACK
6
CONTINUOUS
10
144.947
20
-84.917
11
146.643
21
-84.917
0
LINE
8
BLACK
6
CONTINUOUS
10
146.643
20
-84.917
11
146.643
21
-85.263
0
LINE
8
BLACK
6
CONTINUOUS
10
156.043
20
-83.993
11
154.347
21
-83.993
0
LINE
8
BLACK
6
CONTINUOUS
10
154.347
20
-83.993
11
154.347
21
-83.647
0
LINE
8
BLACK
6
CONTINUOUS
10
154.347
20
-83.647
11
156.043
21
-83.647
0
LINE
8
BLACK
6
CONTINUOUS
10
156.043
20
-83.647
11
156.043
21
-83.993
0
LINE
8
BLACK
6
CONTINUOUS
10
146.643
20
-83.993
11
144.947
21
-83.993
0
LINE
8
BLACK
6
CONTINUOUS
10
144.947
20
-83.993
11
144.947
21
-83.647
0
LINE
8
BLACK
6
CONTINUOUS
10
144.947
20
-83.647
11
146.643
21
-83.647
0
LINE
8
BLACK
6
CONTINUOUS
10
146.643
20
-83.647
11
146.643
21
-83.993
0
LINE
8
BLACK
6
CONTINUOUS
10
142.23
20
-82.907
11
141.234
21
-82.907
0
LINE
8
BLACK
6
CONTINUOUS
10
141.234
20
-82.907
11
141.234
21
-82.161
0
LINE
8
BLACK
6
CONTINUOUS
10
141.234
20
-82.161
11
142.23
21
-82.161
0
LINE
8
BLACK
6
CONTINUOUS
10
142.23
20
-82.161
11
142.23
21
-82.907
0
LINE
8
BLACK
6
CONTINUOUS
10
146.643
20
-82.723
11
144.947
21
-82.723
0
LINE
8
BLACK
6
CONTINUOUS
10
144.947
20
-82.723
11
144.947
21
-82.377
0
LINE
8
BLACK
6
CONTINUOUS
10
144.947
20
-82.377
11
146.643
21
-82.377
0
LINE
8
BLACK
6
CONTINUOUS
10
146.643
20
-82.377
11
146.643
21
-82.723
0
LINE
8
BLACK
6
CONTINUOUS
10
156.043
20
-82.723
11
154.347
21
-82.723
0
LINE
8
BLACK
6
CONTINUOUS
10
154.347
20
-82.723
11
154.347
21
-82.377
0
LINE
8
BLACK
6
CONTINUOUS
10
154.347
20
-82.377
11
156.043
21
-82.377
0
LINE
8
BLACK
6
CONTINUOUS
10
156.043
20
-82.377
11
156.043
21
-82.723
0
LINE
8
BLACK
6
CONTINUOUS
10
146.643
20
-81.453
11
144.947
21
-81.453
0
LINE
8
BLACK
6
CONTINUOUS
10
144.947
20
-81.453
11
144.947
21
-81.107
0
LINE
8
BLACK
6
CONTINUOUS
10
144.947
20
-81.107
11
146.643
21
-81.107
0
LINE
8
BLACK
6
CONTINUOUS
10
146.643
20
-81.107
11
146.643
21
-81.453
0
LINE
8
BLACK
6
CONTINUOUS
10
156.043
20
-81.453
11
154.347
21
-81.453
0
LINE
8
BLACK
6
CONTINUOUS
10
154.347
20
-81.453
11
154.347
21
-81.107
0
LINE
8
BLACK
6
CONTINUOUS
10
154.347
20
-81.107
11
156.043
21
-81.107
0
LINE
8
BLACK
6
CONTINUOUS
10
156.043
20
-81.107
11
156.043
21
-81.453
0
LINE
8
BLACK
6
CONTINUOUS
10
190.642
20
-80.929
11
189.596
21
-80.929
0
LINE
8
BLACK
6
CONTINUOUS
10
189.596
20
-80.929
11
189.596
21
-80.483
0
LINE
8
BLACK
6
CONTINUOUS
10
189.596
20
-80.483
11
190.642
21
-80.483
0
LINE
8
BLACK
6
CONTINUOUS
10
190.642
20
-80.483
11
190.642
21
-80.929
0
LINE
8
BLACK
6
CONTINUOUS
10
186.832
20
-80.929
11
185.786
21
-80.929
0
LINE
8
BLACK
6
CONTINUOUS
10
185.786
20
-80.929
11
185.786
21
-80.483
0
LINE
8
BLACK
6
CONTINUOUS
10
185.786
20
-80.483
11
186.832
21
-80.483
0
LINE
8
BLACK
6
CONTINUOUS
10
186.832
20
-80.483
11
186.832
21
-80.929
0
LINE
8
BLACK
6
CONTINUOUS
10
142.23
20
-80.907
11
141.234
21
-80.907
0
LINE
8
BLACK
6
CONTINUOUS
10
141.234
20
-80.907
11
141.234
21
-80.161
0
LINE
8
BLACK
6
CONTINUOUS
10
141.234
20
-80.161
11
142.23
21
-80.161
0
LINE
8
BLACK
6
CONTINUOUS
10
142.23
20
-80.161
11
142.23
21
-80.907
0
LINE
8
BLACK
6
CONTINUOUS
10
146.643
20
-80.183
11
144.947
21
-80.183
0
LINE
8
BLACK
6
CONTINUOUS
10
144.947
20
-80.183
11
144.947
21
-79.837
0
LINE
8
BLACK
6
CONTINUOUS
10
144.947
20
-79.837
11
146.643
21
-79.837
0
LINE
8
BLACK
6
CONTINUOUS
10
146.643
20
-79.837
11
146.643
21
-80.183
0
LINE
8
BLACK
6
CONTINUOUS
10
156.043
20
-80.183
11
154.347
21
-80.183
0
LINE
8
BLACK
6
CONTINUOUS
10
154.347
20
-80.183
11
154.347
21
-79.837
0
LINE
8
BLACK
6
CONTINUOUS
10
154.347
20
-79.837
11
156.043
21
-79.837
0
LINE
8
BLACK
6
CONTINUOUS
10
156.043
20
-79.837
11
156.043
21
-80.183
0
LINE
8
BLACK
6
CONTINUOUS
10
190.642
20
-79.029
11
189.596
21
-79.029
0
LINE
8
BLACK
6
CONTINUOUS
10
189.596
20
-79.029
11
189.596
21
-78.583
0
LINE
8
BLACK
6
CONTINUOUS
10
189.596
20
-78.583
11
190.642
21
-78.583
0
LINE
8
BLACK
6
CONTINUOUS
10
190.642
20
-78.583
11
190.642
21
-79.029
0
LINE
8
BLACK
6
CONTINUOUS
10
186.832
20
-79.029
11
185.786
21
-79.029
0
LINE
8
BLACK
6
CONTINUOUS
10
185.786
20
-79.029
11
185.786
21
-78.583
0
LINE
8
BLACK
6
CONTINUOUS
10
185.786
20
-78.583
11
186.832
21
-78.583
0
LINE
8
BLACK
6
CONTINUOUS
10
186.832
20
-78.583
11
186.832
21
-79.029
0
LINE
8
BLACK
6
CONTINUOUS
10
150.598
20
-77.968
11
149.852
21
-77.968
0
LINE
8
BLACK
6
CONTINUOUS
10
149.852
20
-77.968
11
149.852
21
-76.972
0
LINE
8
BLACK
6
CONTINUOUS
10
149.852
20
-76.972
11
150.598
21
-76.972
0
LINE
8
BLACK
6
CONTINUOUS
10
150.598
20
-76.972
11
150.598
21
-77.968
0
LINE
8
BLACK
6
CONTINUOUS
10
145.518
20
-77.968
11
144.772
21
-77.968
0
LINE
8
BLACK
6
CONTINUOUS
10
144.772
20
-77.968
11
144.772
21
-76.972
0
LINE
8
BLACK
6
CONTINUOUS
10
144.772
20
-76.972
11
145.518
21
-76.972
0
LINE
8
BLACK
6
CONTINUOUS
10
145.518
20
-76.972
11
145.518
21
-77.968
0
LINE
8
BLACK
6
CONTINUOUS
10
143.518
20
-77.968
11
142.772
21
-77.968
0
LINE
8
BLACK
6
CONTINUOUS
10
142.772
20
-77.968
11
142.772
21
-76.972
0
LINE
8
BLACK
6
CONTINUOUS
10
142.772
20
-76.972
11
143.518
21
-76.972
0
LINE
8
BLACK
6
CONTINUOUS
10
143.518
20
-76.972
11
143.518
21
-77.968
0
LINE
8
BLACK
6
CONTINUOUS
10
148.598
20
-77.968
11
147.852
21
-77.968
0
LINE
8
BLACK
6
CONTINUOUS
10
147.852
20
-77.968
11
147.852
21
-76.972
0
LINE
8
BLACK
6
CONTINUOUS
10
147.852
20
-76.972
11
148.598
21
-76.972
0
LINE
8
BLACK
6
CONTINUOUS
10
148.598
20
-76.972
11
148.598
21
-77.968
0
LINE
8
BLACK
6
CONTINUOUS
10
190.642
20
-77.119
11
189.596
21
-77.119
0
LINE
8
BLACK
6
CONTINUOUS
10
189.596
20
-77.119
11
189.596
21
-76.673
0
LINE
8
BLACK
6
CONTINUOUS
10
189.596
20
-76.673
11
190.642
21
-76.673
0
LINE
8
BLACK
6
CONTINUOUS
10
190.642
20
-76.673
11
190.642
21
-77.119
0
LINE
8
BLACK
6
CONTINUOUS
10
186.832
20
-77.119
11
185.786
21
-77.119
0
LINE
8
BLACK
6
CONTINUOUS
10
185.786
20
-77.119
11
185.786
21
-76.673
0
LINE
8
BLACK
6
CONTINUOUS
10
185.786
20
-76.673
11
186.832
21
-76.673
0
LINE
8
BLACK
6
CONTINUOUS
10
186.832
20
-76.673
11
186.832
21
-77.119
0
LINE
8
BLACK
6
CONTINUOUS
10
190.642
20
-75.219
11
189.596
21
-75.219
0
LINE
8
BLACK
6
CONTINUOUS
10
189.596
20
-75.219
11
189.596
21
-74.773
0
LINE
8
BLACK
6
CONTINUOUS
10
189.596
20
-74.773
11
190.642
21
-74.773
0
LINE
8
BLACK
6
CONTINUOUS
10
190.642
20
-74.773
11
190.642
21
-75.219
0
LINE
8
BLACK
6
CONTINUOUS
10
186.832
20
-75.219
11
185.786
21
-75.219
0
LINE
8
BLACK
6
CONTINUOUS
10
185.786
20
-75.219
11
185.786
21
-74.773
0
LINE
8
BLACK
6
CONTINUOUS
10
185.786
20
-74.773
11
186.832
21
-74.773
0
LINE
8
BLACK
6
CONTINUOUS
10
186.832
20
-74.773
11
186.832
21
-75.219
0
LINE
8
BLACK
6
CONTINUOUS
10
137.937
20
-68.737
11
136.891
21
-68.737
0
LINE
8
BLACK
6
CONTINUOUS
10
136.891
20
-68.737
11
136.891
21
-68.291
0
LINE
8
BLACK
6
CONTINUOUS
10
136.891
20
-68.291
11
137.937
21
-68.291
0
LINE
8
BLACK
6
CONTINUOUS
10
137.937
20
-68.291
11
137.937
21
-68.737
0
LINE
8
BLACK
6
CONTINUOUS
10
159.781
20
-68.737
11
158.735
21
-68.737
0
LINE
8
BLACK
6
CONTINUOUS
10
158.735
20
-68.737
11
158.735
21
-68.291
0
LINE
8
BLACK
6
CONTINUOUS
10
158.735
20
-68.291
11
159.781
21
-68.291
0
LINE
8
BLACK
6
CONTINUOUS
10
159.781
20
-68.291
11
159.781
21
-68.737
0
LINE
8
BLACK
6
CONTINUOUS
10
156.479
20
-68.737
11
155.433
21
-68.737
0
LINE
8
BLACK
6
CONTINUOUS
10
155.433
20
-68.737
11
155.433
21
-68.291
0
LINE
8
BLACK
6
CONTINUOUS
10
155.433
20
-68.291
11
156.479
21
-68.291
0
LINE
8
BLACK
6
CONTINUOUS
10
156.479
20
-68.291
11
156.479
21
-68.737
0
LINE
8
BLACK
6
CONTINUOUS
10
137.937
20
-66.837
11
136.891
21
-66.837
0
LINE
8
BLACK
6
CONTINUOUS
10
136.891
20
-66.837
11
136.891
21
-66.391
0
LINE
8
BLACK
6
CONTINUOUS
10
136.891
20
-66.391
11
137.937
21
-66.391
0
LINE
8
BLACK
6
CONTINUOUS
10
137.937
20
-66.391
11
137.937
21
-66.837
0
LINE
8
BLACK
6
CONTINUOUS
10
159.781
20
-66.837
11
158.735
21
-66.837
0
LINE
8
BLACK
6
CONTINUOUS
10
158.735
20
-66.837
11
158.735
21
-66.391
0
LINE
8
BLACK
6
CONTINUOUS
10
158.735
20
-66.391
11
159.781
21
-66.391
0
LINE
8
BLACK
6
CONTINUOUS
10
159.781
20
-66.391
11
159.781
21
-66.837
0
LINE
8
BLACK
6
CONTINUOUS
10
156.479
20
-66.837
11
155.433
21
-66.837
0
LINE
8
BLACK
6
CONTINUOUS
10
155.433
20
-66.837
11
155.433
21
-66.391
0
LINE
8
BLACK
6
CONTINUOUS
10
155.433
20
-66.391
11
156.479
21
-66.391
0
LINE
8
BLACK
6
CONTINUOUS
10
156.479
20
-66.391
11
156.479
21
-66.837
  0
ENDSEC
  0
EOF
