M48
;DRILL file {KiCad (5.0.0-rc2-37-ga8db21319)} date Fri Jun 29 03:28:28 2018
;FORMAT={-:-/ absolute / inch / decimal}
FMAT,2
INCH,TZ
T1C0.0200
T2C0.0315
T3C0.0394
T4C0.0400
T5C0.0433
T6C0.0472
T7C0.0500
T8C0.0800
T9C0.1200
%
G90
G05
M72
T1
X4.63Y-3.14
X5.23Y-3.38
X5.25Y-3.47
X5.31Y-3.51
X5.53Y-3.5
X5.62Y-2.92
X5.64Y-3.45
X5.66Y-2.88
X5.66Y-3.37
X5.83Y-3.35
X5.83Y-3.59
X5.89Y-3.11
X5.9Y-3.18
X5.93Y-3.61
X5.99Y-3.5
X6.19Y-3.3
X6.24Y-3.33
X6.35Y-3.41
X6.36Y-3.25
T2
X4.625Y-3.425
X4.7628Y-3.425
X4.84Y-4.71
X4.9778Y-4.71
X6.9122Y-3.14
X7.05Y-3.14
T3
X5.93Y-4.85
X6.03Y-4.85
X7.56Y-3.33
X7.56Y-3.43
X5.872Y-2.5997
X5.14Y-3.29
X5.24Y-3.29
X7.175Y-2.62
X7.275Y-2.62
X7.375Y-2.62
X7.475Y-2.62
X6.35Y-3.12
X6.45Y-3.12
X4.28Y-2.78
X7.56Y-4.03
X7.56Y-4.13
X6.55Y-4.87
X7.56Y-3.68
X7.56Y-3.78
T4
X5.87Y-2.79
X5.97Y-2.79
X6.07Y-2.79
X6.17Y-2.79
X6.27Y-2.79
X6.37Y-2.79
X6.47Y-2.79
X6.57Y-2.79
X6.97Y-4.69
X7.07Y-4.69
X7.17Y-4.69
X7.27Y-4.69
X7.37Y-4.69
X7.47Y-4.69
X7.57Y-4.69
X7.67Y-4.69
X4.81Y-2.79
X4.91Y-2.79
X5.01Y-2.79
X5.11Y-2.79
X5.21Y-2.79
X5.31Y-2.79
X5.41Y-2.79
X5.51Y-2.79
X5.61Y-2.79
X5.71Y-2.79
X5.17Y-4.69
X5.27Y-4.69
X5.37Y-4.69
X5.47Y-4.69
X5.57Y-4.69
X5.67Y-4.69
X5.77Y-4.69
X5.87Y-4.69
X7.77Y-2.79
X7.77Y-2.89
X7.77Y-2.99
X7.77Y-3.09
X7.77Y-3.19
X7.77Y-3.29
X7.77Y-3.39
X7.77Y-3.49
X7.77Y-3.59
X7.77Y-3.69
X7.77Y-3.79
X7.77Y-3.89
X7.77Y-3.99
X7.77Y-4.09
X7.77Y-4.19
X7.77Y-4.29
X7.77Y-4.39
X7.77Y-4.49
X7.87Y-2.79
X7.87Y-2.89
X7.87Y-2.99
X7.87Y-3.09
X7.87Y-3.19
X7.87Y-3.29
X7.87Y-3.39
X7.87Y-3.49
X7.87Y-3.59
X7.87Y-3.69
X7.87Y-3.79
X7.87Y-3.89
X7.87Y-3.99
X7.87Y-4.09
X7.87Y-4.19
X7.87Y-4.29
X7.87Y-4.39
X7.87Y-4.49
X6.77Y-2.79
X6.87Y-2.79
X6.97Y-2.79
X7.07Y-2.79
X7.17Y-2.79
X7.27Y-2.79
X7.37Y-2.79
X7.47Y-2.79
X6.07Y-4.69
X6.17Y-4.69
X6.27Y-4.69
X6.37Y-4.69
X6.47Y-4.69
X6.57Y-4.69
X6.67Y-4.69
X6.77Y-4.69
T5
X4.275Y-3.6866
X4.275Y-3.8244
X4.275Y-3.9622
X4.275Y-4.1
T6
X4.23Y-4.89
X4.63Y-4.89
T7
X4.92Y-4.97
X5.56Y-4.5475
T8
X4.62Y-3.95
X4.63Y-3.82
X4.76Y-3.82
X4.76Y-3.97
X4.92Y-3.82
X5.42Y-3.68
X5.55Y-3.76
X5.88Y-3.96
X6.34Y-4.48
X6.49Y-4.48
X6.9Y-3.52
X6.9Y-3.69
X6.9Y-3.86
X6.9Y-4.04
X6.9Y-4.22
X6.9Y-4.4
X7.07Y-3.52
X7.07Y-3.69
X7.07Y-3.86
X7.07Y-4.04
X7.07Y-4.22
X7.07Y-4.4
X7.23Y-3.52
X7.23Y-3.86
T9
X4.67Y-2.79
X6.67Y-4.49
X7.87Y-4.69
X7.62Y-2.79
X4.62Y-4.69
X6.67Y-3.39
T0
M30
