G04 #@! TF.GenerationSoftware,KiCad,Pcbnew,(5.0.0-rc2-37-ga8db21319)*
G04 #@! TF.CreationDate,2018-05-29T02:54:05+01:00*
G04 #@! TF.ProjectId,tug,7475672E6B696361645F706362000000,rev?*
G04 #@! TF.SameCoordinates,Original*
G04 #@! TF.FileFunction,Soldermask,Bot*
G04 #@! TF.FilePolarity,Negative*
%FSLAX46Y46*%
G04 Gerber Fmt 4.6, Leading zero omitted, Abs format (unit mm)*
G04 Created by KiCad (PCBNEW (5.0.0-rc2-37-ga8db21319)) date Tue May 29 02:54:05 2018*
%MOMM*%
%LPD*%
G01*
G04 APERTURE LIST*
%ADD10C,1.727200*%
%ADD11O,1.727200X1.727200*%
%ADD12O,1.727200X2.032000*%
%ADD13C,4.064000*%
%ADD14C,1.600000*%
%ADD15R,1.600000X1.600000*%
%ADD16R,2.400000X2.400000*%
%ADD17O,2.400000X2.400000*%
%ADD18R,1.700000X1.700000*%
%ADD19O,1.700000X1.700000*%
%ADD20C,2.500000*%
G04 APERTURE END LIST*
D10*
G04 #@! TO.C,P1*
X197358000Y-114046000D03*
D11*
X199898000Y-114046000D03*
X197358000Y-111506000D03*
X199898000Y-111506000D03*
X197358000Y-108966000D03*
X199898000Y-108966000D03*
X197358000Y-106426000D03*
X199898000Y-106426000D03*
X197358000Y-103886000D03*
X199898000Y-103886000D03*
X197358000Y-101346000D03*
X199898000Y-101346000D03*
X197358000Y-98806000D03*
X199898000Y-98806000D03*
X197358000Y-96266000D03*
X199898000Y-96266000D03*
X197358000Y-93726000D03*
X199898000Y-93726000D03*
X197358000Y-91186000D03*
X199898000Y-91186000D03*
X197358000Y-88646000D03*
X199898000Y-88646000D03*
X197358000Y-86106000D03*
X199898000Y-86106000D03*
X197358000Y-83566000D03*
X199898000Y-83566000D03*
X197358000Y-81026000D03*
X199898000Y-81026000D03*
X197358000Y-78486000D03*
X199898000Y-78486000D03*
X197358000Y-75946000D03*
X199898000Y-75946000D03*
X197358000Y-73406000D03*
X199898000Y-73406000D03*
X197358000Y-70866000D03*
X199898000Y-70866000D03*
G04 #@! TD*
D12*
G04 #@! TO.C,P2*
X131318000Y-119126000D03*
X133858000Y-119126000D03*
X136398000Y-119126000D03*
X138938000Y-119126000D03*
X141478000Y-119126000D03*
X144018000Y-119126000D03*
X146558000Y-119126000D03*
X149098000Y-119126000D03*
G04 #@! TD*
G04 #@! TO.C,P3*
X154178000Y-119126000D03*
X156718000Y-119126000D03*
X159258000Y-119126000D03*
X161798000Y-119126000D03*
X164338000Y-119126000D03*
X166878000Y-119126000D03*
X169418000Y-119126000D03*
X171958000Y-119126000D03*
G04 #@! TD*
G04 #@! TO.C,P4*
X177038000Y-119126000D03*
X179578000Y-119126000D03*
X182118000Y-119126000D03*
X184658000Y-119126000D03*
X187198000Y-119126000D03*
X189738000Y-119126000D03*
X192278000Y-119126000D03*
X194818000Y-119126000D03*
G04 #@! TD*
G04 #@! TO.C,P5*
X122174000Y-70866000D03*
X124714000Y-70866000D03*
X127254000Y-70866000D03*
X129794000Y-70866000D03*
X132334000Y-70866000D03*
X134874000Y-70866000D03*
X137414000Y-70866000D03*
X139954000Y-70866000D03*
X142494000Y-70866000D03*
X145034000Y-70866000D03*
G04 #@! TD*
G04 #@! TO.C,P6*
X149098000Y-70866000D03*
X151638000Y-70866000D03*
X154178000Y-70866000D03*
X156718000Y-70866000D03*
X159258000Y-70866000D03*
X161798000Y-70866000D03*
X164338000Y-70866000D03*
X166878000Y-70866000D03*
G04 #@! TD*
G04 #@! TO.C,P7*
X171958000Y-70866000D03*
X174498000Y-70866000D03*
X177038000Y-70866000D03*
X179578000Y-70866000D03*
X182118000Y-70866000D03*
X184658000Y-70866000D03*
X187198000Y-70866000D03*
X189738000Y-70866000D03*
G04 #@! TD*
D13*
G04 #@! TO.C,P8*
X117348000Y-119126000D03*
G04 #@! TD*
G04 #@! TO.C,P9*
X169418000Y-114046000D03*
G04 #@! TD*
G04 #@! TO.C,P10*
X199898000Y-119126000D03*
G04 #@! TD*
G04 #@! TO.C,P11*
X118618000Y-70866000D03*
G04 #@! TD*
G04 #@! TO.C,P12*
X169418000Y-86106000D03*
G04 #@! TD*
G04 #@! TO.C,P13*
X193548000Y-70866000D03*
G04 #@! TD*
D14*
G04 #@! TO.C,C5*
X120975000Y-86995000D03*
D15*
X117475000Y-86995000D03*
G04 #@! TD*
G04 #@! TO.C,C6*
X122936000Y-119634000D03*
D14*
X126436000Y-119634000D03*
G04 #@! TD*
D16*
G04 #@! TO.C,D3*
X117602000Y-124206000D03*
D17*
X107442000Y-124206000D03*
G04 #@! TD*
D18*
G04 #@! TO.C,J1*
X182245000Y-66548000D03*
D19*
X184785000Y-66548000D03*
X187325000Y-66548000D03*
X189865000Y-66548000D03*
G04 #@! TD*
D20*
G04 #@! TO.C,J2*
X108585000Y-93640000D03*
X108585000Y-97140000D03*
X108585000Y-100640000D03*
X108585000Y-104140000D03*
G04 #@! TD*
D19*
G04 #@! TO.C,J3*
X166370000Y-79248000D03*
X163830000Y-79248000D03*
D18*
X161290000Y-79248000D03*
G04 #@! TD*
G04 #@! TO.C,J4*
X133096000Y-83566000D03*
D19*
X130556000Y-83566000D03*
X128016000Y-83566000D03*
G04 #@! TD*
D18*
G04 #@! TO.C,J5*
X150622000Y-123190000D03*
D19*
X153162000Y-123190000D03*
X155702000Y-123190000D03*
G04 #@! TD*
D18*
G04 #@! TO.C,J6*
X192024000Y-87122000D03*
D19*
X192024000Y-84582000D03*
G04 #@! TD*
G04 #@! TO.C,J7*
X192024000Y-96012000D03*
D18*
X192024000Y-93472000D03*
G04 #@! TD*
G04 #@! TO.C,J8*
X192024000Y-102362000D03*
D19*
X192024000Y-104902000D03*
G04 #@! TD*
D15*
G04 #@! TO.C,C9*
X179070000Y-79756000D03*
D14*
X175570000Y-79756000D03*
G04 #@! TD*
M02*
