G04 #@! TF.GenerationSoftware,KiCad,Pcbnew,(5.0.0-rc2-37-ga8db21319)*
G04 #@! TF.CreationDate,2018-05-29T02:54:05+01:00*
G04 #@! TF.ProjectId,tug,7475672E6B696361645F706362000000,rev?*
G04 #@! TF.SameCoordinates,Original*
G04 #@! TF.FileFunction,Legend,Top*
G04 #@! TF.FilePolarity,Positive*
%FSLAX46Y46*%
G04 Gerber Fmt 4.6, Leading zero omitted, Abs format (unit mm)*
G04 Created by KiCad (PCBNEW (5.0.0-rc2-37-ga8db21319)) date Tue May 29 02:54:05 2018*
%MOMM*%
%LPD*%
G01*
G04 APERTURE LIST*
%ADD10C,0.127000*%
%ADD11C,0.300000*%
%ADD12C,0.150000*%
%ADD13C,0.120000*%
G04 APERTURE END LIST*
D10*
X190403238Y-64963523D02*
X190451619Y-64818380D01*
X190451619Y-64576476D01*
X190403238Y-64479714D01*
X190354857Y-64431333D01*
X190258095Y-64382952D01*
X190161333Y-64382952D01*
X190064571Y-64431333D01*
X190016190Y-64479714D01*
X189967809Y-64576476D01*
X189919428Y-64770000D01*
X189871047Y-64866761D01*
X189822666Y-64915142D01*
X189725904Y-64963523D01*
X189629142Y-64963523D01*
X189532380Y-64915142D01*
X189484000Y-64866761D01*
X189435619Y-64770000D01*
X189435619Y-64528095D01*
X189484000Y-64382952D01*
X190354857Y-63366952D02*
X190403238Y-63415333D01*
X190451619Y-63560476D01*
X190451619Y-63657238D01*
X190403238Y-63802380D01*
X190306476Y-63899142D01*
X190209714Y-63947523D01*
X190016190Y-63995904D01*
X189871047Y-63995904D01*
X189677523Y-63947523D01*
X189580761Y-63899142D01*
X189484000Y-63802380D01*
X189435619Y-63657238D01*
X189435619Y-63560476D01*
X189484000Y-63415333D01*
X189532380Y-63366952D01*
X190451619Y-62447714D02*
X190451619Y-62931523D01*
X189435619Y-62931523D01*
X187863238Y-64987714D02*
X187911619Y-64842571D01*
X187911619Y-64600666D01*
X187863238Y-64503904D01*
X187814857Y-64455523D01*
X187718095Y-64407142D01*
X187621333Y-64407142D01*
X187524571Y-64455523D01*
X187476190Y-64503904D01*
X187427809Y-64600666D01*
X187379428Y-64794190D01*
X187331047Y-64890952D01*
X187282666Y-64939333D01*
X187185904Y-64987714D01*
X187089142Y-64987714D01*
X186992380Y-64939333D01*
X186944000Y-64890952D01*
X186895619Y-64794190D01*
X186895619Y-64552285D01*
X186944000Y-64407142D01*
X187911619Y-63971714D02*
X186895619Y-63971714D01*
X186895619Y-63729809D01*
X186944000Y-63584666D01*
X187040761Y-63487904D01*
X187137523Y-63439523D01*
X187331047Y-63391142D01*
X187476190Y-63391142D01*
X187669714Y-63439523D01*
X187766476Y-63487904D01*
X187863238Y-63584666D01*
X187911619Y-63729809D01*
X187911619Y-63971714D01*
X187621333Y-63004095D02*
X187621333Y-62520285D01*
X187911619Y-63100857D02*
X186895619Y-62762190D01*
X187911619Y-62423523D01*
X184355619Y-64455523D02*
X184355619Y-64939333D01*
X184839428Y-64987714D01*
X184791047Y-64939333D01*
X184742666Y-64842571D01*
X184742666Y-64600666D01*
X184791047Y-64503904D01*
X184839428Y-64455523D01*
X184936190Y-64407142D01*
X185178095Y-64407142D01*
X185274857Y-64455523D01*
X185323238Y-64503904D01*
X185371619Y-64600666D01*
X185371619Y-64842571D01*
X185323238Y-64939333D01*
X185274857Y-64987714D01*
X184355619Y-64116857D02*
X185371619Y-63778190D01*
X184355619Y-63439523D01*
X181864000Y-64528095D02*
X181815619Y-64624857D01*
X181815619Y-64770000D01*
X181864000Y-64915142D01*
X181960761Y-65011904D01*
X182057523Y-65060285D01*
X182251047Y-65108666D01*
X182396190Y-65108666D01*
X182589714Y-65060285D01*
X182686476Y-65011904D01*
X182783238Y-64915142D01*
X182831619Y-64770000D01*
X182831619Y-64673238D01*
X182783238Y-64528095D01*
X182734857Y-64479714D01*
X182396190Y-64479714D01*
X182396190Y-64673238D01*
X182831619Y-64044285D02*
X181815619Y-64044285D01*
X182831619Y-63463714D01*
X181815619Y-63463714D01*
X182831619Y-62979904D02*
X181815619Y-62979904D01*
X181815619Y-62738000D01*
X181864000Y-62592857D01*
X181960761Y-62496095D01*
X182057523Y-62447714D01*
X182251047Y-62399333D01*
X182396190Y-62399333D01*
X182589714Y-62447714D01*
X182686476Y-62496095D01*
X182783238Y-62592857D01*
X182831619Y-62738000D01*
X182831619Y-62979904D01*
D11*
X187111142Y-124654571D02*
X187968285Y-124654571D01*
X187539714Y-126154571D02*
X187539714Y-124654571D01*
X189111142Y-125154571D02*
X189111142Y-126154571D01*
X188468285Y-125154571D02*
X188468285Y-125940285D01*
X188539714Y-126083142D01*
X188682571Y-126154571D01*
X188896857Y-126154571D01*
X189039714Y-126083142D01*
X189111142Y-126011714D01*
X190468285Y-125154571D02*
X190468285Y-126368857D01*
X190396857Y-126511714D01*
X190325428Y-126583142D01*
X190182571Y-126654571D01*
X189968285Y-126654571D01*
X189825428Y-126583142D01*
X190468285Y-126083142D02*
X190325428Y-126154571D01*
X190039714Y-126154571D01*
X189896857Y-126083142D01*
X189825428Y-126011714D01*
X189754000Y-125868857D01*
X189754000Y-125440285D01*
X189825428Y-125297428D01*
X189896857Y-125226000D01*
X190039714Y-125154571D01*
X190325428Y-125154571D01*
X190468285Y-125226000D01*
X192182571Y-125154571D02*
X192539714Y-126154571D01*
X192896857Y-125154571D01*
X194254000Y-126154571D02*
X193396857Y-126154571D01*
X193825428Y-126154571D02*
X193825428Y-124654571D01*
X193682571Y-124868857D01*
X193539714Y-125011714D01*
X193396857Y-125083142D01*
X181106285Y-104493142D02*
X181320571Y-104564571D01*
X181677714Y-104564571D01*
X181820571Y-104493142D01*
X181892000Y-104421714D01*
X181963428Y-104278857D01*
X181963428Y-104136000D01*
X181892000Y-103993142D01*
X181820571Y-103921714D01*
X181677714Y-103850285D01*
X181392000Y-103778857D01*
X181249142Y-103707428D01*
X181177714Y-103636000D01*
X181106285Y-103493142D01*
X181106285Y-103350285D01*
X181177714Y-103207428D01*
X181249142Y-103136000D01*
X181392000Y-103064571D01*
X181749142Y-103064571D01*
X181963428Y-103136000D01*
X182392000Y-103064571D02*
X183249142Y-103064571D01*
X182820571Y-104564571D02*
X182820571Y-103064571D01*
X184034857Y-103064571D02*
X184320571Y-103064571D01*
X184463428Y-103136000D01*
X184606285Y-103278857D01*
X184677714Y-103564571D01*
X184677714Y-104064571D01*
X184606285Y-104350285D01*
X184463428Y-104493142D01*
X184320571Y-104564571D01*
X184034857Y-104564571D01*
X183892000Y-104493142D01*
X183749142Y-104350285D01*
X183677714Y-104064571D01*
X183677714Y-103564571D01*
X183749142Y-103278857D01*
X183892000Y-103136000D01*
X184034857Y-103064571D01*
X185320571Y-104564571D02*
X185320571Y-103064571D01*
X185892000Y-103064571D01*
X186034857Y-103136000D01*
X186106285Y-103207428D01*
X186177714Y-103350285D01*
X186177714Y-103564571D01*
X186106285Y-103707428D01*
X186034857Y-103778857D01*
X185892000Y-103850285D01*
X185320571Y-103850285D01*
X180995142Y-93920571D02*
X181852285Y-93920571D01*
X181423714Y-95420571D02*
X181423714Y-93920571D01*
X182352285Y-94634857D02*
X182852285Y-94634857D01*
X183066571Y-95420571D02*
X182352285Y-95420571D01*
X182352285Y-93920571D01*
X183066571Y-93920571D01*
X183638000Y-95349142D02*
X183852285Y-95420571D01*
X184209428Y-95420571D01*
X184352285Y-95349142D01*
X184423714Y-95277714D01*
X184495142Y-95134857D01*
X184495142Y-94992000D01*
X184423714Y-94849142D01*
X184352285Y-94777714D01*
X184209428Y-94706285D01*
X183923714Y-94634857D01*
X183780857Y-94563428D01*
X183709428Y-94492000D01*
X183638000Y-94349142D01*
X183638000Y-94206285D01*
X183709428Y-94063428D01*
X183780857Y-93992000D01*
X183923714Y-93920571D01*
X184280857Y-93920571D01*
X184495142Y-93992000D01*
X184923714Y-93920571D02*
X185780857Y-93920571D01*
X185352285Y-95420571D02*
X185352285Y-93920571D01*
X181971428Y-86530571D02*
X181471428Y-85816285D01*
X181114285Y-86530571D02*
X181114285Y-85030571D01*
X181685714Y-85030571D01*
X181828571Y-85102000D01*
X181900000Y-85173428D01*
X181971428Y-85316285D01*
X181971428Y-85530571D01*
X181900000Y-85673428D01*
X181828571Y-85744857D01*
X181685714Y-85816285D01*
X181114285Y-85816285D01*
X182614285Y-85744857D02*
X183114285Y-85744857D01*
X183328571Y-86530571D02*
X182614285Y-86530571D01*
X182614285Y-85030571D01*
X183328571Y-85030571D01*
X183900000Y-86459142D02*
X184114285Y-86530571D01*
X184471428Y-86530571D01*
X184614285Y-86459142D01*
X184685714Y-86387714D01*
X184757142Y-86244857D01*
X184757142Y-86102000D01*
X184685714Y-85959142D01*
X184614285Y-85887714D01*
X184471428Y-85816285D01*
X184185714Y-85744857D01*
X184042857Y-85673428D01*
X183971428Y-85602000D01*
X183900000Y-85459142D01*
X183900000Y-85316285D01*
X183971428Y-85173428D01*
X184042857Y-85102000D01*
X184185714Y-85030571D01*
X184542857Y-85030571D01*
X184757142Y-85102000D01*
X185400000Y-85744857D02*
X185900000Y-85744857D01*
X186114285Y-86530571D02*
X185400000Y-86530571D01*
X185400000Y-85030571D01*
X186114285Y-85030571D01*
X186542857Y-85030571D02*
X187400000Y-85030571D01*
X186971428Y-86530571D02*
X186971428Y-85030571D01*
X157746000Y-125602857D02*
X157674571Y-125745714D01*
X157674571Y-125960000D01*
X157746000Y-126174285D01*
X157888857Y-126317142D01*
X158031714Y-126388571D01*
X158317428Y-126460000D01*
X158531714Y-126460000D01*
X158817428Y-126388571D01*
X158960285Y-126317142D01*
X159103142Y-126174285D01*
X159174571Y-125960000D01*
X159174571Y-125817142D01*
X159103142Y-125602857D01*
X159031714Y-125531428D01*
X158531714Y-125531428D01*
X158531714Y-125817142D01*
X159174571Y-124888571D02*
X157674571Y-124888571D01*
X159174571Y-124031428D01*
X157674571Y-124031428D01*
X159174571Y-123317142D02*
X157674571Y-123317142D01*
X157674571Y-122960000D01*
X157746000Y-122745714D01*
X157888857Y-122602857D01*
X158031714Y-122531428D01*
X158317428Y-122460000D01*
X158531714Y-122460000D01*
X158817428Y-122531428D01*
X158960285Y-122602857D01*
X159103142Y-122745714D01*
X159174571Y-122960000D01*
X159174571Y-123317142D01*
X153666000Y-127055428D02*
X153666000Y-126341142D01*
X154094571Y-127198285D02*
X152594571Y-126698285D01*
X154094571Y-126198285D01*
X152594571Y-125412571D02*
X152594571Y-125269714D01*
X152666000Y-125126857D01*
X152737428Y-125055428D01*
X152880285Y-124984000D01*
X153166000Y-124912571D01*
X153523142Y-124912571D01*
X153808857Y-124984000D01*
X153951714Y-125055428D01*
X154023142Y-125126857D01*
X154094571Y-125269714D01*
X154094571Y-125412571D01*
X154023142Y-125555428D01*
X153951714Y-125626857D01*
X153808857Y-125698285D01*
X153523142Y-125769714D01*
X153166000Y-125769714D01*
X152880285Y-125698285D01*
X152737428Y-125626857D01*
X152666000Y-125555428D01*
X152594571Y-125412571D01*
X149800571Y-127773714D02*
X151300571Y-127273714D01*
X149800571Y-126773714D01*
X151300571Y-126273714D02*
X150300571Y-126273714D01*
X149800571Y-126273714D02*
X149872000Y-126345142D01*
X149943428Y-126273714D01*
X149872000Y-126202285D01*
X149800571Y-126273714D01*
X149943428Y-126273714D01*
X150300571Y-125559428D02*
X151300571Y-125559428D01*
X150443428Y-125559428D02*
X150372000Y-125488000D01*
X150300571Y-125345142D01*
X150300571Y-125130857D01*
X150372000Y-124988000D01*
X150514857Y-124916571D01*
X151300571Y-124916571D01*
X165620000Y-76580857D02*
X165548571Y-76723714D01*
X165548571Y-76938000D01*
X165620000Y-77152285D01*
X165762857Y-77295142D01*
X165905714Y-77366571D01*
X166191428Y-77438000D01*
X166405714Y-77438000D01*
X166691428Y-77366571D01*
X166834285Y-77295142D01*
X166977142Y-77152285D01*
X167048571Y-76938000D01*
X167048571Y-76795142D01*
X166977142Y-76580857D01*
X166905714Y-76509428D01*
X166405714Y-76509428D01*
X166405714Y-76795142D01*
X167048571Y-75866571D02*
X165548571Y-75866571D01*
X167048571Y-75009428D01*
X165548571Y-75009428D01*
X167048571Y-74295142D02*
X165548571Y-74295142D01*
X165548571Y-73938000D01*
X165620000Y-73723714D01*
X165762857Y-73580857D01*
X165905714Y-73509428D01*
X166191428Y-73438000D01*
X166405714Y-73438000D01*
X166691428Y-73509428D01*
X166834285Y-73580857D01*
X166977142Y-73723714D01*
X167048571Y-73938000D01*
X167048571Y-74295142D01*
X164508571Y-76656285D02*
X164508571Y-77370571D01*
X163008571Y-77370571D01*
X164437142Y-76227714D02*
X164508571Y-76013428D01*
X164508571Y-75656285D01*
X164437142Y-75513428D01*
X164365714Y-75442000D01*
X164222857Y-75370571D01*
X164080000Y-75370571D01*
X163937142Y-75442000D01*
X163865714Y-75513428D01*
X163794285Y-75656285D01*
X163722857Y-75942000D01*
X163651428Y-76084857D01*
X163580000Y-76156285D01*
X163437142Y-76227714D01*
X163294285Y-76227714D01*
X163151428Y-76156285D01*
X163080000Y-76084857D01*
X163008571Y-75942000D01*
X163008571Y-75584857D01*
X163080000Y-75370571D01*
X163151428Y-74799142D02*
X163080000Y-74727714D01*
X163008571Y-74584857D01*
X163008571Y-74227714D01*
X163080000Y-74084857D01*
X163151428Y-74013428D01*
X163294285Y-73942000D01*
X163437142Y-73942000D01*
X163651428Y-74013428D01*
X164508571Y-74870571D01*
X164508571Y-73942000D01*
X161968571Y-77295142D02*
X160468571Y-77295142D01*
X161182857Y-77295142D02*
X161182857Y-76438000D01*
X161968571Y-76438000D02*
X160468571Y-76438000D01*
X161897142Y-75795142D02*
X161968571Y-75580857D01*
X161968571Y-75223714D01*
X161897142Y-75080857D01*
X161825714Y-75009428D01*
X161682857Y-74938000D01*
X161540000Y-74938000D01*
X161397142Y-75009428D01*
X161325714Y-75080857D01*
X161254285Y-75223714D01*
X161182857Y-75509428D01*
X161111428Y-75652285D01*
X161040000Y-75723714D01*
X160897142Y-75795142D01*
X160754285Y-75795142D01*
X160611428Y-75723714D01*
X160540000Y-75652285D01*
X160468571Y-75509428D01*
X160468571Y-75152285D01*
X160540000Y-74938000D01*
X160611428Y-74366571D02*
X160540000Y-74295142D01*
X160468571Y-74152285D01*
X160468571Y-73795142D01*
X160540000Y-73652285D01*
X160611428Y-73580857D01*
X160754285Y-73509428D01*
X160897142Y-73509428D01*
X161111428Y-73580857D01*
X161968571Y-74438000D01*
X161968571Y-73509428D01*
X127266000Y-80644857D02*
X127194571Y-80787714D01*
X127194571Y-81002000D01*
X127266000Y-81216285D01*
X127408857Y-81359142D01*
X127551714Y-81430571D01*
X127837428Y-81502000D01*
X128051714Y-81502000D01*
X128337428Y-81430571D01*
X128480285Y-81359142D01*
X128623142Y-81216285D01*
X128694571Y-81002000D01*
X128694571Y-80859142D01*
X128623142Y-80644857D01*
X128551714Y-80573428D01*
X128051714Y-80573428D01*
X128051714Y-80859142D01*
X128694571Y-79930571D02*
X127194571Y-79930571D01*
X128694571Y-79073428D01*
X127194571Y-79073428D01*
X128694571Y-78359142D02*
X127194571Y-78359142D01*
X127194571Y-78002000D01*
X127266000Y-77787714D01*
X127408857Y-77644857D01*
X127551714Y-77573428D01*
X127837428Y-77502000D01*
X128051714Y-77502000D01*
X128337428Y-77573428D01*
X128480285Y-77644857D01*
X128623142Y-77787714D01*
X128694571Y-78002000D01*
X128694571Y-78359142D01*
X131234571Y-80720285D02*
X131234571Y-81434571D01*
X129734571Y-81434571D01*
X131163142Y-80291714D02*
X131234571Y-80077428D01*
X131234571Y-79720285D01*
X131163142Y-79577428D01*
X131091714Y-79506000D01*
X130948857Y-79434571D01*
X130806000Y-79434571D01*
X130663142Y-79506000D01*
X130591714Y-79577428D01*
X130520285Y-79720285D01*
X130448857Y-80006000D01*
X130377428Y-80148857D01*
X130306000Y-80220285D01*
X130163142Y-80291714D01*
X130020285Y-80291714D01*
X129877428Y-80220285D01*
X129806000Y-80148857D01*
X129734571Y-80006000D01*
X129734571Y-79648857D01*
X129806000Y-79434571D01*
X131234571Y-78006000D02*
X131234571Y-78863142D01*
X131234571Y-78434571D02*
X129734571Y-78434571D01*
X129948857Y-78577428D01*
X130091714Y-78720285D01*
X130163142Y-78863142D01*
X134028571Y-81359142D02*
X132528571Y-81359142D01*
X133242857Y-81359142D02*
X133242857Y-80502000D01*
X134028571Y-80502000D02*
X132528571Y-80502000D01*
X133957142Y-79859142D02*
X134028571Y-79644857D01*
X134028571Y-79287714D01*
X133957142Y-79144857D01*
X133885714Y-79073428D01*
X133742857Y-79002000D01*
X133600000Y-79002000D01*
X133457142Y-79073428D01*
X133385714Y-79144857D01*
X133314285Y-79287714D01*
X133242857Y-79573428D01*
X133171428Y-79716285D01*
X133100000Y-79787714D01*
X132957142Y-79859142D01*
X132814285Y-79859142D01*
X132671428Y-79787714D01*
X132600000Y-79716285D01*
X132528571Y-79573428D01*
X132528571Y-79216285D01*
X132600000Y-79002000D01*
X134028571Y-77573428D02*
X134028571Y-78430571D01*
X134028571Y-78002000D02*
X132528571Y-78002000D01*
X132742857Y-78144857D01*
X132885714Y-78287714D01*
X132957142Y-78430571D01*
X112069714Y-104818571D02*
X112069714Y-103318571D01*
X112569714Y-104390000D01*
X113069714Y-103318571D01*
X113069714Y-104818571D01*
X114569714Y-104818571D02*
X113712571Y-104818571D01*
X114141142Y-104818571D02*
X114141142Y-103318571D01*
X113998285Y-103532857D01*
X113855428Y-103675714D01*
X113712571Y-103747142D01*
X112069714Y-101516571D02*
X112069714Y-100016571D01*
X112569714Y-101088000D01*
X113069714Y-100016571D01*
X113069714Y-101516571D01*
X113712571Y-100159428D02*
X113784000Y-100088000D01*
X113926857Y-100016571D01*
X114284000Y-100016571D01*
X114426857Y-100088000D01*
X114498285Y-100159428D01*
X114569714Y-100302285D01*
X114569714Y-100445142D01*
X114498285Y-100659428D01*
X113641142Y-101516571D01*
X114569714Y-101516571D01*
X112649142Y-96405000D02*
X112506285Y-96333571D01*
X112292000Y-96333571D01*
X112077714Y-96405000D01*
X111934857Y-96547857D01*
X111863428Y-96690714D01*
X111792000Y-96976428D01*
X111792000Y-97190714D01*
X111863428Y-97476428D01*
X111934857Y-97619285D01*
X112077714Y-97762142D01*
X112292000Y-97833571D01*
X112434857Y-97833571D01*
X112649142Y-97762142D01*
X112720571Y-97690714D01*
X112720571Y-97190714D01*
X112434857Y-97190714D01*
X113363428Y-97833571D02*
X113363428Y-96333571D01*
X114220571Y-97833571D01*
X114220571Y-96333571D01*
X114934857Y-97833571D02*
X114934857Y-96333571D01*
X115292000Y-96333571D01*
X115506285Y-96405000D01*
X115649142Y-96547857D01*
X115720571Y-96690714D01*
X115792000Y-96976428D01*
X115792000Y-97190714D01*
X115720571Y-97476428D01*
X115649142Y-97619285D01*
X115506285Y-97762142D01*
X115292000Y-97833571D01*
X114934857Y-97833571D01*
X112863428Y-94150571D02*
X112006285Y-94150571D01*
X112434857Y-94150571D02*
X112434857Y-92650571D01*
X112292000Y-92864857D01*
X112149142Y-93007714D01*
X112006285Y-93079142D01*
X113434857Y-92793428D02*
X113506285Y-92722000D01*
X113649142Y-92650571D01*
X114006285Y-92650571D01*
X114149142Y-92722000D01*
X114220571Y-92793428D01*
X114292000Y-92936285D01*
X114292000Y-93079142D01*
X114220571Y-93293428D01*
X113363428Y-94150571D01*
X114292000Y-94150571D01*
X114720571Y-92650571D02*
X115220571Y-94150571D01*
X115720571Y-92650571D01*
D12*
X131770380Y-116300285D02*
X131770380Y-116871714D01*
X131770380Y-116586000D02*
X130770380Y-116586000D01*
X130913238Y-116681238D01*
X131008476Y-116776476D01*
X131056095Y-116871714D01*
G04 #@! TO.C,U2*
X113030000Y-114046000D02*
X107950000Y-114046000D01*
X107950000Y-114046000D02*
X107950000Y-109474000D01*
X107950000Y-109474000D02*
X113030000Y-109474000D01*
X113030000Y-109474000D02*
X113030000Y-114046000D01*
X113030000Y-112522000D02*
X112522000Y-112522000D01*
X112522000Y-112522000D02*
X112522000Y-111252000D01*
X112522000Y-111252000D02*
X113030000Y-111252000D01*
G04 #@! TO.C,P1*
X201168000Y-115316000D02*
X201168000Y-69596000D01*
X196088000Y-69596000D02*
X196088000Y-112776000D01*
X201168000Y-69596000D02*
X196088000Y-69596000D01*
X201168000Y-115316000D02*
X198628000Y-115316000D01*
X195808000Y-114046000D02*
X195808000Y-115596000D01*
X198628000Y-115316000D02*
X198628000Y-112776000D01*
X198628000Y-112776000D02*
X196088000Y-112776000D01*
X195808000Y-115596000D02*
X197358000Y-115596000D01*
G04 #@! TO.C,P2*
X132588000Y-120396000D02*
X150368000Y-120396000D01*
X150368000Y-120396000D02*
X150368000Y-117856000D01*
X150368000Y-117856000D02*
X132588000Y-117856000D01*
X129768000Y-120676000D02*
X131318000Y-120676000D01*
X132588000Y-120396000D02*
X132588000Y-117856000D01*
X131318000Y-117576000D02*
X129768000Y-117576000D01*
X129768000Y-117576000D02*
X129768000Y-120676000D01*
G04 #@! TO.C,P3*
X155448000Y-120396000D02*
X173228000Y-120396000D01*
X173228000Y-120396000D02*
X173228000Y-117856000D01*
X173228000Y-117856000D02*
X155448000Y-117856000D01*
X152628000Y-120676000D02*
X154178000Y-120676000D01*
X155448000Y-120396000D02*
X155448000Y-117856000D01*
X154178000Y-117576000D02*
X152628000Y-117576000D01*
X152628000Y-117576000D02*
X152628000Y-120676000D01*
G04 #@! TO.C,P4*
X178308000Y-120396000D02*
X196088000Y-120396000D01*
X196088000Y-120396000D02*
X196088000Y-117856000D01*
X196088000Y-117856000D02*
X178308000Y-117856000D01*
X175488000Y-120676000D02*
X177038000Y-120676000D01*
X178308000Y-120396000D02*
X178308000Y-117856000D01*
X177038000Y-117576000D02*
X175488000Y-117576000D01*
X175488000Y-117576000D02*
X175488000Y-120676000D01*
G04 #@! TO.C,P5*
X123444000Y-72136000D02*
X146304000Y-72136000D01*
X146304000Y-72136000D02*
X146304000Y-69596000D01*
X146304000Y-69596000D02*
X123444000Y-69596000D01*
X120624000Y-72416000D02*
X122174000Y-72416000D01*
X123444000Y-72136000D02*
X123444000Y-69596000D01*
X122174000Y-69316000D02*
X120624000Y-69316000D01*
X120624000Y-69316000D02*
X120624000Y-72416000D01*
G04 #@! TO.C,P6*
X150368000Y-72136000D02*
X168148000Y-72136000D01*
X168148000Y-72136000D02*
X168148000Y-69596000D01*
X168148000Y-69596000D02*
X150368000Y-69596000D01*
X147548000Y-72416000D02*
X149098000Y-72416000D01*
X150368000Y-72136000D02*
X150368000Y-69596000D01*
X149098000Y-69316000D02*
X147548000Y-69316000D01*
X147548000Y-69316000D02*
X147548000Y-72416000D01*
G04 #@! TO.C,P7*
X173228000Y-72136000D02*
X191008000Y-72136000D01*
X191008000Y-72136000D02*
X191008000Y-69596000D01*
X191008000Y-69596000D02*
X173228000Y-69596000D01*
X170408000Y-72416000D02*
X171958000Y-72416000D01*
X173228000Y-72136000D02*
X173228000Y-69596000D01*
X171958000Y-69316000D02*
X170408000Y-69316000D01*
X170408000Y-69316000D02*
X170408000Y-72416000D01*
G04 #@! TO.C,P8*
X119634000Y-119126000D02*
G75*
G03X119634000Y-119126000I-2286000J0D01*
G01*
G04 #@! TO.C,P9*
X171704000Y-114046000D02*
G75*
G03X171704000Y-114046000I-2286000J0D01*
G01*
G04 #@! TO.C,P10*
X202184000Y-119126000D02*
G75*
G03X202184000Y-119126000I-2286000J0D01*
G01*
G04 #@! TO.C,P11*
X120904000Y-70866000D02*
G75*
G03X120904000Y-70866000I-2286000J0D01*
G01*
G04 #@! TO.C,P12*
X171704000Y-86106000D02*
G75*
G03X171704000Y-86106000I-2286000J0D01*
G01*
G04 #@! TO.C,P13*
X195834000Y-70866000D02*
G75*
G03X195834000Y-70866000I-2286000J0D01*
G01*
D13*
G04 #@! TO.C,C1*
X143725000Y-91940000D02*
X143725000Y-90940000D01*
X142025000Y-90940000D02*
X142025000Y-91940000D01*
G04 #@! TO.C,C2*
X140882000Y-81034000D02*
X140882000Y-82034000D01*
X142582000Y-82034000D02*
X142582000Y-81034000D01*
G04 #@! TO.C,C3*
X143645000Y-78320000D02*
X144645000Y-78320000D01*
X144645000Y-76620000D02*
X143645000Y-76620000D01*
G04 #@! TO.C,C4*
X149725000Y-76620000D02*
X148725000Y-76620000D01*
X148725000Y-78320000D02*
X149725000Y-78320000D01*
G04 #@! TO.C,C5*
X115875000Y-86345000D02*
X115875000Y-87645000D01*
X115275000Y-86995000D02*
X116475000Y-86995000D01*
X123306000Y-86749000D02*
X123306000Y-87241000D01*
X123266000Y-86397000D02*
X123266000Y-87593000D01*
X123226000Y-86181000D02*
X123226000Y-87809000D01*
X123186000Y-86012000D02*
X123186000Y-87978000D01*
X123146000Y-85868000D02*
X123146000Y-88122000D01*
X123106000Y-85741000D02*
X123106000Y-88249000D01*
X123066000Y-85626000D02*
X123066000Y-88364000D01*
X123026000Y-85522000D02*
X123026000Y-88468000D01*
X122986000Y-85425000D02*
X122986000Y-88565000D01*
X122946000Y-85335000D02*
X122946000Y-88655000D01*
X122906000Y-85250000D02*
X122906000Y-88740000D01*
X122866000Y-85169000D02*
X122866000Y-88821000D01*
X122826000Y-85093000D02*
X122826000Y-88897000D01*
X122786000Y-85021000D02*
X122786000Y-88969000D01*
X122746000Y-84952000D02*
X122746000Y-89038000D01*
X122706000Y-84886000D02*
X122706000Y-89104000D01*
X122666000Y-84822000D02*
X122666000Y-89168000D01*
X122626000Y-84761000D02*
X122626000Y-89229000D01*
X122586000Y-84702000D02*
X122586000Y-89288000D01*
X122546000Y-84646000D02*
X122546000Y-89344000D01*
X122506000Y-84591000D02*
X122506000Y-89399000D01*
X122466000Y-84538000D02*
X122466000Y-89452000D01*
X122426000Y-84487000D02*
X122426000Y-89503000D01*
X122386000Y-84438000D02*
X122386000Y-89552000D01*
X122346000Y-84390000D02*
X122346000Y-89600000D01*
X122306000Y-84343000D02*
X122306000Y-89647000D01*
X122266000Y-84298000D02*
X122266000Y-89692000D01*
X122226000Y-84255000D02*
X122226000Y-89735000D01*
X122186000Y-84212000D02*
X122186000Y-89778000D01*
X122146000Y-84171000D02*
X122146000Y-89819000D01*
X122106000Y-84130000D02*
X122106000Y-89860000D01*
X122066000Y-84091000D02*
X122066000Y-89899000D01*
X122026000Y-84053000D02*
X122026000Y-89937000D01*
X121986000Y-84016000D02*
X121986000Y-89974000D01*
X121946000Y-87975000D02*
X121946000Y-90010000D01*
X121946000Y-83980000D02*
X121946000Y-86015000D01*
X121906000Y-87975000D02*
X121906000Y-90045000D01*
X121906000Y-83945000D02*
X121906000Y-86015000D01*
X121866000Y-87975000D02*
X121866000Y-90079000D01*
X121866000Y-83911000D02*
X121866000Y-86015000D01*
X121826000Y-87975000D02*
X121826000Y-90113000D01*
X121826000Y-83877000D02*
X121826000Y-86015000D01*
X121786000Y-87975000D02*
X121786000Y-90145000D01*
X121786000Y-83845000D02*
X121786000Y-86015000D01*
X121746000Y-87975000D02*
X121746000Y-90177000D01*
X121746000Y-83813000D02*
X121746000Y-86015000D01*
X121706000Y-87975000D02*
X121706000Y-90208000D01*
X121706000Y-83782000D02*
X121706000Y-86015000D01*
X121666000Y-87975000D02*
X121666000Y-90238000D01*
X121666000Y-83752000D02*
X121666000Y-86015000D01*
X121626000Y-87975000D02*
X121626000Y-90267000D01*
X121626000Y-83723000D02*
X121626000Y-86015000D01*
X121586000Y-87975000D02*
X121586000Y-90296000D01*
X121586000Y-83694000D02*
X121586000Y-86015000D01*
X121546000Y-87975000D02*
X121546000Y-90324000D01*
X121546000Y-83666000D02*
X121546000Y-86015000D01*
X121506000Y-87975000D02*
X121506000Y-90351000D01*
X121506000Y-83639000D02*
X121506000Y-86015000D01*
X121466000Y-87975000D02*
X121466000Y-90378000D01*
X121466000Y-83612000D02*
X121466000Y-86015000D01*
X121426000Y-87975000D02*
X121426000Y-90403000D01*
X121426000Y-83587000D02*
X121426000Y-86015000D01*
X121386000Y-87975000D02*
X121386000Y-90429000D01*
X121386000Y-83561000D02*
X121386000Y-86015000D01*
X121346000Y-87975000D02*
X121346000Y-90453000D01*
X121346000Y-83537000D02*
X121346000Y-86015000D01*
X121306000Y-87975000D02*
X121306000Y-90477000D01*
X121306000Y-83513000D02*
X121306000Y-86015000D01*
X121266000Y-87975000D02*
X121266000Y-90500000D01*
X121266000Y-83490000D02*
X121266000Y-86015000D01*
X121226000Y-87975000D02*
X121226000Y-90523000D01*
X121226000Y-83467000D02*
X121226000Y-86015000D01*
X121186000Y-87975000D02*
X121186000Y-90545000D01*
X121186000Y-83445000D02*
X121186000Y-86015000D01*
X121146000Y-87975000D02*
X121146000Y-90567000D01*
X121146000Y-83423000D02*
X121146000Y-86015000D01*
X121106000Y-87975000D02*
X121106000Y-90588000D01*
X121106000Y-83402000D02*
X121106000Y-86015000D01*
X121066000Y-87975000D02*
X121066000Y-90608000D01*
X121066000Y-83382000D02*
X121066000Y-86015000D01*
X121026000Y-87975000D02*
X121026000Y-90628000D01*
X121026000Y-83362000D02*
X121026000Y-86015000D01*
X120986000Y-87975000D02*
X120986000Y-90647000D01*
X120986000Y-83343000D02*
X120986000Y-86015000D01*
X120946000Y-87975000D02*
X120946000Y-90666000D01*
X120946000Y-83324000D02*
X120946000Y-86015000D01*
X120906000Y-87975000D02*
X120906000Y-90685000D01*
X120906000Y-83305000D02*
X120906000Y-86015000D01*
X120866000Y-87975000D02*
X120866000Y-90702000D01*
X120866000Y-83288000D02*
X120866000Y-86015000D01*
X120826000Y-87975000D02*
X120826000Y-90720000D01*
X120826000Y-83270000D02*
X120826000Y-86015000D01*
X120786000Y-87975000D02*
X120786000Y-90736000D01*
X120786000Y-83254000D02*
X120786000Y-86015000D01*
X120746000Y-87975000D02*
X120746000Y-90753000D01*
X120746000Y-83237000D02*
X120746000Y-86015000D01*
X120706000Y-87975000D02*
X120706000Y-90768000D01*
X120706000Y-83222000D02*
X120706000Y-86015000D01*
X120666000Y-87975000D02*
X120666000Y-90784000D01*
X120666000Y-83206000D02*
X120666000Y-86015000D01*
X120626000Y-87975000D02*
X120626000Y-90798000D01*
X120626000Y-83192000D02*
X120626000Y-86015000D01*
X120586000Y-87975000D02*
X120586000Y-90813000D01*
X120586000Y-83177000D02*
X120586000Y-86015000D01*
X120546000Y-87975000D02*
X120546000Y-90827000D01*
X120546000Y-83163000D02*
X120546000Y-86015000D01*
X120506000Y-87975000D02*
X120506000Y-90840000D01*
X120506000Y-83150000D02*
X120506000Y-86015000D01*
X120466000Y-87975000D02*
X120466000Y-90853000D01*
X120466000Y-83137000D02*
X120466000Y-86015000D01*
X120426000Y-87975000D02*
X120426000Y-90865000D01*
X120426000Y-83125000D02*
X120426000Y-86015000D01*
X120386000Y-87975000D02*
X120386000Y-90878000D01*
X120386000Y-83112000D02*
X120386000Y-86015000D01*
X120346000Y-87975000D02*
X120346000Y-90889000D01*
X120346000Y-83101000D02*
X120346000Y-86015000D01*
X120306000Y-87975000D02*
X120306000Y-90900000D01*
X120306000Y-83090000D02*
X120306000Y-86015000D01*
X120266000Y-87975000D02*
X120266000Y-90911000D01*
X120266000Y-83079000D02*
X120266000Y-86015000D01*
X120226000Y-87975000D02*
X120226000Y-90921000D01*
X120226000Y-83069000D02*
X120226000Y-86015000D01*
X120186000Y-87975000D02*
X120186000Y-90931000D01*
X120186000Y-83059000D02*
X120186000Y-86015000D01*
X120146000Y-87975000D02*
X120146000Y-90941000D01*
X120146000Y-83049000D02*
X120146000Y-86015000D01*
X120106000Y-87975000D02*
X120106000Y-90950000D01*
X120106000Y-83040000D02*
X120106000Y-86015000D01*
X120066000Y-87975000D02*
X120066000Y-90958000D01*
X120066000Y-83032000D02*
X120066000Y-86015000D01*
X120026000Y-87975000D02*
X120026000Y-90966000D01*
X120026000Y-83024000D02*
X120026000Y-86015000D01*
X119986000Y-83016000D02*
X119986000Y-90974000D01*
X119946000Y-83008000D02*
X119946000Y-90982000D01*
X119905000Y-83001000D02*
X119905000Y-90989000D01*
X119865000Y-82995000D02*
X119865000Y-90995000D01*
X119825000Y-82989000D02*
X119825000Y-91001000D01*
X119785000Y-82983000D02*
X119785000Y-91007000D01*
X119745000Y-82978000D02*
X119745000Y-91012000D01*
X119705000Y-82973000D02*
X119705000Y-91017000D01*
X119665000Y-82968000D02*
X119665000Y-91022000D01*
X119625000Y-82964000D02*
X119625000Y-91026000D01*
X119585000Y-82960000D02*
X119585000Y-91030000D01*
X119545000Y-82957000D02*
X119545000Y-91033000D01*
X119505000Y-82954000D02*
X119505000Y-91036000D01*
X119465000Y-82952000D02*
X119465000Y-91038000D01*
X119425000Y-82949000D02*
X119425000Y-91041000D01*
X119385000Y-82948000D02*
X119385000Y-91042000D01*
X119345000Y-82946000D02*
X119345000Y-91044000D01*
X119305000Y-82945000D02*
X119305000Y-91045000D01*
X119265000Y-82945000D02*
X119265000Y-91045000D01*
X119225000Y-82945000D02*
X119225000Y-91045000D01*
X123315000Y-86995000D02*
G75*
G03X123315000Y-86995000I-4090000J0D01*
G01*
G04 #@! TO.C,C6*
X128776000Y-119634000D02*
G75*
G03X128776000Y-119634000I-4090000J0D01*
G01*
X124686000Y-115584000D02*
X124686000Y-123684000D01*
X124726000Y-115584000D02*
X124726000Y-123684000D01*
X124766000Y-115584000D02*
X124766000Y-123684000D01*
X124806000Y-115585000D02*
X124806000Y-123683000D01*
X124846000Y-115587000D02*
X124846000Y-123681000D01*
X124886000Y-115588000D02*
X124886000Y-123680000D01*
X124926000Y-115591000D02*
X124926000Y-123677000D01*
X124966000Y-115593000D02*
X124966000Y-123675000D01*
X125006000Y-115596000D02*
X125006000Y-123672000D01*
X125046000Y-115599000D02*
X125046000Y-123669000D01*
X125086000Y-115603000D02*
X125086000Y-123665000D01*
X125126000Y-115607000D02*
X125126000Y-123661000D01*
X125166000Y-115612000D02*
X125166000Y-123656000D01*
X125206000Y-115617000D02*
X125206000Y-123651000D01*
X125246000Y-115622000D02*
X125246000Y-123646000D01*
X125286000Y-115628000D02*
X125286000Y-123640000D01*
X125326000Y-115634000D02*
X125326000Y-123634000D01*
X125366000Y-115640000D02*
X125366000Y-123628000D01*
X125407000Y-115647000D02*
X125407000Y-123621000D01*
X125447000Y-115655000D02*
X125447000Y-123613000D01*
X125487000Y-115663000D02*
X125487000Y-118654000D01*
X125487000Y-120614000D02*
X125487000Y-123605000D01*
X125527000Y-115671000D02*
X125527000Y-118654000D01*
X125527000Y-120614000D02*
X125527000Y-123597000D01*
X125567000Y-115679000D02*
X125567000Y-118654000D01*
X125567000Y-120614000D02*
X125567000Y-123589000D01*
X125607000Y-115688000D02*
X125607000Y-118654000D01*
X125607000Y-120614000D02*
X125607000Y-123580000D01*
X125647000Y-115698000D02*
X125647000Y-118654000D01*
X125647000Y-120614000D02*
X125647000Y-123570000D01*
X125687000Y-115708000D02*
X125687000Y-118654000D01*
X125687000Y-120614000D02*
X125687000Y-123560000D01*
X125727000Y-115718000D02*
X125727000Y-118654000D01*
X125727000Y-120614000D02*
X125727000Y-123550000D01*
X125767000Y-115729000D02*
X125767000Y-118654000D01*
X125767000Y-120614000D02*
X125767000Y-123539000D01*
X125807000Y-115740000D02*
X125807000Y-118654000D01*
X125807000Y-120614000D02*
X125807000Y-123528000D01*
X125847000Y-115751000D02*
X125847000Y-118654000D01*
X125847000Y-120614000D02*
X125847000Y-123517000D01*
X125887000Y-115764000D02*
X125887000Y-118654000D01*
X125887000Y-120614000D02*
X125887000Y-123504000D01*
X125927000Y-115776000D02*
X125927000Y-118654000D01*
X125927000Y-120614000D02*
X125927000Y-123492000D01*
X125967000Y-115789000D02*
X125967000Y-118654000D01*
X125967000Y-120614000D02*
X125967000Y-123479000D01*
X126007000Y-115802000D02*
X126007000Y-118654000D01*
X126007000Y-120614000D02*
X126007000Y-123466000D01*
X126047000Y-115816000D02*
X126047000Y-118654000D01*
X126047000Y-120614000D02*
X126047000Y-123452000D01*
X126087000Y-115831000D02*
X126087000Y-118654000D01*
X126087000Y-120614000D02*
X126087000Y-123437000D01*
X126127000Y-115845000D02*
X126127000Y-118654000D01*
X126127000Y-120614000D02*
X126127000Y-123423000D01*
X126167000Y-115861000D02*
X126167000Y-118654000D01*
X126167000Y-120614000D02*
X126167000Y-123407000D01*
X126207000Y-115876000D02*
X126207000Y-118654000D01*
X126207000Y-120614000D02*
X126207000Y-123392000D01*
X126247000Y-115893000D02*
X126247000Y-118654000D01*
X126247000Y-120614000D02*
X126247000Y-123375000D01*
X126287000Y-115909000D02*
X126287000Y-118654000D01*
X126287000Y-120614000D02*
X126287000Y-123359000D01*
X126327000Y-115927000D02*
X126327000Y-118654000D01*
X126327000Y-120614000D02*
X126327000Y-123341000D01*
X126367000Y-115944000D02*
X126367000Y-118654000D01*
X126367000Y-120614000D02*
X126367000Y-123324000D01*
X126407000Y-115963000D02*
X126407000Y-118654000D01*
X126407000Y-120614000D02*
X126407000Y-123305000D01*
X126447000Y-115982000D02*
X126447000Y-118654000D01*
X126447000Y-120614000D02*
X126447000Y-123286000D01*
X126487000Y-116001000D02*
X126487000Y-118654000D01*
X126487000Y-120614000D02*
X126487000Y-123267000D01*
X126527000Y-116021000D02*
X126527000Y-118654000D01*
X126527000Y-120614000D02*
X126527000Y-123247000D01*
X126567000Y-116041000D02*
X126567000Y-118654000D01*
X126567000Y-120614000D02*
X126567000Y-123227000D01*
X126607000Y-116062000D02*
X126607000Y-118654000D01*
X126607000Y-120614000D02*
X126607000Y-123206000D01*
X126647000Y-116084000D02*
X126647000Y-118654000D01*
X126647000Y-120614000D02*
X126647000Y-123184000D01*
X126687000Y-116106000D02*
X126687000Y-118654000D01*
X126687000Y-120614000D02*
X126687000Y-123162000D01*
X126727000Y-116129000D02*
X126727000Y-118654000D01*
X126727000Y-120614000D02*
X126727000Y-123139000D01*
X126767000Y-116152000D02*
X126767000Y-118654000D01*
X126767000Y-120614000D02*
X126767000Y-123116000D01*
X126807000Y-116176000D02*
X126807000Y-118654000D01*
X126807000Y-120614000D02*
X126807000Y-123092000D01*
X126847000Y-116200000D02*
X126847000Y-118654000D01*
X126847000Y-120614000D02*
X126847000Y-123068000D01*
X126887000Y-116226000D02*
X126887000Y-118654000D01*
X126887000Y-120614000D02*
X126887000Y-123042000D01*
X126927000Y-116251000D02*
X126927000Y-118654000D01*
X126927000Y-120614000D02*
X126927000Y-123017000D01*
X126967000Y-116278000D02*
X126967000Y-118654000D01*
X126967000Y-120614000D02*
X126967000Y-122990000D01*
X127007000Y-116305000D02*
X127007000Y-118654000D01*
X127007000Y-120614000D02*
X127007000Y-122963000D01*
X127047000Y-116333000D02*
X127047000Y-118654000D01*
X127047000Y-120614000D02*
X127047000Y-122935000D01*
X127087000Y-116362000D02*
X127087000Y-118654000D01*
X127087000Y-120614000D02*
X127087000Y-122906000D01*
X127127000Y-116391000D02*
X127127000Y-118654000D01*
X127127000Y-120614000D02*
X127127000Y-122877000D01*
X127167000Y-116421000D02*
X127167000Y-118654000D01*
X127167000Y-120614000D02*
X127167000Y-122847000D01*
X127207000Y-116452000D02*
X127207000Y-118654000D01*
X127207000Y-120614000D02*
X127207000Y-122816000D01*
X127247000Y-116484000D02*
X127247000Y-118654000D01*
X127247000Y-120614000D02*
X127247000Y-122784000D01*
X127287000Y-116516000D02*
X127287000Y-118654000D01*
X127287000Y-120614000D02*
X127287000Y-122752000D01*
X127327000Y-116550000D02*
X127327000Y-118654000D01*
X127327000Y-120614000D02*
X127327000Y-122718000D01*
X127367000Y-116584000D02*
X127367000Y-118654000D01*
X127367000Y-120614000D02*
X127367000Y-122684000D01*
X127407000Y-116619000D02*
X127407000Y-118654000D01*
X127407000Y-120614000D02*
X127407000Y-122649000D01*
X127447000Y-116655000D02*
X127447000Y-122613000D01*
X127487000Y-116692000D02*
X127487000Y-122576000D01*
X127527000Y-116730000D02*
X127527000Y-122538000D01*
X127567000Y-116769000D02*
X127567000Y-122499000D01*
X127607000Y-116810000D02*
X127607000Y-122458000D01*
X127647000Y-116851000D02*
X127647000Y-122417000D01*
X127687000Y-116894000D02*
X127687000Y-122374000D01*
X127727000Y-116937000D02*
X127727000Y-122331000D01*
X127767000Y-116982000D02*
X127767000Y-122286000D01*
X127807000Y-117029000D02*
X127807000Y-122239000D01*
X127847000Y-117077000D02*
X127847000Y-122191000D01*
X127887000Y-117126000D02*
X127887000Y-122142000D01*
X127927000Y-117177000D02*
X127927000Y-122091000D01*
X127967000Y-117230000D02*
X127967000Y-122038000D01*
X128007000Y-117285000D02*
X128007000Y-121983000D01*
X128047000Y-117341000D02*
X128047000Y-121927000D01*
X128087000Y-117400000D02*
X128087000Y-121868000D01*
X128127000Y-117461000D02*
X128127000Y-121807000D01*
X128167000Y-117525000D02*
X128167000Y-121743000D01*
X128207000Y-117591000D02*
X128207000Y-121677000D01*
X128247000Y-117660000D02*
X128247000Y-121608000D01*
X128287000Y-117732000D02*
X128287000Y-121536000D01*
X128327000Y-117808000D02*
X128327000Y-121460000D01*
X128367000Y-117889000D02*
X128367000Y-121379000D01*
X128407000Y-117974000D02*
X128407000Y-121294000D01*
X128447000Y-118064000D02*
X128447000Y-121204000D01*
X128487000Y-118161000D02*
X128487000Y-121107000D01*
X128527000Y-118265000D02*
X128527000Y-121003000D01*
X128567000Y-118380000D02*
X128567000Y-120888000D01*
X128607000Y-118507000D02*
X128607000Y-120761000D01*
X128647000Y-118651000D02*
X128647000Y-120617000D01*
X128687000Y-118820000D02*
X128687000Y-120448000D01*
X128727000Y-119036000D02*
X128727000Y-120232000D01*
X128767000Y-119388000D02*
X128767000Y-119880000D01*
X120736000Y-119634000D02*
X121936000Y-119634000D01*
X121336000Y-118984000D02*
X121336000Y-120284000D01*
G04 #@! TO.C,C7*
X112688000Y-116848000D02*
X112688000Y-117848000D01*
X114388000Y-117848000D02*
X114388000Y-116848000D01*
G04 #@! TO.C,C8*
X109736000Y-118198000D02*
X110736000Y-118198000D01*
X110736000Y-116498000D02*
X109736000Y-116498000D01*
G04 #@! TO.C,D1*
X184255000Y-108520000D02*
X187055000Y-108520000D01*
X184255000Y-109920000D02*
X187055000Y-109920000D01*
X184255000Y-108520000D02*
X184255000Y-109920000D01*
G04 #@! TO.C,D2*
X184255000Y-111695000D02*
X184255000Y-113095000D01*
X184255000Y-113095000D02*
X187055000Y-113095000D01*
X184255000Y-111695000D02*
X187055000Y-111695000D01*
G04 #@! TO.C,D3*
X116382000Y-125586000D02*
X116382000Y-126066000D01*
X116382000Y-126066000D02*
X108662000Y-126066000D01*
X108662000Y-126066000D02*
X108662000Y-125586000D01*
X116382000Y-122826000D02*
X116382000Y-122346000D01*
X116382000Y-122346000D02*
X108662000Y-122346000D01*
X108662000Y-122346000D02*
X108662000Y-122826000D01*
X115182000Y-126066000D02*
X115182000Y-122346000D01*
G04 #@! TO.C,J1*
X191195000Y-67878000D02*
X191195000Y-65218000D01*
X183515000Y-67878000D02*
X191195000Y-67878000D01*
X183515000Y-65218000D02*
X191195000Y-65218000D01*
X183515000Y-67878000D02*
X183515000Y-65218000D01*
X182245000Y-67878000D02*
X180915000Y-67878000D01*
X180915000Y-67878000D02*
X180915000Y-66548000D01*
D12*
G04 #@! TO.C,J2*
X111633000Y-105918000D02*
X105283000Y-105918000D01*
X111633000Y-91948000D02*
X111633000Y-105918000D01*
X105283000Y-91948000D02*
X111633000Y-91948000D01*
X105283000Y-105918000D02*
X105283000Y-92075000D01*
D13*
G04 #@! TO.C,Q1*
X138215000Y-103095000D02*
X138215000Y-101995000D01*
X136405000Y-103095000D02*
X138215000Y-103095000D01*
X136405000Y-104595000D02*
X136405000Y-103095000D01*
X144995000Y-103095000D02*
X144995000Y-97970000D01*
X146805000Y-103095000D02*
X144995000Y-103095000D01*
X146805000Y-104595000D02*
X146805000Y-103095000D01*
G04 #@! TO.C,Q2*
X133470000Y-104595000D02*
X133470000Y-103095000D01*
X133470000Y-103095000D02*
X131660000Y-103095000D01*
X131660000Y-103095000D02*
X131660000Y-97970000D01*
X123070000Y-104595000D02*
X123070000Y-103095000D01*
X123070000Y-103095000D02*
X124880000Y-103095000D01*
X124880000Y-103095000D02*
X124880000Y-101995000D01*
G04 #@! TO.C,Q3*
X164250000Y-99920000D02*
X164250000Y-98820000D01*
X162440000Y-99920000D02*
X164250000Y-99920000D01*
X162440000Y-101420000D02*
X162440000Y-99920000D01*
X171030000Y-99920000D02*
X171030000Y-94795000D01*
X172840000Y-99920000D02*
X171030000Y-99920000D01*
X172840000Y-101420000D02*
X172840000Y-99920000D01*
G04 #@! TO.C,Q4*
X159505000Y-104595000D02*
X159505000Y-103095000D01*
X159505000Y-103095000D02*
X157695000Y-103095000D01*
X157695000Y-103095000D02*
X157695000Y-97970000D01*
X149105000Y-104595000D02*
X149105000Y-103095000D01*
X149105000Y-103095000D02*
X150915000Y-103095000D01*
X150915000Y-103095000D02*
X150915000Y-101995000D01*
G04 #@! TO.C,R1*
X185429000Y-80356000D02*
X185429000Y-79156000D01*
X187189000Y-79156000D02*
X187189000Y-80356000D01*
G04 #@! TO.C,R2*
X187189000Y-75346000D02*
X187189000Y-76546000D01*
X185429000Y-76546000D02*
X185429000Y-75346000D01*
G04 #@! TO.C,R3*
X190999000Y-79156000D02*
X190999000Y-80356000D01*
X189239000Y-80356000D02*
X189239000Y-79156000D01*
G04 #@! TO.C,R4*
X189239000Y-76546000D02*
X189239000Y-75346000D01*
X190999000Y-75346000D02*
X190999000Y-76546000D01*
G04 #@! TO.C,R5*
X191100000Y-110100000D02*
X189900000Y-110100000D01*
X189900000Y-108340000D02*
X191100000Y-108340000D01*
G04 #@! TO.C,R6*
X189900000Y-111515000D02*
X191100000Y-111515000D01*
X191100000Y-113275000D02*
X189900000Y-113275000D01*
G04 #@! TO.C,R7*
X145025000Y-95285000D02*
X145025000Y-96485000D01*
X143265000Y-96485000D02*
X143265000Y-95285000D01*
G04 #@! TO.C,R8*
X132470000Y-96485000D02*
X132470000Y-95285000D01*
X134230000Y-95285000D02*
X134230000Y-96485000D01*
G04 #@! TO.C,R9*
X171060000Y-91475000D02*
X171060000Y-92675000D01*
X169300000Y-92675000D02*
X169300000Y-91475000D01*
G04 #@! TO.C,R10*
X155838000Y-96485000D02*
X155838000Y-95285000D01*
X157598000Y-95285000D02*
X157598000Y-96485000D01*
D12*
G04 #@! TO.C,U1*
X146620000Y-79150000D02*
X146620000Y-79400000D01*
X154370000Y-79150000D02*
X154370000Y-79485000D01*
X154370000Y-92300000D02*
X154370000Y-91965000D01*
X146620000Y-92300000D02*
X146620000Y-91965000D01*
X146620000Y-79150000D02*
X154370000Y-79150000D01*
X146620000Y-92300000D02*
X154370000Y-92300000D01*
X146620000Y-79400000D02*
X144820000Y-79400000D01*
D13*
G04 #@! TO.C,R11*
X136534000Y-68164000D02*
X136534000Y-66964000D01*
X138294000Y-66964000D02*
X138294000Y-68164000D01*
G04 #@! TO.C,R12*
X160138000Y-66964000D02*
X160138000Y-68164000D01*
X158378000Y-68164000D02*
X158378000Y-66964000D01*
G04 #@! TO.C,R13*
X156836000Y-66964000D02*
X156836000Y-68164000D01*
X155076000Y-68164000D02*
X155076000Y-66964000D01*
G04 #@! TO.C,J3*
X159960000Y-80578000D02*
X159960000Y-79248000D01*
X161290000Y-80578000D02*
X159960000Y-80578000D01*
X162560000Y-80578000D02*
X162560000Y-77918000D01*
X162560000Y-77918000D02*
X167700000Y-77918000D01*
X162560000Y-80578000D02*
X167700000Y-80578000D01*
X167700000Y-80578000D02*
X167700000Y-77918000D01*
G04 #@! TO.C,J4*
X126686000Y-82236000D02*
X126686000Y-84896000D01*
X131826000Y-82236000D02*
X126686000Y-82236000D01*
X131826000Y-84896000D02*
X126686000Y-84896000D01*
X131826000Y-82236000D02*
X131826000Y-84896000D01*
X133096000Y-82236000D02*
X134426000Y-82236000D01*
X134426000Y-82236000D02*
X134426000Y-83566000D01*
G04 #@! TO.C,J5*
X157032000Y-124520000D02*
X157032000Y-121860000D01*
X151892000Y-124520000D02*
X157032000Y-124520000D01*
X151892000Y-121860000D02*
X157032000Y-121860000D01*
X151892000Y-124520000D02*
X151892000Y-121860000D01*
X150622000Y-124520000D02*
X149292000Y-124520000D01*
X149292000Y-124520000D02*
X149292000Y-123190000D01*
G04 #@! TO.C,J6*
X193354000Y-83252000D02*
X190694000Y-83252000D01*
X193354000Y-85852000D02*
X193354000Y-83252000D01*
X190694000Y-85852000D02*
X190694000Y-83252000D01*
X193354000Y-85852000D02*
X190694000Y-85852000D01*
X193354000Y-87122000D02*
X193354000Y-88452000D01*
X193354000Y-88452000D02*
X192024000Y-88452000D01*
G04 #@! TO.C,J7*
X190694000Y-92142000D02*
X192024000Y-92142000D01*
X190694000Y-93472000D02*
X190694000Y-92142000D01*
X190694000Y-94742000D02*
X193354000Y-94742000D01*
X193354000Y-94742000D02*
X193354000Y-97342000D01*
X190694000Y-94742000D02*
X190694000Y-97342000D01*
X190694000Y-97342000D02*
X193354000Y-97342000D01*
G04 #@! TO.C,J8*
X190694000Y-106232000D02*
X193354000Y-106232000D01*
X190694000Y-103632000D02*
X190694000Y-106232000D01*
X193354000Y-103632000D02*
X193354000Y-106232000D01*
X190694000Y-103632000D02*
X193354000Y-103632000D01*
X190694000Y-102362000D02*
X190694000Y-101032000D01*
X190694000Y-101032000D02*
X192024000Y-101032000D01*
G04 #@! TO.C,C9*
X181410000Y-79756000D02*
G75*
G03X181410000Y-79756000I-4090000J0D01*
G01*
X177320000Y-83806000D02*
X177320000Y-75706000D01*
X177280000Y-83806000D02*
X177280000Y-75706000D01*
X177240000Y-83806000D02*
X177240000Y-75706000D01*
X177200000Y-83805000D02*
X177200000Y-75707000D01*
X177160000Y-83803000D02*
X177160000Y-75709000D01*
X177120000Y-83802000D02*
X177120000Y-75710000D01*
X177080000Y-83799000D02*
X177080000Y-75713000D01*
X177040000Y-83797000D02*
X177040000Y-75715000D01*
X177000000Y-83794000D02*
X177000000Y-75718000D01*
X176960000Y-83791000D02*
X176960000Y-75721000D01*
X176920000Y-83787000D02*
X176920000Y-75725000D01*
X176880000Y-83783000D02*
X176880000Y-75729000D01*
X176840000Y-83778000D02*
X176840000Y-75734000D01*
X176800000Y-83773000D02*
X176800000Y-75739000D01*
X176760000Y-83768000D02*
X176760000Y-75744000D01*
X176720000Y-83762000D02*
X176720000Y-75750000D01*
X176680000Y-83756000D02*
X176680000Y-75756000D01*
X176640000Y-83750000D02*
X176640000Y-75762000D01*
X176599000Y-83743000D02*
X176599000Y-75769000D01*
X176559000Y-83735000D02*
X176559000Y-75777000D01*
X176519000Y-83727000D02*
X176519000Y-80736000D01*
X176519000Y-78776000D02*
X176519000Y-75785000D01*
X176479000Y-83719000D02*
X176479000Y-80736000D01*
X176479000Y-78776000D02*
X176479000Y-75793000D01*
X176439000Y-83711000D02*
X176439000Y-80736000D01*
X176439000Y-78776000D02*
X176439000Y-75801000D01*
X176399000Y-83702000D02*
X176399000Y-80736000D01*
X176399000Y-78776000D02*
X176399000Y-75810000D01*
X176359000Y-83692000D02*
X176359000Y-80736000D01*
X176359000Y-78776000D02*
X176359000Y-75820000D01*
X176319000Y-83682000D02*
X176319000Y-80736000D01*
X176319000Y-78776000D02*
X176319000Y-75830000D01*
X176279000Y-83672000D02*
X176279000Y-80736000D01*
X176279000Y-78776000D02*
X176279000Y-75840000D01*
X176239000Y-83661000D02*
X176239000Y-80736000D01*
X176239000Y-78776000D02*
X176239000Y-75851000D01*
X176199000Y-83650000D02*
X176199000Y-80736000D01*
X176199000Y-78776000D02*
X176199000Y-75862000D01*
X176159000Y-83639000D02*
X176159000Y-80736000D01*
X176159000Y-78776000D02*
X176159000Y-75873000D01*
X176119000Y-83626000D02*
X176119000Y-80736000D01*
X176119000Y-78776000D02*
X176119000Y-75886000D01*
X176079000Y-83614000D02*
X176079000Y-80736000D01*
X176079000Y-78776000D02*
X176079000Y-75898000D01*
X176039000Y-83601000D02*
X176039000Y-80736000D01*
X176039000Y-78776000D02*
X176039000Y-75911000D01*
X175999000Y-83588000D02*
X175999000Y-80736000D01*
X175999000Y-78776000D02*
X175999000Y-75924000D01*
X175959000Y-83574000D02*
X175959000Y-80736000D01*
X175959000Y-78776000D02*
X175959000Y-75938000D01*
X175919000Y-83559000D02*
X175919000Y-80736000D01*
X175919000Y-78776000D02*
X175919000Y-75953000D01*
X175879000Y-83545000D02*
X175879000Y-80736000D01*
X175879000Y-78776000D02*
X175879000Y-75967000D01*
X175839000Y-83529000D02*
X175839000Y-80736000D01*
X175839000Y-78776000D02*
X175839000Y-75983000D01*
X175799000Y-83514000D02*
X175799000Y-80736000D01*
X175799000Y-78776000D02*
X175799000Y-75998000D01*
X175759000Y-83497000D02*
X175759000Y-80736000D01*
X175759000Y-78776000D02*
X175759000Y-76015000D01*
X175719000Y-83481000D02*
X175719000Y-80736000D01*
X175719000Y-78776000D02*
X175719000Y-76031000D01*
X175679000Y-83463000D02*
X175679000Y-80736000D01*
X175679000Y-78776000D02*
X175679000Y-76049000D01*
X175639000Y-83446000D02*
X175639000Y-80736000D01*
X175639000Y-78776000D02*
X175639000Y-76066000D01*
X175599000Y-83427000D02*
X175599000Y-80736000D01*
X175599000Y-78776000D02*
X175599000Y-76085000D01*
X175559000Y-83408000D02*
X175559000Y-80736000D01*
X175559000Y-78776000D02*
X175559000Y-76104000D01*
X175519000Y-83389000D02*
X175519000Y-80736000D01*
X175519000Y-78776000D02*
X175519000Y-76123000D01*
X175479000Y-83369000D02*
X175479000Y-80736000D01*
X175479000Y-78776000D02*
X175479000Y-76143000D01*
X175439000Y-83349000D02*
X175439000Y-80736000D01*
X175439000Y-78776000D02*
X175439000Y-76163000D01*
X175399000Y-83328000D02*
X175399000Y-80736000D01*
X175399000Y-78776000D02*
X175399000Y-76184000D01*
X175359000Y-83306000D02*
X175359000Y-80736000D01*
X175359000Y-78776000D02*
X175359000Y-76206000D01*
X175319000Y-83284000D02*
X175319000Y-80736000D01*
X175319000Y-78776000D02*
X175319000Y-76228000D01*
X175279000Y-83261000D02*
X175279000Y-80736000D01*
X175279000Y-78776000D02*
X175279000Y-76251000D01*
X175239000Y-83238000D02*
X175239000Y-80736000D01*
X175239000Y-78776000D02*
X175239000Y-76274000D01*
X175199000Y-83214000D02*
X175199000Y-80736000D01*
X175199000Y-78776000D02*
X175199000Y-76298000D01*
X175159000Y-83190000D02*
X175159000Y-80736000D01*
X175159000Y-78776000D02*
X175159000Y-76322000D01*
X175119000Y-83164000D02*
X175119000Y-80736000D01*
X175119000Y-78776000D02*
X175119000Y-76348000D01*
X175079000Y-83139000D02*
X175079000Y-80736000D01*
X175079000Y-78776000D02*
X175079000Y-76373000D01*
X175039000Y-83112000D02*
X175039000Y-80736000D01*
X175039000Y-78776000D02*
X175039000Y-76400000D01*
X174999000Y-83085000D02*
X174999000Y-80736000D01*
X174999000Y-78776000D02*
X174999000Y-76427000D01*
X174959000Y-83057000D02*
X174959000Y-80736000D01*
X174959000Y-78776000D02*
X174959000Y-76455000D01*
X174919000Y-83028000D02*
X174919000Y-80736000D01*
X174919000Y-78776000D02*
X174919000Y-76484000D01*
X174879000Y-82999000D02*
X174879000Y-80736000D01*
X174879000Y-78776000D02*
X174879000Y-76513000D01*
X174839000Y-82969000D02*
X174839000Y-80736000D01*
X174839000Y-78776000D02*
X174839000Y-76543000D01*
X174799000Y-82938000D02*
X174799000Y-80736000D01*
X174799000Y-78776000D02*
X174799000Y-76574000D01*
X174759000Y-82906000D02*
X174759000Y-80736000D01*
X174759000Y-78776000D02*
X174759000Y-76606000D01*
X174719000Y-82874000D02*
X174719000Y-80736000D01*
X174719000Y-78776000D02*
X174719000Y-76638000D01*
X174679000Y-82840000D02*
X174679000Y-80736000D01*
X174679000Y-78776000D02*
X174679000Y-76672000D01*
X174639000Y-82806000D02*
X174639000Y-80736000D01*
X174639000Y-78776000D02*
X174639000Y-76706000D01*
X174599000Y-82771000D02*
X174599000Y-80736000D01*
X174599000Y-78776000D02*
X174599000Y-76741000D01*
X174559000Y-82735000D02*
X174559000Y-76777000D01*
X174519000Y-82698000D02*
X174519000Y-76814000D01*
X174479000Y-82660000D02*
X174479000Y-76852000D01*
X174439000Y-82621000D02*
X174439000Y-76891000D01*
X174399000Y-82580000D02*
X174399000Y-76932000D01*
X174359000Y-82539000D02*
X174359000Y-76973000D01*
X174319000Y-82496000D02*
X174319000Y-77016000D01*
X174279000Y-82453000D02*
X174279000Y-77059000D01*
X174239000Y-82408000D02*
X174239000Y-77104000D01*
X174199000Y-82361000D02*
X174199000Y-77151000D01*
X174159000Y-82313000D02*
X174159000Y-77199000D01*
X174119000Y-82264000D02*
X174119000Y-77248000D01*
X174079000Y-82213000D02*
X174079000Y-77299000D01*
X174039000Y-82160000D02*
X174039000Y-77352000D01*
X173999000Y-82105000D02*
X173999000Y-77407000D01*
X173959000Y-82049000D02*
X173959000Y-77463000D01*
X173919000Y-81990000D02*
X173919000Y-77522000D01*
X173879000Y-81929000D02*
X173879000Y-77583000D01*
X173839000Y-81865000D02*
X173839000Y-77647000D01*
X173799000Y-81799000D02*
X173799000Y-77713000D01*
X173759000Y-81730000D02*
X173759000Y-77782000D01*
X173719000Y-81658000D02*
X173719000Y-77854000D01*
X173679000Y-81582000D02*
X173679000Y-77930000D01*
X173639000Y-81501000D02*
X173639000Y-78011000D01*
X173599000Y-81416000D02*
X173599000Y-78096000D01*
X173559000Y-81326000D02*
X173559000Y-78186000D01*
X173519000Y-81229000D02*
X173519000Y-78283000D01*
X173479000Y-81125000D02*
X173479000Y-78387000D01*
X173439000Y-81010000D02*
X173439000Y-78502000D01*
X173399000Y-80883000D02*
X173399000Y-78629000D01*
X173359000Y-80739000D02*
X173359000Y-78773000D01*
X173319000Y-80570000D02*
X173319000Y-78942000D01*
X173279000Y-80354000D02*
X173279000Y-79158000D01*
X173239000Y-80002000D02*
X173239000Y-79510000D01*
X181270000Y-79756000D02*
X180070000Y-79756000D01*
X180670000Y-80406000D02*
X180670000Y-79106000D01*
G04 #@! TO.C,U2*
D12*
X109728095Y-112482380D02*
X109728095Y-113291904D01*
X109775714Y-113387142D01*
X109823333Y-113434761D01*
X109918571Y-113482380D01*
X110109047Y-113482380D01*
X110204285Y-113434761D01*
X110251904Y-113387142D01*
X110299523Y-113291904D01*
X110299523Y-112482380D01*
X110728095Y-112577619D02*
X110775714Y-112530000D01*
X110870952Y-112482380D01*
X111109047Y-112482380D01*
X111204285Y-112530000D01*
X111251904Y-112577619D01*
X111299523Y-112672857D01*
X111299523Y-112768095D01*
X111251904Y-112910952D01*
X110680476Y-113482380D01*
X111299523Y-113482380D01*
G04 #@! TO.C,P1*
X195016380Y-93194095D02*
X194016380Y-93194095D01*
X194016380Y-92813142D01*
X194064000Y-92717904D01*
X194111619Y-92670285D01*
X194206857Y-92622666D01*
X194349714Y-92622666D01*
X194444952Y-92670285D01*
X194492571Y-92717904D01*
X194540190Y-92813142D01*
X194540190Y-93194095D01*
X195016380Y-91670285D02*
X195016380Y-92241714D01*
X195016380Y-91956000D02*
X194016380Y-91956000D01*
X194159238Y-92051238D01*
X194254476Y-92146476D01*
X194302095Y-92241714D01*
G04 #@! TO.C,P2*
X139469904Y-116784380D02*
X139469904Y-115784380D01*
X139850857Y-115784380D01*
X139946095Y-115832000D01*
X139993714Y-115879619D01*
X140041333Y-115974857D01*
X140041333Y-116117714D01*
X139993714Y-116212952D01*
X139946095Y-116260571D01*
X139850857Y-116308190D01*
X139469904Y-116308190D01*
X140422285Y-115879619D02*
X140469904Y-115832000D01*
X140565142Y-115784380D01*
X140803238Y-115784380D01*
X140898476Y-115832000D01*
X140946095Y-115879619D01*
X140993714Y-115974857D01*
X140993714Y-116070095D01*
X140946095Y-116212952D01*
X140374666Y-116784380D01*
X140993714Y-116784380D01*
G04 #@! TO.C,P3*
X162329904Y-117038380D02*
X162329904Y-116038380D01*
X162710857Y-116038380D01*
X162806095Y-116086000D01*
X162853714Y-116133619D01*
X162901333Y-116228857D01*
X162901333Y-116371714D01*
X162853714Y-116466952D01*
X162806095Y-116514571D01*
X162710857Y-116562190D01*
X162329904Y-116562190D01*
X163234666Y-116038380D02*
X163853714Y-116038380D01*
X163520380Y-116419333D01*
X163663238Y-116419333D01*
X163758476Y-116466952D01*
X163806095Y-116514571D01*
X163853714Y-116609809D01*
X163853714Y-116847904D01*
X163806095Y-116943142D01*
X163758476Y-116990761D01*
X163663238Y-117038380D01*
X163377523Y-117038380D01*
X163282285Y-116990761D01*
X163234666Y-116943142D01*
G04 #@! TO.C,P4*
X185189904Y-116784380D02*
X185189904Y-115784380D01*
X185570857Y-115784380D01*
X185666095Y-115832000D01*
X185713714Y-115879619D01*
X185761333Y-115974857D01*
X185761333Y-116117714D01*
X185713714Y-116212952D01*
X185666095Y-116260571D01*
X185570857Y-116308190D01*
X185189904Y-116308190D01*
X186618476Y-116117714D02*
X186618476Y-116784380D01*
X186380380Y-115736761D02*
X186142285Y-116451047D01*
X186761333Y-116451047D01*
G04 #@! TO.C,P5*
X132865904Y-74112380D02*
X132865904Y-73112380D01*
X133246857Y-73112380D01*
X133342095Y-73160000D01*
X133389714Y-73207619D01*
X133437333Y-73302857D01*
X133437333Y-73445714D01*
X133389714Y-73540952D01*
X133342095Y-73588571D01*
X133246857Y-73636190D01*
X132865904Y-73636190D01*
X134342095Y-73112380D02*
X133865904Y-73112380D01*
X133818285Y-73588571D01*
X133865904Y-73540952D01*
X133961142Y-73493333D01*
X134199238Y-73493333D01*
X134294476Y-73540952D01*
X134342095Y-73588571D01*
X134389714Y-73683809D01*
X134389714Y-73921904D01*
X134342095Y-74017142D01*
X134294476Y-74064761D01*
X134199238Y-74112380D01*
X133961142Y-74112380D01*
X133865904Y-74064761D01*
X133818285Y-74017142D01*
G04 #@! TO.C,P6*
X157249904Y-74112380D02*
X157249904Y-73112380D01*
X157630857Y-73112380D01*
X157726095Y-73160000D01*
X157773714Y-73207619D01*
X157821333Y-73302857D01*
X157821333Y-73445714D01*
X157773714Y-73540952D01*
X157726095Y-73588571D01*
X157630857Y-73636190D01*
X157249904Y-73636190D01*
X158678476Y-73112380D02*
X158488000Y-73112380D01*
X158392761Y-73160000D01*
X158345142Y-73207619D01*
X158249904Y-73350476D01*
X158202285Y-73540952D01*
X158202285Y-73921904D01*
X158249904Y-74017142D01*
X158297523Y-74064761D01*
X158392761Y-74112380D01*
X158583238Y-74112380D01*
X158678476Y-74064761D01*
X158726095Y-74017142D01*
X158773714Y-73921904D01*
X158773714Y-73683809D01*
X158726095Y-73588571D01*
X158678476Y-73540952D01*
X158583238Y-73493333D01*
X158392761Y-73493333D01*
X158297523Y-73540952D01*
X158249904Y-73588571D01*
X158202285Y-73683809D01*
G04 #@! TO.C,P7*
X180109904Y-74112380D02*
X180109904Y-73112380D01*
X180490857Y-73112380D01*
X180586095Y-73160000D01*
X180633714Y-73207619D01*
X180681333Y-73302857D01*
X180681333Y-73445714D01*
X180633714Y-73540952D01*
X180586095Y-73588571D01*
X180490857Y-73636190D01*
X180109904Y-73636190D01*
X181014666Y-73112380D02*
X181681333Y-73112380D01*
X181252761Y-74112380D01*
G04 #@! TO.C,C1*
X141732142Y-91606666D02*
X141779761Y-91654285D01*
X141827380Y-91797142D01*
X141827380Y-91892380D01*
X141779761Y-92035238D01*
X141684523Y-92130476D01*
X141589285Y-92178095D01*
X141398809Y-92225714D01*
X141255952Y-92225714D01*
X141065476Y-92178095D01*
X140970238Y-92130476D01*
X140875000Y-92035238D01*
X140827380Y-91892380D01*
X140827380Y-91797142D01*
X140875000Y-91654285D01*
X140922619Y-91606666D01*
X141827380Y-90654285D02*
X141827380Y-91225714D01*
X141827380Y-90940000D02*
X140827380Y-90940000D01*
X140970238Y-91035238D01*
X141065476Y-91130476D01*
X141113095Y-91225714D01*
G04 #@! TO.C,C2*
X140589142Y-81700666D02*
X140636761Y-81748285D01*
X140684380Y-81891142D01*
X140684380Y-81986380D01*
X140636761Y-82129238D01*
X140541523Y-82224476D01*
X140446285Y-82272095D01*
X140255809Y-82319714D01*
X140112952Y-82319714D01*
X139922476Y-82272095D01*
X139827238Y-82224476D01*
X139732000Y-82129238D01*
X139684380Y-81986380D01*
X139684380Y-81891142D01*
X139732000Y-81748285D01*
X139779619Y-81700666D01*
X139779619Y-81319714D02*
X139732000Y-81272095D01*
X139684380Y-81176857D01*
X139684380Y-80938761D01*
X139732000Y-80843523D01*
X139779619Y-80795904D01*
X139874857Y-80748285D01*
X139970095Y-80748285D01*
X140112952Y-80795904D01*
X140684380Y-81367333D01*
X140684380Y-80748285D01*
G04 #@! TO.C,C3*
X143978333Y-76557142D02*
X143930714Y-76604761D01*
X143787857Y-76652380D01*
X143692619Y-76652380D01*
X143549761Y-76604761D01*
X143454523Y-76509523D01*
X143406904Y-76414285D01*
X143359285Y-76223809D01*
X143359285Y-76080952D01*
X143406904Y-75890476D01*
X143454523Y-75795238D01*
X143549761Y-75700000D01*
X143692619Y-75652380D01*
X143787857Y-75652380D01*
X143930714Y-75700000D01*
X143978333Y-75747619D01*
X144311666Y-75652380D02*
X144930714Y-75652380D01*
X144597380Y-76033333D01*
X144740238Y-76033333D01*
X144835476Y-76080952D01*
X144883095Y-76128571D01*
X144930714Y-76223809D01*
X144930714Y-76461904D01*
X144883095Y-76557142D01*
X144835476Y-76604761D01*
X144740238Y-76652380D01*
X144454523Y-76652380D01*
X144359285Y-76604761D01*
X144311666Y-76557142D01*
G04 #@! TO.C,C4*
X149058333Y-76557142D02*
X149010714Y-76604761D01*
X148867857Y-76652380D01*
X148772619Y-76652380D01*
X148629761Y-76604761D01*
X148534523Y-76509523D01*
X148486904Y-76414285D01*
X148439285Y-76223809D01*
X148439285Y-76080952D01*
X148486904Y-75890476D01*
X148534523Y-75795238D01*
X148629761Y-75700000D01*
X148772619Y-75652380D01*
X148867857Y-75652380D01*
X149010714Y-75700000D01*
X149058333Y-75747619D01*
X149915476Y-75985714D02*
X149915476Y-76652380D01*
X149677380Y-75604761D02*
X149439285Y-76319047D01*
X150058333Y-76319047D01*
G04 #@! TO.C,C5*
X115403333Y-83415142D02*
X115355714Y-83462761D01*
X115212857Y-83510380D01*
X115117619Y-83510380D01*
X114974761Y-83462761D01*
X114879523Y-83367523D01*
X114831904Y-83272285D01*
X114784285Y-83081809D01*
X114784285Y-82938952D01*
X114831904Y-82748476D01*
X114879523Y-82653238D01*
X114974761Y-82558000D01*
X115117619Y-82510380D01*
X115212857Y-82510380D01*
X115355714Y-82558000D01*
X115403333Y-82605619D01*
X116308095Y-82510380D02*
X115831904Y-82510380D01*
X115784285Y-82986571D01*
X115831904Y-82938952D01*
X115927142Y-82891333D01*
X116165238Y-82891333D01*
X116260476Y-82938952D01*
X116308095Y-82986571D01*
X116355714Y-83081809D01*
X116355714Y-83319904D01*
X116308095Y-83415142D01*
X116260476Y-83462761D01*
X116165238Y-83510380D01*
X115927142Y-83510380D01*
X115831904Y-83462761D01*
X115784285Y-83415142D01*
G04 #@! TO.C,C6*
X120229333Y-116435142D02*
X120181714Y-116482761D01*
X120038857Y-116530380D01*
X119943619Y-116530380D01*
X119800761Y-116482761D01*
X119705523Y-116387523D01*
X119657904Y-116292285D01*
X119610285Y-116101809D01*
X119610285Y-115958952D01*
X119657904Y-115768476D01*
X119705523Y-115673238D01*
X119800761Y-115578000D01*
X119943619Y-115530380D01*
X120038857Y-115530380D01*
X120181714Y-115578000D01*
X120229333Y-115625619D01*
X121086476Y-115530380D02*
X120896000Y-115530380D01*
X120800761Y-115578000D01*
X120753142Y-115625619D01*
X120657904Y-115768476D01*
X120610285Y-115958952D01*
X120610285Y-116339904D01*
X120657904Y-116435142D01*
X120705523Y-116482761D01*
X120800761Y-116530380D01*
X120991238Y-116530380D01*
X121086476Y-116482761D01*
X121134095Y-116435142D01*
X121181714Y-116339904D01*
X121181714Y-116101809D01*
X121134095Y-116006571D01*
X121086476Y-115958952D01*
X120991238Y-115911333D01*
X120800761Y-115911333D01*
X120705523Y-115958952D01*
X120657904Y-116006571D01*
X120610285Y-116101809D01*
G04 #@! TO.C,C7*
X113895142Y-120308666D02*
X113942761Y-120356285D01*
X113990380Y-120499142D01*
X113990380Y-120594380D01*
X113942761Y-120737238D01*
X113847523Y-120832476D01*
X113752285Y-120880095D01*
X113561809Y-120927714D01*
X113418952Y-120927714D01*
X113228476Y-120880095D01*
X113133238Y-120832476D01*
X113038000Y-120737238D01*
X112990380Y-120594380D01*
X112990380Y-120499142D01*
X113038000Y-120356285D01*
X113085619Y-120308666D01*
X112990380Y-119975333D02*
X112990380Y-119308666D01*
X113990380Y-119737238D01*
G04 #@! TO.C,C8*
X106894333Y-117705142D02*
X106846714Y-117752761D01*
X106703857Y-117800380D01*
X106608619Y-117800380D01*
X106465761Y-117752761D01*
X106370523Y-117657523D01*
X106322904Y-117562285D01*
X106275285Y-117371809D01*
X106275285Y-117228952D01*
X106322904Y-117038476D01*
X106370523Y-116943238D01*
X106465761Y-116848000D01*
X106608619Y-116800380D01*
X106703857Y-116800380D01*
X106846714Y-116848000D01*
X106894333Y-116895619D01*
X107465761Y-117228952D02*
X107370523Y-117181333D01*
X107322904Y-117133714D01*
X107275285Y-117038476D01*
X107275285Y-116990857D01*
X107322904Y-116895619D01*
X107370523Y-116848000D01*
X107465761Y-116800380D01*
X107656238Y-116800380D01*
X107751476Y-116848000D01*
X107799095Y-116895619D01*
X107846714Y-116990857D01*
X107846714Y-117038476D01*
X107799095Y-117133714D01*
X107751476Y-117181333D01*
X107656238Y-117228952D01*
X107465761Y-117228952D01*
X107370523Y-117276571D01*
X107322904Y-117324190D01*
X107275285Y-117419428D01*
X107275285Y-117609904D01*
X107322904Y-117705142D01*
X107370523Y-117752761D01*
X107465761Y-117800380D01*
X107656238Y-117800380D01*
X107751476Y-117752761D01*
X107799095Y-117705142D01*
X107846714Y-117609904D01*
X107846714Y-117419428D01*
X107799095Y-117324190D01*
X107751476Y-117276571D01*
X107656238Y-117228952D01*
G04 #@! TO.C,D1*
X185316904Y-108222380D02*
X185316904Y-107222380D01*
X185555000Y-107222380D01*
X185697857Y-107270000D01*
X185793095Y-107365238D01*
X185840714Y-107460476D01*
X185888333Y-107650952D01*
X185888333Y-107793809D01*
X185840714Y-107984285D01*
X185793095Y-108079523D01*
X185697857Y-108174761D01*
X185555000Y-108222380D01*
X185316904Y-108222380D01*
X186840714Y-108222380D02*
X186269285Y-108222380D01*
X186555000Y-108222380D02*
X186555000Y-107222380D01*
X186459761Y-107365238D01*
X186364523Y-107460476D01*
X186269285Y-107508095D01*
G04 #@! TO.C,D2*
X185316904Y-111397380D02*
X185316904Y-110397380D01*
X185555000Y-110397380D01*
X185697857Y-110445000D01*
X185793095Y-110540238D01*
X185840714Y-110635476D01*
X185888333Y-110825952D01*
X185888333Y-110968809D01*
X185840714Y-111159285D01*
X185793095Y-111254523D01*
X185697857Y-111349761D01*
X185555000Y-111397380D01*
X185316904Y-111397380D01*
X186269285Y-110492619D02*
X186316904Y-110445000D01*
X186412142Y-110397380D01*
X186650238Y-110397380D01*
X186745476Y-110445000D01*
X186793095Y-110492619D01*
X186840714Y-110587857D01*
X186840714Y-110683095D01*
X186793095Y-110825952D01*
X186221666Y-111397380D01*
X186840714Y-111397380D01*
G04 #@! TO.C,D3*
X111783904Y-127518380D02*
X111783904Y-126518380D01*
X112022000Y-126518380D01*
X112164857Y-126566000D01*
X112260095Y-126661238D01*
X112307714Y-126756476D01*
X112355333Y-126946952D01*
X112355333Y-127089809D01*
X112307714Y-127280285D01*
X112260095Y-127375523D01*
X112164857Y-127470761D01*
X112022000Y-127518380D01*
X111783904Y-127518380D01*
X112688666Y-126518380D02*
X113307714Y-126518380D01*
X112974380Y-126899333D01*
X113117238Y-126899333D01*
X113212476Y-126946952D01*
X113260095Y-126994571D01*
X113307714Y-127089809D01*
X113307714Y-127327904D01*
X113260095Y-127423142D01*
X113212476Y-127470761D01*
X113117238Y-127518380D01*
X112831523Y-127518380D01*
X112736285Y-127470761D01*
X112688666Y-127423142D01*
G04 #@! TO.C,J1*
X179367380Y-66881333D02*
X180081666Y-66881333D01*
X180224523Y-66928952D01*
X180319761Y-67024190D01*
X180367380Y-67167047D01*
X180367380Y-67262285D01*
X180367380Y-65881333D02*
X180367380Y-66452761D01*
X180367380Y-66167047D02*
X179367380Y-66167047D01*
X179510238Y-66262285D01*
X179605476Y-66357523D01*
X179653095Y-66452761D01*
G04 #@! TO.C,J2*
X103846380Y-104219333D02*
X104560666Y-104219333D01*
X104703523Y-104266952D01*
X104798761Y-104362190D01*
X104846380Y-104505047D01*
X104846380Y-104600285D01*
X103941619Y-103790761D02*
X103894000Y-103743142D01*
X103846380Y-103647904D01*
X103846380Y-103409809D01*
X103894000Y-103314571D01*
X103941619Y-103266952D01*
X104036857Y-103219333D01*
X104132095Y-103219333D01*
X104274952Y-103266952D01*
X104846380Y-103838380D01*
X104846380Y-103219333D01*
G04 #@! TO.C,Q1*
X148802619Y-106140238D02*
X148755000Y-106235476D01*
X148659761Y-106330714D01*
X148516904Y-106473571D01*
X148469285Y-106568809D01*
X148469285Y-106664047D01*
X148707380Y-106616428D02*
X148659761Y-106711666D01*
X148564523Y-106806904D01*
X148374047Y-106854523D01*
X148040714Y-106854523D01*
X147850238Y-106806904D01*
X147755000Y-106711666D01*
X147707380Y-106616428D01*
X147707380Y-106425952D01*
X147755000Y-106330714D01*
X147850238Y-106235476D01*
X148040714Y-106187857D01*
X148374047Y-106187857D01*
X148564523Y-106235476D01*
X148659761Y-106330714D01*
X148707380Y-106425952D01*
X148707380Y-106616428D01*
X148707380Y-105235476D02*
X148707380Y-105806904D01*
X148707380Y-105521190D02*
X147707380Y-105521190D01*
X147850238Y-105616428D01*
X147945476Y-105711666D01*
X147993095Y-105806904D01*
G04 #@! TO.C,Q2*
X135467619Y-106140238D02*
X135420000Y-106235476D01*
X135324761Y-106330714D01*
X135181904Y-106473571D01*
X135134285Y-106568809D01*
X135134285Y-106664047D01*
X135372380Y-106616428D02*
X135324761Y-106711666D01*
X135229523Y-106806904D01*
X135039047Y-106854523D01*
X134705714Y-106854523D01*
X134515238Y-106806904D01*
X134420000Y-106711666D01*
X134372380Y-106616428D01*
X134372380Y-106425952D01*
X134420000Y-106330714D01*
X134515238Y-106235476D01*
X134705714Y-106187857D01*
X135039047Y-106187857D01*
X135229523Y-106235476D01*
X135324761Y-106330714D01*
X135372380Y-106425952D01*
X135372380Y-106616428D01*
X134467619Y-105806904D02*
X134420000Y-105759285D01*
X134372380Y-105664047D01*
X134372380Y-105425952D01*
X134420000Y-105330714D01*
X134467619Y-105283095D01*
X134562857Y-105235476D01*
X134658095Y-105235476D01*
X134800952Y-105283095D01*
X135372380Y-105854523D01*
X135372380Y-105235476D01*
G04 #@! TO.C,Q3*
X174837619Y-102965238D02*
X174790000Y-103060476D01*
X174694761Y-103155714D01*
X174551904Y-103298571D01*
X174504285Y-103393809D01*
X174504285Y-103489047D01*
X174742380Y-103441428D02*
X174694761Y-103536666D01*
X174599523Y-103631904D01*
X174409047Y-103679523D01*
X174075714Y-103679523D01*
X173885238Y-103631904D01*
X173790000Y-103536666D01*
X173742380Y-103441428D01*
X173742380Y-103250952D01*
X173790000Y-103155714D01*
X173885238Y-103060476D01*
X174075714Y-103012857D01*
X174409047Y-103012857D01*
X174599523Y-103060476D01*
X174694761Y-103155714D01*
X174742380Y-103250952D01*
X174742380Y-103441428D01*
X173742380Y-102679523D02*
X173742380Y-102060476D01*
X174123333Y-102393809D01*
X174123333Y-102250952D01*
X174170952Y-102155714D01*
X174218571Y-102108095D01*
X174313809Y-102060476D01*
X174551904Y-102060476D01*
X174647142Y-102108095D01*
X174694761Y-102155714D01*
X174742380Y-102250952D01*
X174742380Y-102536666D01*
X174694761Y-102631904D01*
X174647142Y-102679523D01*
G04 #@! TO.C,Q4*
X161502619Y-106140238D02*
X161455000Y-106235476D01*
X161359761Y-106330714D01*
X161216904Y-106473571D01*
X161169285Y-106568809D01*
X161169285Y-106664047D01*
X161407380Y-106616428D02*
X161359761Y-106711666D01*
X161264523Y-106806904D01*
X161074047Y-106854523D01*
X160740714Y-106854523D01*
X160550238Y-106806904D01*
X160455000Y-106711666D01*
X160407380Y-106616428D01*
X160407380Y-106425952D01*
X160455000Y-106330714D01*
X160550238Y-106235476D01*
X160740714Y-106187857D01*
X161074047Y-106187857D01*
X161264523Y-106235476D01*
X161359761Y-106330714D01*
X161407380Y-106425952D01*
X161407380Y-106616428D01*
X160740714Y-105330714D02*
X161407380Y-105330714D01*
X160359761Y-105568809D02*
X161074047Y-105806904D01*
X161074047Y-105187857D01*
G04 #@! TO.C,R1*
X185111380Y-79922666D02*
X184635190Y-80256000D01*
X185111380Y-80494095D02*
X184111380Y-80494095D01*
X184111380Y-80113142D01*
X184159000Y-80017904D01*
X184206619Y-79970285D01*
X184301857Y-79922666D01*
X184444714Y-79922666D01*
X184539952Y-79970285D01*
X184587571Y-80017904D01*
X184635190Y-80113142D01*
X184635190Y-80494095D01*
X185111380Y-78970285D02*
X185111380Y-79541714D01*
X185111380Y-79256000D02*
X184111380Y-79256000D01*
X184254238Y-79351238D01*
X184349476Y-79446476D01*
X184397095Y-79541714D01*
G04 #@! TO.C,R2*
X185111380Y-76112666D02*
X184635190Y-76446000D01*
X185111380Y-76684095D02*
X184111380Y-76684095D01*
X184111380Y-76303142D01*
X184159000Y-76207904D01*
X184206619Y-76160285D01*
X184301857Y-76112666D01*
X184444714Y-76112666D01*
X184539952Y-76160285D01*
X184587571Y-76207904D01*
X184635190Y-76303142D01*
X184635190Y-76684095D01*
X184206619Y-75731714D02*
X184159000Y-75684095D01*
X184111380Y-75588857D01*
X184111380Y-75350761D01*
X184159000Y-75255523D01*
X184206619Y-75207904D01*
X184301857Y-75160285D01*
X184397095Y-75160285D01*
X184539952Y-75207904D01*
X185111380Y-75779333D01*
X185111380Y-75160285D01*
G04 #@! TO.C,R3*
X188921380Y-79922666D02*
X188445190Y-80256000D01*
X188921380Y-80494095D02*
X187921380Y-80494095D01*
X187921380Y-80113142D01*
X187969000Y-80017904D01*
X188016619Y-79970285D01*
X188111857Y-79922666D01*
X188254714Y-79922666D01*
X188349952Y-79970285D01*
X188397571Y-80017904D01*
X188445190Y-80113142D01*
X188445190Y-80494095D01*
X187921380Y-79589333D02*
X187921380Y-78970285D01*
X188302333Y-79303619D01*
X188302333Y-79160761D01*
X188349952Y-79065523D01*
X188397571Y-79017904D01*
X188492809Y-78970285D01*
X188730904Y-78970285D01*
X188826142Y-79017904D01*
X188873761Y-79065523D01*
X188921380Y-79160761D01*
X188921380Y-79446476D01*
X188873761Y-79541714D01*
X188826142Y-79589333D01*
G04 #@! TO.C,R4*
X188921380Y-76112666D02*
X188445190Y-76446000D01*
X188921380Y-76684095D02*
X187921380Y-76684095D01*
X187921380Y-76303142D01*
X187969000Y-76207904D01*
X188016619Y-76160285D01*
X188111857Y-76112666D01*
X188254714Y-76112666D01*
X188349952Y-76160285D01*
X188397571Y-76207904D01*
X188445190Y-76303142D01*
X188445190Y-76684095D01*
X188254714Y-75255523D02*
X188921380Y-75255523D01*
X187873761Y-75493619D02*
X188588047Y-75731714D01*
X188588047Y-75112666D01*
G04 #@! TO.C,R5*
X190333333Y-108022380D02*
X190000000Y-107546190D01*
X189761904Y-108022380D02*
X189761904Y-107022380D01*
X190142857Y-107022380D01*
X190238095Y-107070000D01*
X190285714Y-107117619D01*
X190333333Y-107212857D01*
X190333333Y-107355714D01*
X190285714Y-107450952D01*
X190238095Y-107498571D01*
X190142857Y-107546190D01*
X189761904Y-107546190D01*
X191238095Y-107022380D02*
X190761904Y-107022380D01*
X190714285Y-107498571D01*
X190761904Y-107450952D01*
X190857142Y-107403333D01*
X191095238Y-107403333D01*
X191190476Y-107450952D01*
X191238095Y-107498571D01*
X191285714Y-107593809D01*
X191285714Y-107831904D01*
X191238095Y-107927142D01*
X191190476Y-107974761D01*
X191095238Y-108022380D01*
X190857142Y-108022380D01*
X190761904Y-107974761D01*
X190714285Y-107927142D01*
G04 #@! TO.C,R6*
X190333333Y-111197380D02*
X190000000Y-110721190D01*
X189761904Y-111197380D02*
X189761904Y-110197380D01*
X190142857Y-110197380D01*
X190238095Y-110245000D01*
X190285714Y-110292619D01*
X190333333Y-110387857D01*
X190333333Y-110530714D01*
X190285714Y-110625952D01*
X190238095Y-110673571D01*
X190142857Y-110721190D01*
X189761904Y-110721190D01*
X191190476Y-110197380D02*
X191000000Y-110197380D01*
X190904761Y-110245000D01*
X190857142Y-110292619D01*
X190761904Y-110435476D01*
X190714285Y-110625952D01*
X190714285Y-111006904D01*
X190761904Y-111102142D01*
X190809523Y-111149761D01*
X190904761Y-111197380D01*
X191095238Y-111197380D01*
X191190476Y-111149761D01*
X191238095Y-111102142D01*
X191285714Y-111006904D01*
X191285714Y-110768809D01*
X191238095Y-110673571D01*
X191190476Y-110625952D01*
X191095238Y-110578333D01*
X190904761Y-110578333D01*
X190809523Y-110625952D01*
X190761904Y-110673571D01*
X190714285Y-110768809D01*
G04 #@! TO.C,R7*
X146502380Y-96051666D02*
X146026190Y-96385000D01*
X146502380Y-96623095D02*
X145502380Y-96623095D01*
X145502380Y-96242142D01*
X145550000Y-96146904D01*
X145597619Y-96099285D01*
X145692857Y-96051666D01*
X145835714Y-96051666D01*
X145930952Y-96099285D01*
X145978571Y-96146904D01*
X146026190Y-96242142D01*
X146026190Y-96623095D01*
X145502380Y-95718333D02*
X145502380Y-95051666D01*
X146502380Y-95480238D01*
G04 #@! TO.C,R8*
X132152380Y-96051666D02*
X131676190Y-96385000D01*
X132152380Y-96623095D02*
X131152380Y-96623095D01*
X131152380Y-96242142D01*
X131200000Y-96146904D01*
X131247619Y-96099285D01*
X131342857Y-96051666D01*
X131485714Y-96051666D01*
X131580952Y-96099285D01*
X131628571Y-96146904D01*
X131676190Y-96242142D01*
X131676190Y-96623095D01*
X131580952Y-95480238D02*
X131533333Y-95575476D01*
X131485714Y-95623095D01*
X131390476Y-95670714D01*
X131342857Y-95670714D01*
X131247619Y-95623095D01*
X131200000Y-95575476D01*
X131152380Y-95480238D01*
X131152380Y-95289761D01*
X131200000Y-95194523D01*
X131247619Y-95146904D01*
X131342857Y-95099285D01*
X131390476Y-95099285D01*
X131485714Y-95146904D01*
X131533333Y-95194523D01*
X131580952Y-95289761D01*
X131580952Y-95480238D01*
X131628571Y-95575476D01*
X131676190Y-95623095D01*
X131771428Y-95670714D01*
X131961904Y-95670714D01*
X132057142Y-95623095D01*
X132104761Y-95575476D01*
X132152380Y-95480238D01*
X132152380Y-95289761D01*
X132104761Y-95194523D01*
X132057142Y-95146904D01*
X131961904Y-95099285D01*
X131771428Y-95099285D01*
X131676190Y-95146904D01*
X131628571Y-95194523D01*
X131580952Y-95289761D01*
G04 #@! TO.C,R9*
X168727380Y-90971666D02*
X168251190Y-91305000D01*
X168727380Y-91543095D02*
X167727380Y-91543095D01*
X167727380Y-91162142D01*
X167775000Y-91066904D01*
X167822619Y-91019285D01*
X167917857Y-90971666D01*
X168060714Y-90971666D01*
X168155952Y-91019285D01*
X168203571Y-91066904D01*
X168251190Y-91162142D01*
X168251190Y-91543095D01*
X168727380Y-90495476D02*
X168727380Y-90305000D01*
X168679761Y-90209761D01*
X168632142Y-90162142D01*
X168489285Y-90066904D01*
X168298809Y-90019285D01*
X167917857Y-90019285D01*
X167822619Y-90066904D01*
X167775000Y-90114523D01*
X167727380Y-90209761D01*
X167727380Y-90400238D01*
X167775000Y-90495476D01*
X167822619Y-90543095D01*
X167917857Y-90590714D01*
X168155952Y-90590714D01*
X168251190Y-90543095D01*
X168298809Y-90495476D01*
X168346428Y-90400238D01*
X168346428Y-90209761D01*
X168298809Y-90114523D01*
X168251190Y-90066904D01*
X168155952Y-90019285D01*
G04 #@! TO.C,R10*
X157170380Y-93672857D02*
X156694190Y-94006190D01*
X157170380Y-94244285D02*
X156170380Y-94244285D01*
X156170380Y-93863333D01*
X156218000Y-93768095D01*
X156265619Y-93720476D01*
X156360857Y-93672857D01*
X156503714Y-93672857D01*
X156598952Y-93720476D01*
X156646571Y-93768095D01*
X156694190Y-93863333D01*
X156694190Y-94244285D01*
X157170380Y-92720476D02*
X157170380Y-93291904D01*
X157170380Y-93006190D02*
X156170380Y-93006190D01*
X156313238Y-93101428D01*
X156408476Y-93196666D01*
X156456095Y-93291904D01*
X156170380Y-92101428D02*
X156170380Y-92006190D01*
X156218000Y-91910952D01*
X156265619Y-91863333D01*
X156360857Y-91815714D01*
X156551333Y-91768095D01*
X156789428Y-91768095D01*
X156979904Y-91815714D01*
X157075142Y-91863333D01*
X157122761Y-91910952D01*
X157170380Y-92006190D01*
X157170380Y-92101428D01*
X157122761Y-92196666D01*
X157075142Y-92244285D01*
X156979904Y-92291904D01*
X156789428Y-92339523D01*
X156551333Y-92339523D01*
X156360857Y-92291904D01*
X156265619Y-92244285D01*
X156218000Y-92196666D01*
X156170380Y-92101428D01*
G04 #@! TO.C,U1*
X152908095Y-77557380D02*
X152908095Y-78366904D01*
X152955714Y-78462142D01*
X153003333Y-78509761D01*
X153098571Y-78557380D01*
X153289047Y-78557380D01*
X153384285Y-78509761D01*
X153431904Y-78462142D01*
X153479523Y-78366904D01*
X153479523Y-77557380D01*
X154479523Y-78557380D02*
X153908095Y-78557380D01*
X154193809Y-78557380D02*
X154193809Y-77557380D01*
X154098571Y-77700238D01*
X154003333Y-77795476D01*
X153908095Y-77843095D01*
G04 #@! TO.C,R11*
X136216380Y-68206857D02*
X135740190Y-68540190D01*
X136216380Y-68778285D02*
X135216380Y-68778285D01*
X135216380Y-68397333D01*
X135264000Y-68302095D01*
X135311619Y-68254476D01*
X135406857Y-68206857D01*
X135549714Y-68206857D01*
X135644952Y-68254476D01*
X135692571Y-68302095D01*
X135740190Y-68397333D01*
X135740190Y-68778285D01*
X136216380Y-67254476D02*
X136216380Y-67825904D01*
X136216380Y-67540190D02*
X135216380Y-67540190D01*
X135359238Y-67635428D01*
X135454476Y-67730666D01*
X135502095Y-67825904D01*
X136216380Y-66302095D02*
X136216380Y-66873523D01*
X136216380Y-66587809D02*
X135216380Y-66587809D01*
X135359238Y-66683047D01*
X135454476Y-66778285D01*
X135502095Y-66873523D01*
G04 #@! TO.C,R12*
X158060380Y-68206857D02*
X157584190Y-68540190D01*
X158060380Y-68778285D02*
X157060380Y-68778285D01*
X157060380Y-68397333D01*
X157108000Y-68302095D01*
X157155619Y-68254476D01*
X157250857Y-68206857D01*
X157393714Y-68206857D01*
X157488952Y-68254476D01*
X157536571Y-68302095D01*
X157584190Y-68397333D01*
X157584190Y-68778285D01*
X158060380Y-67254476D02*
X158060380Y-67825904D01*
X158060380Y-67540190D02*
X157060380Y-67540190D01*
X157203238Y-67635428D01*
X157298476Y-67730666D01*
X157346095Y-67825904D01*
X157155619Y-66873523D02*
X157108000Y-66825904D01*
X157060380Y-66730666D01*
X157060380Y-66492571D01*
X157108000Y-66397333D01*
X157155619Y-66349714D01*
X157250857Y-66302095D01*
X157346095Y-66302095D01*
X157488952Y-66349714D01*
X158060380Y-66921142D01*
X158060380Y-66302095D01*
G04 #@! TO.C,R13*
X154758380Y-68206857D02*
X154282190Y-68540190D01*
X154758380Y-68778285D02*
X153758380Y-68778285D01*
X153758380Y-68397333D01*
X153806000Y-68302095D01*
X153853619Y-68254476D01*
X153948857Y-68206857D01*
X154091714Y-68206857D01*
X154186952Y-68254476D01*
X154234571Y-68302095D01*
X154282190Y-68397333D01*
X154282190Y-68778285D01*
X154758380Y-67254476D02*
X154758380Y-67825904D01*
X154758380Y-67540190D02*
X153758380Y-67540190D01*
X153901238Y-67635428D01*
X153996476Y-67730666D01*
X154044095Y-67825904D01*
X153758380Y-66921142D02*
X153758380Y-66302095D01*
X154139333Y-66635428D01*
X154139333Y-66492571D01*
X154186952Y-66397333D01*
X154234571Y-66349714D01*
X154329809Y-66302095D01*
X154567904Y-66302095D01*
X154663142Y-66349714D01*
X154710761Y-66397333D01*
X154758380Y-66492571D01*
X154758380Y-66778285D01*
X154710761Y-66873523D01*
X154663142Y-66921142D01*
G04 #@! TO.C,J3*
X158412380Y-79581333D02*
X159126666Y-79581333D01*
X159269523Y-79628952D01*
X159364761Y-79724190D01*
X159412380Y-79867047D01*
X159412380Y-79962285D01*
X158412380Y-79200380D02*
X158412380Y-78581333D01*
X158793333Y-78914666D01*
X158793333Y-78771809D01*
X158840952Y-78676571D01*
X158888571Y-78628952D01*
X158983809Y-78581333D01*
X159221904Y-78581333D01*
X159317142Y-78628952D01*
X159364761Y-78676571D01*
X159412380Y-78771809D01*
X159412380Y-79057523D01*
X159364761Y-79152761D01*
X159317142Y-79200380D01*
G04 #@! TO.C,J4*
X134878380Y-83899333D02*
X135592666Y-83899333D01*
X135735523Y-83946952D01*
X135830761Y-84042190D01*
X135878380Y-84185047D01*
X135878380Y-84280285D01*
X135211714Y-82994571D02*
X135878380Y-82994571D01*
X134830761Y-83232666D02*
X135545047Y-83470761D01*
X135545047Y-82851714D01*
G04 #@! TO.C,J5*
X147744380Y-123523333D02*
X148458666Y-123523333D01*
X148601523Y-123570952D01*
X148696761Y-123666190D01*
X148744380Y-123809047D01*
X148744380Y-123904285D01*
X147744380Y-122570952D02*
X147744380Y-123047142D01*
X148220571Y-123094761D01*
X148172952Y-123047142D01*
X148125333Y-122951904D01*
X148125333Y-122713809D01*
X148172952Y-122618571D01*
X148220571Y-122570952D01*
X148315809Y-122523333D01*
X148553904Y-122523333D01*
X148649142Y-122570952D01*
X148696761Y-122618571D01*
X148744380Y-122713809D01*
X148744380Y-122951904D01*
X148696761Y-123047142D01*
X148649142Y-123094761D01*
G04 #@! TO.C,J6*
X191690666Y-88904380D02*
X191690666Y-89618666D01*
X191643047Y-89761523D01*
X191547809Y-89856761D01*
X191404952Y-89904380D01*
X191309714Y-89904380D01*
X192595428Y-88904380D02*
X192404952Y-88904380D01*
X192309714Y-88952000D01*
X192262095Y-88999619D01*
X192166857Y-89142476D01*
X192119238Y-89332952D01*
X192119238Y-89713904D01*
X192166857Y-89809142D01*
X192214476Y-89856761D01*
X192309714Y-89904380D01*
X192500190Y-89904380D01*
X192595428Y-89856761D01*
X192643047Y-89809142D01*
X192690666Y-89713904D01*
X192690666Y-89475809D01*
X192643047Y-89380571D01*
X192595428Y-89332952D01*
X192500190Y-89285333D01*
X192309714Y-89285333D01*
X192214476Y-89332952D01*
X192166857Y-89380571D01*
X192119238Y-89475809D01*
G04 #@! TO.C,J7*
X191690666Y-90594380D02*
X191690666Y-91308666D01*
X191643047Y-91451523D01*
X191547809Y-91546761D01*
X191404952Y-91594380D01*
X191309714Y-91594380D01*
X192071619Y-90594380D02*
X192738285Y-90594380D01*
X192309714Y-91594380D01*
G04 #@! TO.C,J8*
X191690666Y-99484380D02*
X191690666Y-100198666D01*
X191643047Y-100341523D01*
X191547809Y-100436761D01*
X191404952Y-100484380D01*
X191309714Y-100484380D01*
X192309714Y-99912952D02*
X192214476Y-99865333D01*
X192166857Y-99817714D01*
X192119238Y-99722476D01*
X192119238Y-99674857D01*
X192166857Y-99579619D01*
X192214476Y-99532000D01*
X192309714Y-99484380D01*
X192500190Y-99484380D01*
X192595428Y-99532000D01*
X192643047Y-99579619D01*
X192690666Y-99674857D01*
X192690666Y-99722476D01*
X192643047Y-99817714D01*
X192595428Y-99865333D01*
X192500190Y-99912952D01*
X192309714Y-99912952D01*
X192214476Y-99960571D01*
X192166857Y-100008190D01*
X192119238Y-100103428D01*
X192119238Y-100293904D01*
X192166857Y-100389142D01*
X192214476Y-100436761D01*
X192309714Y-100484380D01*
X192500190Y-100484380D01*
X192595428Y-100436761D01*
X192643047Y-100389142D01*
X192690666Y-100293904D01*
X192690666Y-100103428D01*
X192643047Y-100008190D01*
X192595428Y-99960571D01*
X192500190Y-99912952D01*
G04 #@! TO.C,C9*
X177153333Y-85423142D02*
X177105714Y-85470761D01*
X176962857Y-85518380D01*
X176867619Y-85518380D01*
X176724761Y-85470761D01*
X176629523Y-85375523D01*
X176581904Y-85280285D01*
X176534285Y-85089809D01*
X176534285Y-84946952D01*
X176581904Y-84756476D01*
X176629523Y-84661238D01*
X176724761Y-84566000D01*
X176867619Y-84518380D01*
X176962857Y-84518380D01*
X177105714Y-84566000D01*
X177153333Y-84613619D01*
X177629523Y-85518380D02*
X177820000Y-85518380D01*
X177915238Y-85470761D01*
X177962857Y-85423142D01*
X178058095Y-85280285D01*
X178105714Y-85089809D01*
X178105714Y-84708857D01*
X178058095Y-84613619D01*
X178010476Y-84566000D01*
X177915238Y-84518380D01*
X177724761Y-84518380D01*
X177629523Y-84566000D01*
X177581904Y-84613619D01*
X177534285Y-84708857D01*
X177534285Y-84946952D01*
X177581904Y-85042190D01*
X177629523Y-85089809D01*
X177724761Y-85137428D01*
X177915238Y-85137428D01*
X178010476Y-85089809D01*
X178058095Y-85042190D01*
X178105714Y-84946952D01*
G04 #@! TD*
M02*
